G04 #@! TF.FileFunction,Copper,L2,Bot,Signal*
%FSLAX46Y46*%
G04 Gerber Fmt 4.6, Leading zero omitted, Abs format (unit mm)*
G04 Created by KiCad (PCBNEW 4.0.6) date Thursday, 09 May 2019 22:32:22*
%MOMM*%
%LPD*%
G01*
G04 APERTURE LIST*
%ADD10C,0.100000*%
%ADD11C,0.600000*%
%ADD12R,1.727200X1.727200*%
%ADD13O,1.727200X1.727200*%
%ADD14R,2.000000X2.000000*%
%ADD15C,2.000000*%
%ADD16O,2.800000X2.100000*%
%ADD17O,2.100000X2.800000*%
%ADD18R,1.700000X1.700000*%
%ADD19O,1.700000X1.700000*%
%ADD20C,4.000000*%
%ADD21R,1.650000X1.650000*%
%ADD22C,1.650000*%
%ADD23C,4.500000*%
%ADD24R,1.800000X1.800000*%
%ADD25O,1.800000X1.800000*%
%ADD26C,1.501140*%
%ADD27C,0.400000*%
%ADD28C,0.254000*%
G04 APERTURE END LIST*
D10*
D11*
X137953000Y-120046000D03*
X135953000Y-120046000D03*
X133953000Y-120046000D03*
X131953000Y-120046000D03*
X137953000Y-118046000D03*
X135953000Y-118046000D03*
X133953000Y-118046000D03*
X131953000Y-118046000D03*
X137953000Y-116046000D03*
X135953000Y-116046000D03*
X133953000Y-116046000D03*
X131953000Y-116046000D03*
X137953000Y-114046000D03*
X135953000Y-114046000D03*
X133953000Y-114046000D03*
D12*
X168768000Y-96722000D03*
D13*
X168768000Y-94182000D03*
X171308000Y-96722000D03*
X171308000Y-94182000D03*
X173848000Y-96722000D03*
X173848000Y-94182000D03*
D14*
X174000000Y-157000000D03*
D15*
X171460000Y-157000000D03*
D14*
X189000000Y-157000000D03*
D15*
X186460000Y-157000000D03*
D14*
X204000000Y-157000000D03*
D15*
X201460000Y-157000000D03*
D16*
X183000000Y-64100000D03*
D17*
X178450000Y-67400000D03*
X188050000Y-71900000D03*
D16*
X179000000Y-75100000D03*
D17*
X185650000Y-70500000D03*
D18*
X129000000Y-152000000D03*
D19*
X129000000Y-149460000D03*
X131540000Y-152000000D03*
X131540000Y-149460000D03*
X134080000Y-152000000D03*
X134080000Y-149460000D03*
X136620000Y-152000000D03*
X136620000Y-149460000D03*
X139160000Y-152000000D03*
X139160000Y-149460000D03*
X141700000Y-152000000D03*
X141700000Y-149460000D03*
X144240000Y-152000000D03*
X144240000Y-149460000D03*
X146780000Y-152000000D03*
X146780000Y-149460000D03*
X149320000Y-152000000D03*
X149320000Y-149460000D03*
X151860000Y-152000000D03*
X151860000Y-149460000D03*
X154400000Y-152000000D03*
X154400000Y-149460000D03*
X156940000Y-152000000D03*
X156940000Y-149460000D03*
X159480000Y-152000000D03*
X159480000Y-149460000D03*
X162020000Y-152000000D03*
X162020000Y-149460000D03*
X164560000Y-152000000D03*
X164560000Y-149460000D03*
X167100000Y-152000000D03*
X167100000Y-149460000D03*
D16*
X167000000Y-64100000D03*
D17*
X162450000Y-67400000D03*
X172050000Y-71900000D03*
D16*
X163000000Y-75100000D03*
D17*
X169650000Y-70500000D03*
D16*
X199000000Y-64100000D03*
D17*
X194450000Y-67400000D03*
X204050000Y-71900000D03*
D16*
X195000000Y-75100000D03*
D17*
X201650000Y-70500000D03*
D18*
X170800000Y-114248000D03*
D19*
X170800000Y-116788000D03*
X170800000Y-119328000D03*
X170800000Y-121868000D03*
X170800000Y-124408000D03*
X170800000Y-126948000D03*
D18*
X183000000Y-80000000D03*
D19*
X183000000Y-82540000D03*
D18*
X199000000Y-80000000D03*
D19*
X199000000Y-82540000D03*
D18*
X167000000Y-80000000D03*
D19*
X167000000Y-82540000D03*
D20*
X153495000Y-71580000D03*
X128505000Y-71580000D03*
D21*
X135460000Y-73000000D03*
D22*
X138230000Y-73000000D03*
X141000000Y-73000000D03*
X143770000Y-73000000D03*
X146540000Y-73000000D03*
X136845000Y-70160000D03*
X139615000Y-70160000D03*
X142385000Y-70160000D03*
X145155000Y-70160000D03*
D23*
X141660000Y-97540000D03*
D24*
X125000000Y-95000000D03*
D25*
X125000000Y-97540000D03*
X125000000Y-100080000D03*
D26*
X165720000Y-106727060D03*
X165720000Y-111608940D03*
D11*
X131953000Y-114046000D03*
X187738000Y-80518000D03*
X191516000Y-83566000D03*
X199676000Y-86995000D03*
X199771000Y-93027500D03*
X175880000Y-128295000D03*
X180198000Y-123360000D03*
X198691500Y-117729000D03*
X201612500Y-113157000D03*
X196215000Y-107061000D03*
X194183000Y-99822000D03*
X181610000Y-114173000D03*
X180721000Y-109156500D03*
X192087500Y-105346500D03*
X185896000Y-104521000D03*
X170038000Y-106152000D03*
X173340000Y-104120000D03*
X163449000Y-122110500D03*
X151384000Y-130048000D03*
X155338000Y-111708000D03*
X150480000Y-102678000D03*
X154749500Y-100965000D03*
X158608000Y-84308000D03*
X156464000Y-88963500D03*
X147955000Y-90233500D03*
X150004000Y-79958000D03*
X129000000Y-107000000D03*
X128985000Y-88594000D03*
X134859000Y-79358000D03*
X125000000Y-126000000D03*
X125839000Y-117042000D03*
X142698000Y-107009000D03*
X171323000Y-103632000D03*
D27*
X187738000Y-80518000D02*
X187769500Y-80518000D01*
X199676000Y-86995000D02*
X199644000Y-86995000D01*
X175895000Y-128270000D02*
X175895000Y-128280000D01*
X175895000Y-128280000D02*
X175880000Y-128295000D01*
X180213000Y-123380500D02*
X180213000Y-123375000D01*
X180213000Y-123375000D02*
X180198000Y-123360000D01*
X185896000Y-104521000D02*
X185928000Y-104521000D01*
X170053000Y-106172000D02*
X170053000Y-106167000D01*
X170053000Y-106167000D02*
X170038000Y-106152000D01*
X173355000Y-104140000D02*
X173355000Y-104135000D01*
X173355000Y-104135000D02*
X173340000Y-104120000D01*
X155321000Y-111696500D02*
X155326500Y-111696500D01*
X155326500Y-111696500D02*
X155338000Y-111708000D01*
X150495000Y-102679500D02*
X150481500Y-102679500D01*
X150481500Y-102679500D02*
X150480000Y-102678000D01*
X158623000Y-84328000D02*
X158623000Y-84323000D01*
X158623000Y-84323000D02*
X158608000Y-84308000D01*
X149987000Y-80010000D02*
X149987000Y-79975000D01*
X149987000Y-79975000D02*
X150004000Y-79958000D01*
X129032000Y-107061000D02*
X129032000Y-107032000D01*
X129032000Y-107032000D02*
X129000000Y-107000000D01*
X129032000Y-88646000D02*
X129032000Y-88641000D01*
X129032000Y-88641000D02*
X128985000Y-88594000D01*
X134874000Y-79375000D02*
X134874000Y-79373000D01*
X134874000Y-79373000D02*
X134859000Y-79358000D01*
X125080000Y-125932000D02*
X125068000Y-125932000D01*
X125068000Y-125932000D02*
X125000000Y-126000000D01*
X125839000Y-117042000D02*
X125842000Y-117042000D01*
X142606000Y-107136000D02*
X142606000Y-107101000D01*
X142606000Y-107101000D02*
X142698000Y-107009000D01*
X171308000Y-96722000D02*
X171308000Y-103617000D01*
X171308000Y-103617000D02*
X171323000Y-103632000D01*
D28*
G36*
X165368723Y-62998328D02*
X165044663Y-63572511D01*
X165010346Y-63711721D01*
X165129043Y-63973000D01*
X166873000Y-63973000D01*
X166873000Y-63953000D01*
X167127000Y-63953000D01*
X167127000Y-63973000D01*
X168870957Y-63973000D01*
X168989654Y-63711721D01*
X168955337Y-63572511D01*
X168631277Y-62998328D01*
X168263034Y-62710000D01*
X181736966Y-62710000D01*
X181368723Y-62998328D01*
X181044663Y-63572511D01*
X181010346Y-63711721D01*
X181129043Y-63973000D01*
X182873000Y-63973000D01*
X182873000Y-63953000D01*
X183127000Y-63953000D01*
X183127000Y-63973000D01*
X184870957Y-63973000D01*
X184989654Y-63711721D01*
X184955337Y-63572511D01*
X184631277Y-62998328D01*
X184263034Y-62710000D01*
X197736966Y-62710000D01*
X197368723Y-62998328D01*
X197044663Y-63572511D01*
X197010346Y-63711721D01*
X197129043Y-63973000D01*
X198873000Y-63973000D01*
X198873000Y-63953000D01*
X199127000Y-63953000D01*
X199127000Y-63973000D01*
X200870957Y-63973000D01*
X200989654Y-63711721D01*
X200955337Y-63572511D01*
X200631277Y-62998328D01*
X200263034Y-62710000D01*
X209290000Y-62710000D01*
X209290000Y-161290000D01*
X120710000Y-161290000D01*
X120710000Y-157323795D01*
X169824716Y-157323795D01*
X170073106Y-157924943D01*
X170532637Y-158385278D01*
X171133352Y-158634716D01*
X171783795Y-158635284D01*
X172384943Y-158386894D01*
X172447197Y-158324749D01*
X172461673Y-158359698D01*
X172640301Y-158538327D01*
X172873690Y-158635000D01*
X173714250Y-158635000D01*
X173873000Y-158476250D01*
X173873000Y-157127000D01*
X174127000Y-157127000D01*
X174127000Y-158476250D01*
X174285750Y-158635000D01*
X175126310Y-158635000D01*
X175359699Y-158538327D01*
X175538327Y-158359698D01*
X175635000Y-158126309D01*
X175635000Y-157323795D01*
X184824716Y-157323795D01*
X185073106Y-157924943D01*
X185532637Y-158385278D01*
X186133352Y-158634716D01*
X186783795Y-158635284D01*
X187384943Y-158386894D01*
X187447197Y-158324749D01*
X187461673Y-158359698D01*
X187640301Y-158538327D01*
X187873690Y-158635000D01*
X188714250Y-158635000D01*
X188873000Y-158476250D01*
X188873000Y-157127000D01*
X189127000Y-157127000D01*
X189127000Y-158476250D01*
X189285750Y-158635000D01*
X190126310Y-158635000D01*
X190359699Y-158538327D01*
X190538327Y-158359698D01*
X190635000Y-158126309D01*
X190635000Y-157323795D01*
X199824716Y-157323795D01*
X200073106Y-157924943D01*
X200532637Y-158385278D01*
X201133352Y-158634716D01*
X201783795Y-158635284D01*
X202384943Y-158386894D01*
X202447197Y-158324749D01*
X202461673Y-158359698D01*
X202640301Y-158538327D01*
X202873690Y-158635000D01*
X203714250Y-158635000D01*
X203873000Y-158476250D01*
X203873000Y-157127000D01*
X204127000Y-157127000D01*
X204127000Y-158476250D01*
X204285750Y-158635000D01*
X205126310Y-158635000D01*
X205359699Y-158538327D01*
X205538327Y-158359698D01*
X205635000Y-158126309D01*
X205635000Y-157285750D01*
X205476250Y-157127000D01*
X204127000Y-157127000D01*
X203873000Y-157127000D01*
X203853000Y-157127000D01*
X203853000Y-156873000D01*
X203873000Y-156873000D01*
X203873000Y-155523750D01*
X204127000Y-155523750D01*
X204127000Y-156873000D01*
X205476250Y-156873000D01*
X205635000Y-156714250D01*
X205635000Y-155873691D01*
X205538327Y-155640302D01*
X205359699Y-155461673D01*
X205126310Y-155365000D01*
X204285750Y-155365000D01*
X204127000Y-155523750D01*
X203873000Y-155523750D01*
X203714250Y-155365000D01*
X202873690Y-155365000D01*
X202640301Y-155461673D01*
X202461673Y-155640302D01*
X202447370Y-155674834D01*
X202387363Y-155614722D01*
X201786648Y-155365284D01*
X201136205Y-155364716D01*
X200535057Y-155613106D01*
X200074722Y-156072637D01*
X199825284Y-156673352D01*
X199824716Y-157323795D01*
X190635000Y-157323795D01*
X190635000Y-157285750D01*
X190476250Y-157127000D01*
X189127000Y-157127000D01*
X188873000Y-157127000D01*
X188853000Y-157127000D01*
X188853000Y-156873000D01*
X188873000Y-156873000D01*
X188873000Y-155523750D01*
X189127000Y-155523750D01*
X189127000Y-156873000D01*
X190476250Y-156873000D01*
X190635000Y-156714250D01*
X190635000Y-155873691D01*
X190538327Y-155640302D01*
X190359699Y-155461673D01*
X190126310Y-155365000D01*
X189285750Y-155365000D01*
X189127000Y-155523750D01*
X188873000Y-155523750D01*
X188714250Y-155365000D01*
X187873690Y-155365000D01*
X187640301Y-155461673D01*
X187461673Y-155640302D01*
X187447370Y-155674834D01*
X187387363Y-155614722D01*
X186786648Y-155365284D01*
X186136205Y-155364716D01*
X185535057Y-155613106D01*
X185074722Y-156072637D01*
X184825284Y-156673352D01*
X184824716Y-157323795D01*
X175635000Y-157323795D01*
X175635000Y-157285750D01*
X175476250Y-157127000D01*
X174127000Y-157127000D01*
X173873000Y-157127000D01*
X173853000Y-157127000D01*
X173853000Y-156873000D01*
X173873000Y-156873000D01*
X173873000Y-155523750D01*
X174127000Y-155523750D01*
X174127000Y-156873000D01*
X175476250Y-156873000D01*
X175635000Y-156714250D01*
X175635000Y-155873691D01*
X175538327Y-155640302D01*
X175359699Y-155461673D01*
X175126310Y-155365000D01*
X174285750Y-155365000D01*
X174127000Y-155523750D01*
X173873000Y-155523750D01*
X173714250Y-155365000D01*
X172873690Y-155365000D01*
X172640301Y-155461673D01*
X172461673Y-155640302D01*
X172447370Y-155674834D01*
X172387363Y-155614722D01*
X171786648Y-155365284D01*
X171136205Y-155364716D01*
X170535057Y-155613106D01*
X170074722Y-156072637D01*
X169825284Y-156673352D01*
X169824716Y-157323795D01*
X120710000Y-157323795D01*
X120710000Y-151150000D01*
X127502560Y-151150000D01*
X127502560Y-152850000D01*
X127546838Y-153085317D01*
X127685910Y-153301441D01*
X127898110Y-153446431D01*
X128150000Y-153497440D01*
X129850000Y-153497440D01*
X130085317Y-153453162D01*
X130301441Y-153314090D01*
X130446431Y-153101890D01*
X130460086Y-153034459D01*
X130489946Y-153079147D01*
X130971715Y-153401054D01*
X131540000Y-153514093D01*
X132108285Y-153401054D01*
X132590054Y-153079147D01*
X132810000Y-152749974D01*
X133029946Y-153079147D01*
X133511715Y-153401054D01*
X134080000Y-153514093D01*
X134648285Y-153401054D01*
X135130054Y-153079147D01*
X135350000Y-152749974D01*
X135569946Y-153079147D01*
X136051715Y-153401054D01*
X136620000Y-153514093D01*
X137188285Y-153401054D01*
X137670054Y-153079147D01*
X137890000Y-152749974D01*
X138109946Y-153079147D01*
X138591715Y-153401054D01*
X139160000Y-153514093D01*
X139728285Y-153401054D01*
X140210054Y-153079147D01*
X140430000Y-152749974D01*
X140649946Y-153079147D01*
X141131715Y-153401054D01*
X141700000Y-153514093D01*
X142268285Y-153401054D01*
X142750054Y-153079147D01*
X142970000Y-152749974D01*
X143189946Y-153079147D01*
X143671715Y-153401054D01*
X144240000Y-153514093D01*
X144808285Y-153401054D01*
X145290054Y-153079147D01*
X145510000Y-152749974D01*
X145729946Y-153079147D01*
X146211715Y-153401054D01*
X146780000Y-153514093D01*
X147348285Y-153401054D01*
X147830054Y-153079147D01*
X148050000Y-152749974D01*
X148269946Y-153079147D01*
X148751715Y-153401054D01*
X149320000Y-153514093D01*
X149888285Y-153401054D01*
X150370054Y-153079147D01*
X150590000Y-152749974D01*
X150809946Y-153079147D01*
X151291715Y-153401054D01*
X151860000Y-153514093D01*
X152428285Y-153401054D01*
X152910054Y-153079147D01*
X153130000Y-152749974D01*
X153349946Y-153079147D01*
X153831715Y-153401054D01*
X154400000Y-153514093D01*
X154968285Y-153401054D01*
X155450054Y-153079147D01*
X155670000Y-152749974D01*
X155889946Y-153079147D01*
X156371715Y-153401054D01*
X156940000Y-153514093D01*
X157508285Y-153401054D01*
X157990054Y-153079147D01*
X158210000Y-152749974D01*
X158429946Y-153079147D01*
X158911715Y-153401054D01*
X159480000Y-153514093D01*
X160048285Y-153401054D01*
X160530054Y-153079147D01*
X160750000Y-152749974D01*
X160969946Y-153079147D01*
X161451715Y-153401054D01*
X162020000Y-153514093D01*
X162588285Y-153401054D01*
X163070054Y-153079147D01*
X163290000Y-152749974D01*
X163509946Y-153079147D01*
X163991715Y-153401054D01*
X164560000Y-153514093D01*
X165128285Y-153401054D01*
X165610054Y-153079147D01*
X165830000Y-152749974D01*
X166049946Y-153079147D01*
X166531715Y-153401054D01*
X167100000Y-153514093D01*
X167668285Y-153401054D01*
X168150054Y-153079147D01*
X168471961Y-152597378D01*
X168585000Y-152029093D01*
X168585000Y-151970907D01*
X168471961Y-151402622D01*
X168150054Y-150920853D01*
X167864422Y-150730000D01*
X168150054Y-150539147D01*
X168471961Y-150057378D01*
X168585000Y-149489093D01*
X168585000Y-149430907D01*
X168471961Y-148862622D01*
X168150054Y-148380853D01*
X167668285Y-148058946D01*
X167100000Y-147945907D01*
X166531715Y-148058946D01*
X166049946Y-148380853D01*
X165830000Y-148710026D01*
X165610054Y-148380853D01*
X165128285Y-148058946D01*
X164560000Y-147945907D01*
X163991715Y-148058946D01*
X163509946Y-148380853D01*
X163290000Y-148710026D01*
X163070054Y-148380853D01*
X162588285Y-148058946D01*
X162020000Y-147945907D01*
X161451715Y-148058946D01*
X160969946Y-148380853D01*
X160750000Y-148710026D01*
X160530054Y-148380853D01*
X160048285Y-148058946D01*
X159480000Y-147945907D01*
X158911715Y-148058946D01*
X158429946Y-148380853D01*
X158210000Y-148710026D01*
X157990054Y-148380853D01*
X157508285Y-148058946D01*
X156940000Y-147945907D01*
X156371715Y-148058946D01*
X155889946Y-148380853D01*
X155670000Y-148710026D01*
X155450054Y-148380853D01*
X154968285Y-148058946D01*
X154400000Y-147945907D01*
X153831715Y-148058946D01*
X153349946Y-148380853D01*
X153130000Y-148710026D01*
X152910054Y-148380853D01*
X152428285Y-148058946D01*
X151860000Y-147945907D01*
X151291715Y-148058946D01*
X150809946Y-148380853D01*
X150590000Y-148710026D01*
X150370054Y-148380853D01*
X149888285Y-148058946D01*
X149320000Y-147945907D01*
X148751715Y-148058946D01*
X148269946Y-148380853D01*
X148050000Y-148710026D01*
X147830054Y-148380853D01*
X147348285Y-148058946D01*
X146780000Y-147945907D01*
X146211715Y-148058946D01*
X145729946Y-148380853D01*
X145510000Y-148710026D01*
X145290054Y-148380853D01*
X144808285Y-148058946D01*
X144240000Y-147945907D01*
X143671715Y-148058946D01*
X143189946Y-148380853D01*
X142970000Y-148710026D01*
X142750054Y-148380853D01*
X142268285Y-148058946D01*
X141700000Y-147945907D01*
X141131715Y-148058946D01*
X140649946Y-148380853D01*
X140430000Y-148710026D01*
X140210054Y-148380853D01*
X139728285Y-148058946D01*
X139160000Y-147945907D01*
X138591715Y-148058946D01*
X138109946Y-148380853D01*
X137890000Y-148710026D01*
X137670054Y-148380853D01*
X137188285Y-148058946D01*
X136620000Y-147945907D01*
X136051715Y-148058946D01*
X135569946Y-148380853D01*
X135350000Y-148710026D01*
X135130054Y-148380853D01*
X134648285Y-148058946D01*
X134080000Y-147945907D01*
X133511715Y-148058946D01*
X133029946Y-148380853D01*
X132810000Y-148710026D01*
X132590054Y-148380853D01*
X132108285Y-148058946D01*
X131540000Y-147945907D01*
X130971715Y-148058946D01*
X130489946Y-148380853D01*
X130270000Y-148710026D01*
X130050054Y-148380853D01*
X129568285Y-148058946D01*
X129000000Y-147945907D01*
X128431715Y-148058946D01*
X127949946Y-148380853D01*
X127628039Y-148862622D01*
X127515000Y-149430907D01*
X127515000Y-149489093D01*
X127628039Y-150057378D01*
X127949946Y-150539147D01*
X127951179Y-150539971D01*
X127914683Y-150546838D01*
X127698559Y-150685910D01*
X127553569Y-150898110D01*
X127502560Y-151150000D01*
X120710000Y-151150000D01*
X120710000Y-126948000D01*
X169285907Y-126948000D01*
X169398946Y-127516285D01*
X169720853Y-127998054D01*
X170202622Y-128319961D01*
X170770907Y-128433000D01*
X170829093Y-128433000D01*
X171397378Y-128319961D01*
X171879147Y-127998054D01*
X172201054Y-127516285D01*
X172314093Y-126948000D01*
X172201054Y-126379715D01*
X171879147Y-125897946D01*
X171538447Y-125670298D01*
X171681358Y-125603183D01*
X172071645Y-125174924D01*
X172241476Y-124764890D01*
X172120155Y-124535000D01*
X170927000Y-124535000D01*
X170927000Y-124555000D01*
X170673000Y-124555000D01*
X170673000Y-124535000D01*
X169479845Y-124535000D01*
X169358524Y-124764890D01*
X169528355Y-125174924D01*
X169918642Y-125603183D01*
X170061553Y-125670298D01*
X169720853Y-125897946D01*
X169398946Y-126379715D01*
X169285907Y-126948000D01*
X120710000Y-126948000D01*
X120710000Y-116788000D01*
X169285907Y-116788000D01*
X169398946Y-117356285D01*
X169720853Y-117838054D01*
X170050026Y-118058000D01*
X169720853Y-118277946D01*
X169398946Y-118759715D01*
X169285907Y-119328000D01*
X169398946Y-119896285D01*
X169720853Y-120378054D01*
X170050026Y-120598000D01*
X169720853Y-120817946D01*
X169398946Y-121299715D01*
X169285907Y-121868000D01*
X169398946Y-122436285D01*
X169720853Y-122918054D01*
X170061553Y-123145702D01*
X169918642Y-123212817D01*
X169528355Y-123641076D01*
X169358524Y-124051110D01*
X169479845Y-124281000D01*
X170673000Y-124281000D01*
X170673000Y-124261000D01*
X170927000Y-124261000D01*
X170927000Y-124281000D01*
X172120155Y-124281000D01*
X172241476Y-124051110D01*
X172071645Y-123641076D01*
X171681358Y-123212817D01*
X171538447Y-123145702D01*
X171879147Y-122918054D01*
X172201054Y-122436285D01*
X172314093Y-121868000D01*
X172201054Y-121299715D01*
X171879147Y-120817946D01*
X171549974Y-120598000D01*
X171879147Y-120378054D01*
X172201054Y-119896285D01*
X172314093Y-119328000D01*
X172201054Y-118759715D01*
X171879147Y-118277946D01*
X171549974Y-118058000D01*
X171879147Y-117838054D01*
X172201054Y-117356285D01*
X172314093Y-116788000D01*
X172201054Y-116219715D01*
X171879147Y-115737946D01*
X171837548Y-115710150D01*
X171885317Y-115701162D01*
X172101441Y-115562090D01*
X172246431Y-115349890D01*
X172297440Y-115098000D01*
X172297440Y-113398000D01*
X172253162Y-113162683D01*
X172114090Y-112946559D01*
X171901890Y-112801569D01*
X171650000Y-112750560D01*
X169950000Y-112750560D01*
X169714683Y-112794838D01*
X169498559Y-112933910D01*
X169353569Y-113146110D01*
X169302560Y-113398000D01*
X169302560Y-115098000D01*
X169346838Y-115333317D01*
X169485910Y-115549441D01*
X169698110Y-115694431D01*
X169765541Y-115708086D01*
X169720853Y-115737946D01*
X169398946Y-116219715D01*
X169285907Y-116788000D01*
X120710000Y-116788000D01*
X120710000Y-111883338D01*
X164334190Y-111883338D01*
X164544686Y-112392777D01*
X164934113Y-112782884D01*
X165443184Y-112994269D01*
X165994398Y-112994750D01*
X166503837Y-112784254D01*
X166893944Y-112394827D01*
X167105329Y-111885756D01*
X167105810Y-111334542D01*
X166895314Y-110825103D01*
X166505887Y-110434996D01*
X165996816Y-110223611D01*
X165445602Y-110223130D01*
X164936163Y-110433626D01*
X164546056Y-110823053D01*
X164334671Y-111332124D01*
X164334190Y-111883338D01*
X120710000Y-111883338D01*
X120710000Y-107001458D01*
X164334190Y-107001458D01*
X164544686Y-107510897D01*
X164934113Y-107901004D01*
X165443184Y-108112389D01*
X165994398Y-108112870D01*
X166503837Y-107902374D01*
X166893944Y-107512947D01*
X167105329Y-107003876D01*
X167105810Y-106452662D01*
X166895314Y-105943223D01*
X166505887Y-105553116D01*
X165996816Y-105341731D01*
X165445602Y-105341250D01*
X164936163Y-105551746D01*
X164546056Y-105941173D01*
X164334671Y-106450244D01*
X164334190Y-107001458D01*
X120710000Y-107001458D01*
X120710000Y-100049928D01*
X123465000Y-100049928D01*
X123465000Y-100110072D01*
X123581845Y-100697491D01*
X123914591Y-101195481D01*
X124412581Y-101528227D01*
X125000000Y-101645072D01*
X125587419Y-101528227D01*
X126085409Y-101195481D01*
X126418155Y-100697491D01*
X126535000Y-100110072D01*
X126535000Y-100049928D01*
X126418155Y-99462509D01*
X126085409Y-98964519D01*
X125847418Y-98805499D01*
X126237966Y-98447576D01*
X126491046Y-97904742D01*
X126370997Y-97667000D01*
X125127000Y-97667000D01*
X125127000Y-97687000D01*
X124873000Y-97687000D01*
X124873000Y-97667000D01*
X123629003Y-97667000D01*
X123508954Y-97904742D01*
X123762034Y-98447576D01*
X124152582Y-98805499D01*
X123914591Y-98964519D01*
X123581845Y-99462509D01*
X123465000Y-100049928D01*
X120710000Y-100049928D01*
X120710000Y-94100000D01*
X123452560Y-94100000D01*
X123452560Y-95900000D01*
X123496838Y-96135317D01*
X123635910Y-96351441D01*
X123848110Y-96496431D01*
X123899146Y-96506766D01*
X123762034Y-96632424D01*
X123508954Y-97175258D01*
X123629003Y-97413000D01*
X124873000Y-97413000D01*
X124873000Y-97393000D01*
X125127000Y-97393000D01*
X125127000Y-97413000D01*
X126370997Y-97413000D01*
X126491046Y-97175258D01*
X126237966Y-96632424D01*
X126103462Y-96509156D01*
X126135317Y-96503162D01*
X126351441Y-96364090D01*
X126496431Y-96151890D01*
X126547440Y-95900000D01*
X126547440Y-94182000D01*
X167240041Y-94182000D01*
X167354115Y-94755489D01*
X167678971Y-95241670D01*
X167692642Y-95250805D01*
X167669083Y-95255238D01*
X167452959Y-95394310D01*
X167307969Y-95606510D01*
X167256960Y-95858400D01*
X167256960Y-97585600D01*
X167301238Y-97820917D01*
X167440310Y-98037041D01*
X167652510Y-98182031D01*
X167904400Y-98233040D01*
X169631600Y-98233040D01*
X169866917Y-98188762D01*
X170083041Y-98049690D01*
X170228031Y-97837490D01*
X170236908Y-97793655D01*
X170473000Y-97951407D01*
X170473000Y-103240889D01*
X170388162Y-103445201D01*
X170387838Y-103817167D01*
X170529883Y-104160943D01*
X170792673Y-104424192D01*
X171136201Y-104566838D01*
X171508167Y-104567162D01*
X171851943Y-104425117D01*
X172115192Y-104162327D01*
X172257838Y-103818799D01*
X172258162Y-103446833D01*
X172143000Y-103168119D01*
X172143000Y-97951407D01*
X172397029Y-97781670D01*
X172578000Y-97510828D01*
X172758971Y-97781670D01*
X173245152Y-98106526D01*
X173818641Y-98220600D01*
X173877359Y-98220600D01*
X174450848Y-98106526D01*
X174937029Y-97781670D01*
X175261885Y-97295489D01*
X175375959Y-96722000D01*
X175261885Y-96148511D01*
X174937029Y-95662330D01*
X174613772Y-95446336D01*
X174736490Y-95388821D01*
X175130688Y-94956947D01*
X175302958Y-94541026D01*
X175181817Y-94309000D01*
X173975000Y-94309000D01*
X173975000Y-94329000D01*
X173721000Y-94329000D01*
X173721000Y-94309000D01*
X173701000Y-94309000D01*
X173701000Y-94055000D01*
X173721000Y-94055000D01*
X173721000Y-92847531D01*
X173975000Y-92847531D01*
X173975000Y-94055000D01*
X175181817Y-94055000D01*
X175302958Y-93822974D01*
X175130688Y-93407053D01*
X174736490Y-92975179D01*
X174207027Y-92727032D01*
X173975000Y-92847531D01*
X173721000Y-92847531D01*
X173488973Y-92727032D01*
X172959510Y-92975179D01*
X172577992Y-93393161D01*
X172397029Y-93122330D01*
X171910848Y-92797474D01*
X171337359Y-92683400D01*
X171278641Y-92683400D01*
X170705152Y-92797474D01*
X170218971Y-93122330D01*
X170038000Y-93393172D01*
X169857029Y-93122330D01*
X169370848Y-92797474D01*
X168797359Y-92683400D01*
X168738641Y-92683400D01*
X168165152Y-92797474D01*
X167678971Y-93122330D01*
X167354115Y-93608511D01*
X167240041Y-94182000D01*
X126547440Y-94182000D01*
X126547440Y-94100000D01*
X126503162Y-93864683D01*
X126364090Y-93648559D01*
X126151890Y-93503569D01*
X125900000Y-93452560D01*
X124100000Y-93452560D01*
X123864683Y-93496838D01*
X123648559Y-93635910D01*
X123503569Y-93848110D01*
X123452560Y-94100000D01*
X120710000Y-94100000D01*
X120710000Y-82896890D01*
X165558524Y-82896890D01*
X165728355Y-83306924D01*
X166118642Y-83735183D01*
X166643108Y-83981486D01*
X166873000Y-83860819D01*
X166873000Y-82667000D01*
X167127000Y-82667000D01*
X167127000Y-83860819D01*
X167356892Y-83981486D01*
X167881358Y-83735183D01*
X168271645Y-83306924D01*
X168441476Y-82896890D01*
X181558524Y-82896890D01*
X181728355Y-83306924D01*
X182118642Y-83735183D01*
X182643108Y-83981486D01*
X182873000Y-83860819D01*
X182873000Y-82667000D01*
X183127000Y-82667000D01*
X183127000Y-83860819D01*
X183356892Y-83981486D01*
X183881358Y-83735183D01*
X184271645Y-83306924D01*
X184441476Y-82896890D01*
X197558524Y-82896890D01*
X197728355Y-83306924D01*
X198118642Y-83735183D01*
X198643108Y-83981486D01*
X198873000Y-83860819D01*
X198873000Y-82667000D01*
X199127000Y-82667000D01*
X199127000Y-83860819D01*
X199356892Y-83981486D01*
X199881358Y-83735183D01*
X200271645Y-83306924D01*
X200441476Y-82896890D01*
X200320155Y-82667000D01*
X199127000Y-82667000D01*
X198873000Y-82667000D01*
X197679845Y-82667000D01*
X197558524Y-82896890D01*
X184441476Y-82896890D01*
X184320155Y-82667000D01*
X183127000Y-82667000D01*
X182873000Y-82667000D01*
X181679845Y-82667000D01*
X181558524Y-82896890D01*
X168441476Y-82896890D01*
X168320155Y-82667000D01*
X167127000Y-82667000D01*
X166873000Y-82667000D01*
X165679845Y-82667000D01*
X165558524Y-82896890D01*
X120710000Y-82896890D01*
X120710000Y-79150000D01*
X165502560Y-79150000D01*
X165502560Y-80850000D01*
X165546838Y-81085317D01*
X165685910Y-81301441D01*
X165898110Y-81446431D01*
X166006107Y-81468301D01*
X165728355Y-81773076D01*
X165558524Y-82183110D01*
X165679845Y-82413000D01*
X166873000Y-82413000D01*
X166873000Y-82393000D01*
X167127000Y-82393000D01*
X167127000Y-82413000D01*
X168320155Y-82413000D01*
X168441476Y-82183110D01*
X168271645Y-81773076D01*
X167995499Y-81470063D01*
X168085317Y-81453162D01*
X168301441Y-81314090D01*
X168446431Y-81101890D01*
X168497440Y-80850000D01*
X168497440Y-79150000D01*
X181502560Y-79150000D01*
X181502560Y-80850000D01*
X181546838Y-81085317D01*
X181685910Y-81301441D01*
X181898110Y-81446431D01*
X182006107Y-81468301D01*
X181728355Y-81773076D01*
X181558524Y-82183110D01*
X181679845Y-82413000D01*
X182873000Y-82413000D01*
X182873000Y-82393000D01*
X183127000Y-82393000D01*
X183127000Y-82413000D01*
X184320155Y-82413000D01*
X184441476Y-82183110D01*
X184271645Y-81773076D01*
X183995499Y-81470063D01*
X184085317Y-81453162D01*
X184301441Y-81314090D01*
X184446431Y-81101890D01*
X184497440Y-80850000D01*
X184497440Y-79150000D01*
X197502560Y-79150000D01*
X197502560Y-80850000D01*
X197546838Y-81085317D01*
X197685910Y-81301441D01*
X197898110Y-81446431D01*
X198006107Y-81468301D01*
X197728355Y-81773076D01*
X197558524Y-82183110D01*
X197679845Y-82413000D01*
X198873000Y-82413000D01*
X198873000Y-82393000D01*
X199127000Y-82393000D01*
X199127000Y-82413000D01*
X200320155Y-82413000D01*
X200441476Y-82183110D01*
X200271645Y-81773076D01*
X199995499Y-81470063D01*
X200085317Y-81453162D01*
X200301441Y-81314090D01*
X200446431Y-81101890D01*
X200497440Y-80850000D01*
X200497440Y-79150000D01*
X200453162Y-78914683D01*
X200314090Y-78698559D01*
X200101890Y-78553569D01*
X199850000Y-78502560D01*
X198150000Y-78502560D01*
X197914683Y-78546838D01*
X197698559Y-78685910D01*
X197553569Y-78898110D01*
X197502560Y-79150000D01*
X184497440Y-79150000D01*
X184453162Y-78914683D01*
X184314090Y-78698559D01*
X184101890Y-78553569D01*
X183850000Y-78502560D01*
X182150000Y-78502560D01*
X181914683Y-78546838D01*
X181698559Y-78685910D01*
X181553569Y-78898110D01*
X181502560Y-79150000D01*
X168497440Y-79150000D01*
X168453162Y-78914683D01*
X168314090Y-78698559D01*
X168101890Y-78553569D01*
X167850000Y-78502560D01*
X166150000Y-78502560D01*
X165914683Y-78546838D01*
X165698559Y-78685910D01*
X165553569Y-78898110D01*
X165502560Y-79150000D01*
X120710000Y-79150000D01*
X120710000Y-75100000D01*
X160925132Y-75100000D01*
X161053395Y-75744822D01*
X161418657Y-76291475D01*
X161965310Y-76656737D01*
X162610132Y-76785000D01*
X163389868Y-76785000D01*
X164034690Y-76656737D01*
X164581343Y-76291475D01*
X164946605Y-75744822D01*
X165074868Y-75100000D01*
X176925132Y-75100000D01*
X177053395Y-75744822D01*
X177418657Y-76291475D01*
X177965310Y-76656737D01*
X178610132Y-76785000D01*
X179389868Y-76785000D01*
X180034690Y-76656737D01*
X180581343Y-76291475D01*
X180946605Y-75744822D01*
X181074868Y-75100000D01*
X192925132Y-75100000D01*
X193053395Y-75744822D01*
X193418657Y-76291475D01*
X193965310Y-76656737D01*
X194610132Y-76785000D01*
X195389868Y-76785000D01*
X196034690Y-76656737D01*
X196581343Y-76291475D01*
X196946605Y-75744822D01*
X197074868Y-75100000D01*
X196946605Y-74455178D01*
X196581343Y-73908525D01*
X196034690Y-73543263D01*
X195389868Y-73415000D01*
X194610132Y-73415000D01*
X193965310Y-73543263D01*
X193418657Y-73908525D01*
X193053395Y-74455178D01*
X192925132Y-75100000D01*
X181074868Y-75100000D01*
X180946605Y-74455178D01*
X180581343Y-73908525D01*
X180034690Y-73543263D01*
X179389868Y-73415000D01*
X178610132Y-73415000D01*
X177965310Y-73543263D01*
X177418657Y-73908525D01*
X177053395Y-74455178D01*
X176925132Y-75100000D01*
X165074868Y-75100000D01*
X164946605Y-74455178D01*
X164581343Y-73908525D01*
X164034690Y-73543263D01*
X163389868Y-73415000D01*
X162610132Y-73415000D01*
X161965310Y-73543263D01*
X161418657Y-73908525D01*
X161053395Y-74455178D01*
X160925132Y-75100000D01*
X120710000Y-75100000D01*
X120710000Y-72101834D01*
X125869543Y-72101834D01*
X126269853Y-73070658D01*
X127010443Y-73812542D01*
X127978567Y-74214542D01*
X129026834Y-74215457D01*
X129995658Y-73815147D01*
X130737542Y-73074557D01*
X131111070Y-72175000D01*
X133987560Y-72175000D01*
X133987560Y-73825000D01*
X134031838Y-74060317D01*
X134170910Y-74276441D01*
X134383110Y-74421431D01*
X134635000Y-74472440D01*
X136285000Y-74472440D01*
X136520317Y-74428162D01*
X136736441Y-74289090D01*
X136881431Y-74076890D01*
X136932440Y-73825000D01*
X136932440Y-73682884D01*
X136991551Y-73825943D01*
X137401897Y-74237006D01*
X137938314Y-74459746D01*
X138519138Y-74460253D01*
X139055943Y-74238449D01*
X139268910Y-74025853D01*
X140153752Y-74025853D01*
X140230956Y-74274563D01*
X140777250Y-74471843D01*
X141357456Y-74445048D01*
X141769044Y-74274563D01*
X141846248Y-74025853D01*
X141000000Y-73179605D01*
X140153752Y-74025853D01*
X139268910Y-74025853D01*
X139467006Y-73828103D01*
X139608628Y-73487041D01*
X139725437Y-73769044D01*
X139974147Y-73846248D01*
X140820395Y-73000000D01*
X141179605Y-73000000D01*
X142025853Y-73846248D01*
X142274563Y-73769044D01*
X142383452Y-73467517D01*
X142531551Y-73825943D01*
X142941897Y-74237006D01*
X143478314Y-74459746D01*
X144059138Y-74460253D01*
X144595943Y-74238449D01*
X145007006Y-73828103D01*
X145155089Y-73471479D01*
X145301551Y-73825943D01*
X145711897Y-74237006D01*
X146248314Y-74459746D01*
X146829138Y-74460253D01*
X147365943Y-74238449D01*
X147777006Y-73828103D01*
X147999746Y-73291686D01*
X148000253Y-72710862D01*
X147778449Y-72174057D01*
X147706352Y-72101834D01*
X150859543Y-72101834D01*
X151259853Y-73070658D01*
X152000443Y-73812542D01*
X152968567Y-74214542D01*
X154016834Y-74215457D01*
X154985658Y-73815147D01*
X155727542Y-73074557D01*
X156129542Y-72106433D01*
X156130457Y-71058166D01*
X155738738Y-70110132D01*
X167965000Y-70110132D01*
X167965000Y-70889868D01*
X168093263Y-71534690D01*
X168458525Y-72081343D01*
X169005178Y-72446605D01*
X169650000Y-72574868D01*
X170294822Y-72446605D01*
X170384286Y-72386827D01*
X170493263Y-72934690D01*
X170858525Y-73481343D01*
X171405178Y-73846605D01*
X172050000Y-73974868D01*
X172694822Y-73846605D01*
X173241475Y-73481343D01*
X173606737Y-72934690D01*
X173735000Y-72289868D01*
X173735000Y-71510132D01*
X173606737Y-70865310D01*
X173241475Y-70318657D01*
X172929396Y-70110132D01*
X183965000Y-70110132D01*
X183965000Y-70889868D01*
X184093263Y-71534690D01*
X184458525Y-72081343D01*
X185005178Y-72446605D01*
X185650000Y-72574868D01*
X186294822Y-72446605D01*
X186384286Y-72386827D01*
X186493263Y-72934690D01*
X186858525Y-73481343D01*
X187405178Y-73846605D01*
X188050000Y-73974868D01*
X188694822Y-73846605D01*
X189241475Y-73481343D01*
X189606737Y-72934690D01*
X189735000Y-72289868D01*
X189735000Y-71510132D01*
X189606737Y-70865310D01*
X189241475Y-70318657D01*
X188929396Y-70110132D01*
X199965000Y-70110132D01*
X199965000Y-70889868D01*
X200093263Y-71534690D01*
X200458525Y-72081343D01*
X201005178Y-72446605D01*
X201650000Y-72574868D01*
X202294822Y-72446605D01*
X202384286Y-72386827D01*
X202493263Y-72934690D01*
X202858525Y-73481343D01*
X203405178Y-73846605D01*
X204050000Y-73974868D01*
X204694822Y-73846605D01*
X205241475Y-73481343D01*
X205606737Y-72934690D01*
X205735000Y-72289868D01*
X205735000Y-71510132D01*
X205606737Y-70865310D01*
X205241475Y-70318657D01*
X204694822Y-69953395D01*
X204050000Y-69825132D01*
X203405178Y-69953395D01*
X203315714Y-70013173D01*
X203206737Y-69465310D01*
X202841475Y-68918657D01*
X202294822Y-68553395D01*
X201650000Y-68425132D01*
X201005178Y-68553395D01*
X200458525Y-68918657D01*
X200093263Y-69465310D01*
X199965000Y-70110132D01*
X188929396Y-70110132D01*
X188694822Y-69953395D01*
X188050000Y-69825132D01*
X187405178Y-69953395D01*
X187315714Y-70013173D01*
X187206737Y-69465310D01*
X186841475Y-68918657D01*
X186294822Y-68553395D01*
X185650000Y-68425132D01*
X185005178Y-68553395D01*
X184458525Y-68918657D01*
X184093263Y-69465310D01*
X183965000Y-70110132D01*
X172929396Y-70110132D01*
X172694822Y-69953395D01*
X172050000Y-69825132D01*
X171405178Y-69953395D01*
X171315714Y-70013173D01*
X171206737Y-69465310D01*
X170841475Y-68918657D01*
X170294822Y-68553395D01*
X169650000Y-68425132D01*
X169005178Y-68553395D01*
X168458525Y-68918657D01*
X168093263Y-69465310D01*
X167965000Y-70110132D01*
X155738738Y-70110132D01*
X155730147Y-70089342D01*
X154989557Y-69347458D01*
X154021433Y-68945458D01*
X152973166Y-68944543D01*
X152004342Y-69344853D01*
X151262458Y-70085443D01*
X150860458Y-71053567D01*
X150859543Y-72101834D01*
X147706352Y-72101834D01*
X147368103Y-71762994D01*
X146831686Y-71540254D01*
X146250862Y-71539747D01*
X145714057Y-71761551D01*
X145302994Y-72171897D01*
X145154911Y-72528521D01*
X145008449Y-72174057D01*
X144598103Y-71762994D01*
X144061686Y-71540254D01*
X143480862Y-71539747D01*
X142944057Y-71761551D01*
X142532994Y-72171897D01*
X142391372Y-72512959D01*
X142274563Y-72230956D01*
X142025853Y-72153752D01*
X141179605Y-73000000D01*
X140820395Y-73000000D01*
X139974147Y-72153752D01*
X139725437Y-72230956D01*
X139616548Y-72532483D01*
X139468449Y-72174057D01*
X139268888Y-71974147D01*
X140153752Y-71974147D01*
X141000000Y-72820395D01*
X141846248Y-71974147D01*
X141769044Y-71725437D01*
X141222750Y-71528157D01*
X140642544Y-71554952D01*
X140230956Y-71725437D01*
X140153752Y-71974147D01*
X139268888Y-71974147D01*
X139058103Y-71762994D01*
X138521686Y-71540254D01*
X137940862Y-71539747D01*
X137404057Y-71761551D01*
X136992994Y-72171897D01*
X136932440Y-72317727D01*
X136932440Y-72175000D01*
X136888162Y-71939683D01*
X136749090Y-71723559D01*
X136606574Y-71626182D01*
X136622250Y-71631843D01*
X137202456Y-71605048D01*
X137614044Y-71434563D01*
X137691248Y-71185853D01*
X136845000Y-70339605D01*
X135998752Y-71185853D01*
X136075956Y-71434563D01*
X136395366Y-71549910D01*
X136285000Y-71527560D01*
X134635000Y-71527560D01*
X134399683Y-71571838D01*
X134183559Y-71710910D01*
X134038569Y-71923110D01*
X133987560Y-72175000D01*
X131111070Y-72175000D01*
X131139542Y-72106433D01*
X131140457Y-71058166D01*
X130740147Y-70089342D01*
X130588321Y-69937250D01*
X135373157Y-69937250D01*
X135399952Y-70517456D01*
X135570437Y-70929044D01*
X135819147Y-71006248D01*
X136665395Y-70160000D01*
X137024605Y-70160000D01*
X137870853Y-71006248D01*
X138119563Y-70929044D01*
X138228452Y-70627517D01*
X138376551Y-70985943D01*
X138786897Y-71397006D01*
X139323314Y-71619746D01*
X139904138Y-71620253D01*
X140440943Y-71398449D01*
X140852006Y-70988103D01*
X141000089Y-70631479D01*
X141146551Y-70985943D01*
X141556897Y-71397006D01*
X142093314Y-71619746D01*
X142674138Y-71620253D01*
X143210943Y-71398449D01*
X143622006Y-70988103D01*
X143770089Y-70631479D01*
X143916551Y-70985943D01*
X144326897Y-71397006D01*
X144863314Y-71619746D01*
X145444138Y-71620253D01*
X145980943Y-71398449D01*
X146392006Y-70988103D01*
X146614746Y-70451686D01*
X146615253Y-69870862D01*
X146393449Y-69334057D01*
X145983103Y-68922994D01*
X145446686Y-68700254D01*
X144865862Y-68699747D01*
X144329057Y-68921551D01*
X143917994Y-69331897D01*
X143769911Y-69688521D01*
X143623449Y-69334057D01*
X143213103Y-68922994D01*
X142676686Y-68700254D01*
X142095862Y-68699747D01*
X141559057Y-68921551D01*
X141147994Y-69331897D01*
X140999911Y-69688521D01*
X140853449Y-69334057D01*
X140443103Y-68922994D01*
X139906686Y-68700254D01*
X139325862Y-68699747D01*
X138789057Y-68921551D01*
X138377994Y-69331897D01*
X138236372Y-69672959D01*
X138119563Y-69390956D01*
X137870853Y-69313752D01*
X137024605Y-70160000D01*
X136665395Y-70160000D01*
X135819147Y-69313752D01*
X135570437Y-69390956D01*
X135373157Y-69937250D01*
X130588321Y-69937250D01*
X129999557Y-69347458D01*
X129485847Y-69134147D01*
X135998752Y-69134147D01*
X136845000Y-69980395D01*
X137691248Y-69134147D01*
X137614044Y-68885437D01*
X137067750Y-68688157D01*
X136487544Y-68714952D01*
X136075956Y-68885437D01*
X135998752Y-69134147D01*
X129485847Y-69134147D01*
X129031433Y-68945458D01*
X127983166Y-68944543D01*
X127014342Y-69344853D01*
X126272458Y-70085443D01*
X125870458Y-71053567D01*
X125869543Y-72101834D01*
X120710000Y-72101834D01*
X120710000Y-67010132D01*
X160765000Y-67010132D01*
X160765000Y-67789868D01*
X160893263Y-68434690D01*
X161258525Y-68981343D01*
X161805178Y-69346605D01*
X162450000Y-69474868D01*
X163094822Y-69346605D01*
X163641475Y-68981343D01*
X164006737Y-68434690D01*
X164135000Y-67789868D01*
X164135000Y-67010132D01*
X176765000Y-67010132D01*
X176765000Y-67789868D01*
X176893263Y-68434690D01*
X177258525Y-68981343D01*
X177805178Y-69346605D01*
X178450000Y-69474868D01*
X179094822Y-69346605D01*
X179641475Y-68981343D01*
X180006737Y-68434690D01*
X180135000Y-67789868D01*
X180135000Y-67010132D01*
X192765000Y-67010132D01*
X192765000Y-67789868D01*
X192893263Y-68434690D01*
X193258525Y-68981343D01*
X193805178Y-69346605D01*
X194450000Y-69474868D01*
X195094822Y-69346605D01*
X195641475Y-68981343D01*
X196006737Y-68434690D01*
X196135000Y-67789868D01*
X196135000Y-67010132D01*
X196006737Y-66365310D01*
X195641475Y-65818657D01*
X195094822Y-65453395D01*
X194450000Y-65325132D01*
X193805178Y-65453395D01*
X193258525Y-65818657D01*
X192893263Y-66365310D01*
X192765000Y-67010132D01*
X180135000Y-67010132D01*
X180006737Y-66365310D01*
X179641475Y-65818657D01*
X179094822Y-65453395D01*
X178450000Y-65325132D01*
X177805178Y-65453395D01*
X177258525Y-65818657D01*
X176893263Y-66365310D01*
X176765000Y-67010132D01*
X164135000Y-67010132D01*
X164006737Y-66365310D01*
X163641475Y-65818657D01*
X163094822Y-65453395D01*
X162450000Y-65325132D01*
X161805178Y-65453395D01*
X161258525Y-65818657D01*
X160893263Y-66365310D01*
X160765000Y-67010132D01*
X120710000Y-67010132D01*
X120710000Y-64488279D01*
X165010346Y-64488279D01*
X165044663Y-64627489D01*
X165368723Y-65201672D01*
X165887846Y-65608136D01*
X166523000Y-65785000D01*
X166873000Y-65785000D01*
X166873000Y-64227000D01*
X167127000Y-64227000D01*
X167127000Y-65785000D01*
X167477000Y-65785000D01*
X168112154Y-65608136D01*
X168631277Y-65201672D01*
X168955337Y-64627489D01*
X168989654Y-64488279D01*
X181010346Y-64488279D01*
X181044663Y-64627489D01*
X181368723Y-65201672D01*
X181887846Y-65608136D01*
X182523000Y-65785000D01*
X182873000Y-65785000D01*
X182873000Y-64227000D01*
X183127000Y-64227000D01*
X183127000Y-65785000D01*
X183477000Y-65785000D01*
X184112154Y-65608136D01*
X184631277Y-65201672D01*
X184955337Y-64627489D01*
X184989654Y-64488279D01*
X197010346Y-64488279D01*
X197044663Y-64627489D01*
X197368723Y-65201672D01*
X197887846Y-65608136D01*
X198523000Y-65785000D01*
X198873000Y-65785000D01*
X198873000Y-64227000D01*
X199127000Y-64227000D01*
X199127000Y-65785000D01*
X199477000Y-65785000D01*
X200112154Y-65608136D01*
X200631277Y-65201672D01*
X200955337Y-64627489D01*
X200989654Y-64488279D01*
X200870957Y-64227000D01*
X199127000Y-64227000D01*
X198873000Y-64227000D01*
X197129043Y-64227000D01*
X197010346Y-64488279D01*
X184989654Y-64488279D01*
X184870957Y-64227000D01*
X183127000Y-64227000D01*
X182873000Y-64227000D01*
X181129043Y-64227000D01*
X181010346Y-64488279D01*
X168989654Y-64488279D01*
X168870957Y-64227000D01*
X167127000Y-64227000D01*
X166873000Y-64227000D01*
X165129043Y-64227000D01*
X165010346Y-64488279D01*
X120710000Y-64488279D01*
X120710000Y-62710000D01*
X165736966Y-62710000D01*
X165368723Y-62998328D01*
X165368723Y-62998328D01*
G37*
X165368723Y-62998328D02*
X165044663Y-63572511D01*
X165010346Y-63711721D01*
X165129043Y-63973000D01*
X166873000Y-63973000D01*
X166873000Y-63953000D01*
X167127000Y-63953000D01*
X167127000Y-63973000D01*
X168870957Y-63973000D01*
X168989654Y-63711721D01*
X168955337Y-63572511D01*
X168631277Y-62998328D01*
X168263034Y-62710000D01*
X181736966Y-62710000D01*
X181368723Y-62998328D01*
X181044663Y-63572511D01*
X181010346Y-63711721D01*
X181129043Y-63973000D01*
X182873000Y-63973000D01*
X182873000Y-63953000D01*
X183127000Y-63953000D01*
X183127000Y-63973000D01*
X184870957Y-63973000D01*
X184989654Y-63711721D01*
X184955337Y-63572511D01*
X184631277Y-62998328D01*
X184263034Y-62710000D01*
X197736966Y-62710000D01*
X197368723Y-62998328D01*
X197044663Y-63572511D01*
X197010346Y-63711721D01*
X197129043Y-63973000D01*
X198873000Y-63973000D01*
X198873000Y-63953000D01*
X199127000Y-63953000D01*
X199127000Y-63973000D01*
X200870957Y-63973000D01*
X200989654Y-63711721D01*
X200955337Y-63572511D01*
X200631277Y-62998328D01*
X200263034Y-62710000D01*
X209290000Y-62710000D01*
X209290000Y-161290000D01*
X120710000Y-161290000D01*
X120710000Y-157323795D01*
X169824716Y-157323795D01*
X170073106Y-157924943D01*
X170532637Y-158385278D01*
X171133352Y-158634716D01*
X171783795Y-158635284D01*
X172384943Y-158386894D01*
X172447197Y-158324749D01*
X172461673Y-158359698D01*
X172640301Y-158538327D01*
X172873690Y-158635000D01*
X173714250Y-158635000D01*
X173873000Y-158476250D01*
X173873000Y-157127000D01*
X174127000Y-157127000D01*
X174127000Y-158476250D01*
X174285750Y-158635000D01*
X175126310Y-158635000D01*
X175359699Y-158538327D01*
X175538327Y-158359698D01*
X175635000Y-158126309D01*
X175635000Y-157323795D01*
X184824716Y-157323795D01*
X185073106Y-157924943D01*
X185532637Y-158385278D01*
X186133352Y-158634716D01*
X186783795Y-158635284D01*
X187384943Y-158386894D01*
X187447197Y-158324749D01*
X187461673Y-158359698D01*
X187640301Y-158538327D01*
X187873690Y-158635000D01*
X188714250Y-158635000D01*
X188873000Y-158476250D01*
X188873000Y-157127000D01*
X189127000Y-157127000D01*
X189127000Y-158476250D01*
X189285750Y-158635000D01*
X190126310Y-158635000D01*
X190359699Y-158538327D01*
X190538327Y-158359698D01*
X190635000Y-158126309D01*
X190635000Y-157323795D01*
X199824716Y-157323795D01*
X200073106Y-157924943D01*
X200532637Y-158385278D01*
X201133352Y-158634716D01*
X201783795Y-158635284D01*
X202384943Y-158386894D01*
X202447197Y-158324749D01*
X202461673Y-158359698D01*
X202640301Y-158538327D01*
X202873690Y-158635000D01*
X203714250Y-158635000D01*
X203873000Y-158476250D01*
X203873000Y-157127000D01*
X204127000Y-157127000D01*
X204127000Y-158476250D01*
X204285750Y-158635000D01*
X205126310Y-158635000D01*
X205359699Y-158538327D01*
X205538327Y-158359698D01*
X205635000Y-158126309D01*
X205635000Y-157285750D01*
X205476250Y-157127000D01*
X204127000Y-157127000D01*
X203873000Y-157127000D01*
X203853000Y-157127000D01*
X203853000Y-156873000D01*
X203873000Y-156873000D01*
X203873000Y-155523750D01*
X204127000Y-155523750D01*
X204127000Y-156873000D01*
X205476250Y-156873000D01*
X205635000Y-156714250D01*
X205635000Y-155873691D01*
X205538327Y-155640302D01*
X205359699Y-155461673D01*
X205126310Y-155365000D01*
X204285750Y-155365000D01*
X204127000Y-155523750D01*
X203873000Y-155523750D01*
X203714250Y-155365000D01*
X202873690Y-155365000D01*
X202640301Y-155461673D01*
X202461673Y-155640302D01*
X202447370Y-155674834D01*
X202387363Y-155614722D01*
X201786648Y-155365284D01*
X201136205Y-155364716D01*
X200535057Y-155613106D01*
X200074722Y-156072637D01*
X199825284Y-156673352D01*
X199824716Y-157323795D01*
X190635000Y-157323795D01*
X190635000Y-157285750D01*
X190476250Y-157127000D01*
X189127000Y-157127000D01*
X188873000Y-157127000D01*
X188853000Y-157127000D01*
X188853000Y-156873000D01*
X188873000Y-156873000D01*
X188873000Y-155523750D01*
X189127000Y-155523750D01*
X189127000Y-156873000D01*
X190476250Y-156873000D01*
X190635000Y-156714250D01*
X190635000Y-155873691D01*
X190538327Y-155640302D01*
X190359699Y-155461673D01*
X190126310Y-155365000D01*
X189285750Y-155365000D01*
X189127000Y-155523750D01*
X188873000Y-155523750D01*
X188714250Y-155365000D01*
X187873690Y-155365000D01*
X187640301Y-155461673D01*
X187461673Y-155640302D01*
X187447370Y-155674834D01*
X187387363Y-155614722D01*
X186786648Y-155365284D01*
X186136205Y-155364716D01*
X185535057Y-155613106D01*
X185074722Y-156072637D01*
X184825284Y-156673352D01*
X184824716Y-157323795D01*
X175635000Y-157323795D01*
X175635000Y-157285750D01*
X175476250Y-157127000D01*
X174127000Y-157127000D01*
X173873000Y-157127000D01*
X173853000Y-157127000D01*
X173853000Y-156873000D01*
X173873000Y-156873000D01*
X173873000Y-155523750D01*
X174127000Y-155523750D01*
X174127000Y-156873000D01*
X175476250Y-156873000D01*
X175635000Y-156714250D01*
X175635000Y-155873691D01*
X175538327Y-155640302D01*
X175359699Y-155461673D01*
X175126310Y-155365000D01*
X174285750Y-155365000D01*
X174127000Y-155523750D01*
X173873000Y-155523750D01*
X173714250Y-155365000D01*
X172873690Y-155365000D01*
X172640301Y-155461673D01*
X172461673Y-155640302D01*
X172447370Y-155674834D01*
X172387363Y-155614722D01*
X171786648Y-155365284D01*
X171136205Y-155364716D01*
X170535057Y-155613106D01*
X170074722Y-156072637D01*
X169825284Y-156673352D01*
X169824716Y-157323795D01*
X120710000Y-157323795D01*
X120710000Y-151150000D01*
X127502560Y-151150000D01*
X127502560Y-152850000D01*
X127546838Y-153085317D01*
X127685910Y-153301441D01*
X127898110Y-153446431D01*
X128150000Y-153497440D01*
X129850000Y-153497440D01*
X130085317Y-153453162D01*
X130301441Y-153314090D01*
X130446431Y-153101890D01*
X130460086Y-153034459D01*
X130489946Y-153079147D01*
X130971715Y-153401054D01*
X131540000Y-153514093D01*
X132108285Y-153401054D01*
X132590054Y-153079147D01*
X132810000Y-152749974D01*
X133029946Y-153079147D01*
X133511715Y-153401054D01*
X134080000Y-153514093D01*
X134648285Y-153401054D01*
X135130054Y-153079147D01*
X135350000Y-152749974D01*
X135569946Y-153079147D01*
X136051715Y-153401054D01*
X136620000Y-153514093D01*
X137188285Y-153401054D01*
X137670054Y-153079147D01*
X137890000Y-152749974D01*
X138109946Y-153079147D01*
X138591715Y-153401054D01*
X139160000Y-153514093D01*
X139728285Y-153401054D01*
X140210054Y-153079147D01*
X140430000Y-152749974D01*
X140649946Y-153079147D01*
X141131715Y-153401054D01*
X141700000Y-153514093D01*
X142268285Y-153401054D01*
X142750054Y-153079147D01*
X142970000Y-152749974D01*
X143189946Y-153079147D01*
X143671715Y-153401054D01*
X144240000Y-153514093D01*
X144808285Y-153401054D01*
X145290054Y-153079147D01*
X145510000Y-152749974D01*
X145729946Y-153079147D01*
X146211715Y-153401054D01*
X146780000Y-153514093D01*
X147348285Y-153401054D01*
X147830054Y-153079147D01*
X148050000Y-152749974D01*
X148269946Y-153079147D01*
X148751715Y-153401054D01*
X149320000Y-153514093D01*
X149888285Y-153401054D01*
X150370054Y-153079147D01*
X150590000Y-152749974D01*
X150809946Y-153079147D01*
X151291715Y-153401054D01*
X151860000Y-153514093D01*
X152428285Y-153401054D01*
X152910054Y-153079147D01*
X153130000Y-152749974D01*
X153349946Y-153079147D01*
X153831715Y-153401054D01*
X154400000Y-153514093D01*
X154968285Y-153401054D01*
X155450054Y-153079147D01*
X155670000Y-152749974D01*
X155889946Y-153079147D01*
X156371715Y-153401054D01*
X156940000Y-153514093D01*
X157508285Y-153401054D01*
X157990054Y-153079147D01*
X158210000Y-152749974D01*
X158429946Y-153079147D01*
X158911715Y-153401054D01*
X159480000Y-153514093D01*
X160048285Y-153401054D01*
X160530054Y-153079147D01*
X160750000Y-152749974D01*
X160969946Y-153079147D01*
X161451715Y-153401054D01*
X162020000Y-153514093D01*
X162588285Y-153401054D01*
X163070054Y-153079147D01*
X163290000Y-152749974D01*
X163509946Y-153079147D01*
X163991715Y-153401054D01*
X164560000Y-153514093D01*
X165128285Y-153401054D01*
X165610054Y-153079147D01*
X165830000Y-152749974D01*
X166049946Y-153079147D01*
X166531715Y-153401054D01*
X167100000Y-153514093D01*
X167668285Y-153401054D01*
X168150054Y-153079147D01*
X168471961Y-152597378D01*
X168585000Y-152029093D01*
X168585000Y-151970907D01*
X168471961Y-151402622D01*
X168150054Y-150920853D01*
X167864422Y-150730000D01*
X168150054Y-150539147D01*
X168471961Y-150057378D01*
X168585000Y-149489093D01*
X168585000Y-149430907D01*
X168471961Y-148862622D01*
X168150054Y-148380853D01*
X167668285Y-148058946D01*
X167100000Y-147945907D01*
X166531715Y-148058946D01*
X166049946Y-148380853D01*
X165830000Y-148710026D01*
X165610054Y-148380853D01*
X165128285Y-148058946D01*
X164560000Y-147945907D01*
X163991715Y-148058946D01*
X163509946Y-148380853D01*
X163290000Y-148710026D01*
X163070054Y-148380853D01*
X162588285Y-148058946D01*
X162020000Y-147945907D01*
X161451715Y-148058946D01*
X160969946Y-148380853D01*
X160750000Y-148710026D01*
X160530054Y-148380853D01*
X160048285Y-148058946D01*
X159480000Y-147945907D01*
X158911715Y-148058946D01*
X158429946Y-148380853D01*
X158210000Y-148710026D01*
X157990054Y-148380853D01*
X157508285Y-148058946D01*
X156940000Y-147945907D01*
X156371715Y-148058946D01*
X155889946Y-148380853D01*
X155670000Y-148710026D01*
X155450054Y-148380853D01*
X154968285Y-148058946D01*
X154400000Y-147945907D01*
X153831715Y-148058946D01*
X153349946Y-148380853D01*
X153130000Y-148710026D01*
X152910054Y-148380853D01*
X152428285Y-148058946D01*
X151860000Y-147945907D01*
X151291715Y-148058946D01*
X150809946Y-148380853D01*
X150590000Y-148710026D01*
X150370054Y-148380853D01*
X149888285Y-148058946D01*
X149320000Y-147945907D01*
X148751715Y-148058946D01*
X148269946Y-148380853D01*
X148050000Y-148710026D01*
X147830054Y-148380853D01*
X147348285Y-148058946D01*
X146780000Y-147945907D01*
X146211715Y-148058946D01*
X145729946Y-148380853D01*
X145510000Y-148710026D01*
X145290054Y-148380853D01*
X144808285Y-148058946D01*
X144240000Y-147945907D01*
X143671715Y-148058946D01*
X143189946Y-148380853D01*
X142970000Y-148710026D01*
X142750054Y-148380853D01*
X142268285Y-148058946D01*
X141700000Y-147945907D01*
X141131715Y-148058946D01*
X140649946Y-148380853D01*
X140430000Y-148710026D01*
X140210054Y-148380853D01*
X139728285Y-148058946D01*
X139160000Y-147945907D01*
X138591715Y-148058946D01*
X138109946Y-148380853D01*
X137890000Y-148710026D01*
X137670054Y-148380853D01*
X137188285Y-148058946D01*
X136620000Y-147945907D01*
X136051715Y-148058946D01*
X135569946Y-148380853D01*
X135350000Y-148710026D01*
X135130054Y-148380853D01*
X134648285Y-148058946D01*
X134080000Y-147945907D01*
X133511715Y-148058946D01*
X133029946Y-148380853D01*
X132810000Y-148710026D01*
X132590054Y-148380853D01*
X132108285Y-148058946D01*
X131540000Y-147945907D01*
X130971715Y-148058946D01*
X130489946Y-148380853D01*
X130270000Y-148710026D01*
X130050054Y-148380853D01*
X129568285Y-148058946D01*
X129000000Y-147945907D01*
X128431715Y-148058946D01*
X127949946Y-148380853D01*
X127628039Y-148862622D01*
X127515000Y-149430907D01*
X127515000Y-149489093D01*
X127628039Y-150057378D01*
X127949946Y-150539147D01*
X127951179Y-150539971D01*
X127914683Y-150546838D01*
X127698559Y-150685910D01*
X127553569Y-150898110D01*
X127502560Y-151150000D01*
X120710000Y-151150000D01*
X120710000Y-126948000D01*
X169285907Y-126948000D01*
X169398946Y-127516285D01*
X169720853Y-127998054D01*
X170202622Y-128319961D01*
X170770907Y-128433000D01*
X170829093Y-128433000D01*
X171397378Y-128319961D01*
X171879147Y-127998054D01*
X172201054Y-127516285D01*
X172314093Y-126948000D01*
X172201054Y-126379715D01*
X171879147Y-125897946D01*
X171538447Y-125670298D01*
X171681358Y-125603183D01*
X172071645Y-125174924D01*
X172241476Y-124764890D01*
X172120155Y-124535000D01*
X170927000Y-124535000D01*
X170927000Y-124555000D01*
X170673000Y-124555000D01*
X170673000Y-124535000D01*
X169479845Y-124535000D01*
X169358524Y-124764890D01*
X169528355Y-125174924D01*
X169918642Y-125603183D01*
X170061553Y-125670298D01*
X169720853Y-125897946D01*
X169398946Y-126379715D01*
X169285907Y-126948000D01*
X120710000Y-126948000D01*
X120710000Y-116788000D01*
X169285907Y-116788000D01*
X169398946Y-117356285D01*
X169720853Y-117838054D01*
X170050026Y-118058000D01*
X169720853Y-118277946D01*
X169398946Y-118759715D01*
X169285907Y-119328000D01*
X169398946Y-119896285D01*
X169720853Y-120378054D01*
X170050026Y-120598000D01*
X169720853Y-120817946D01*
X169398946Y-121299715D01*
X169285907Y-121868000D01*
X169398946Y-122436285D01*
X169720853Y-122918054D01*
X170061553Y-123145702D01*
X169918642Y-123212817D01*
X169528355Y-123641076D01*
X169358524Y-124051110D01*
X169479845Y-124281000D01*
X170673000Y-124281000D01*
X170673000Y-124261000D01*
X170927000Y-124261000D01*
X170927000Y-124281000D01*
X172120155Y-124281000D01*
X172241476Y-124051110D01*
X172071645Y-123641076D01*
X171681358Y-123212817D01*
X171538447Y-123145702D01*
X171879147Y-122918054D01*
X172201054Y-122436285D01*
X172314093Y-121868000D01*
X172201054Y-121299715D01*
X171879147Y-120817946D01*
X171549974Y-120598000D01*
X171879147Y-120378054D01*
X172201054Y-119896285D01*
X172314093Y-119328000D01*
X172201054Y-118759715D01*
X171879147Y-118277946D01*
X171549974Y-118058000D01*
X171879147Y-117838054D01*
X172201054Y-117356285D01*
X172314093Y-116788000D01*
X172201054Y-116219715D01*
X171879147Y-115737946D01*
X171837548Y-115710150D01*
X171885317Y-115701162D01*
X172101441Y-115562090D01*
X172246431Y-115349890D01*
X172297440Y-115098000D01*
X172297440Y-113398000D01*
X172253162Y-113162683D01*
X172114090Y-112946559D01*
X171901890Y-112801569D01*
X171650000Y-112750560D01*
X169950000Y-112750560D01*
X169714683Y-112794838D01*
X169498559Y-112933910D01*
X169353569Y-113146110D01*
X169302560Y-113398000D01*
X169302560Y-115098000D01*
X169346838Y-115333317D01*
X169485910Y-115549441D01*
X169698110Y-115694431D01*
X169765541Y-115708086D01*
X169720853Y-115737946D01*
X169398946Y-116219715D01*
X169285907Y-116788000D01*
X120710000Y-116788000D01*
X120710000Y-111883338D01*
X164334190Y-111883338D01*
X164544686Y-112392777D01*
X164934113Y-112782884D01*
X165443184Y-112994269D01*
X165994398Y-112994750D01*
X166503837Y-112784254D01*
X166893944Y-112394827D01*
X167105329Y-111885756D01*
X167105810Y-111334542D01*
X166895314Y-110825103D01*
X166505887Y-110434996D01*
X165996816Y-110223611D01*
X165445602Y-110223130D01*
X164936163Y-110433626D01*
X164546056Y-110823053D01*
X164334671Y-111332124D01*
X164334190Y-111883338D01*
X120710000Y-111883338D01*
X120710000Y-107001458D01*
X164334190Y-107001458D01*
X164544686Y-107510897D01*
X164934113Y-107901004D01*
X165443184Y-108112389D01*
X165994398Y-108112870D01*
X166503837Y-107902374D01*
X166893944Y-107512947D01*
X167105329Y-107003876D01*
X167105810Y-106452662D01*
X166895314Y-105943223D01*
X166505887Y-105553116D01*
X165996816Y-105341731D01*
X165445602Y-105341250D01*
X164936163Y-105551746D01*
X164546056Y-105941173D01*
X164334671Y-106450244D01*
X164334190Y-107001458D01*
X120710000Y-107001458D01*
X120710000Y-100049928D01*
X123465000Y-100049928D01*
X123465000Y-100110072D01*
X123581845Y-100697491D01*
X123914591Y-101195481D01*
X124412581Y-101528227D01*
X125000000Y-101645072D01*
X125587419Y-101528227D01*
X126085409Y-101195481D01*
X126418155Y-100697491D01*
X126535000Y-100110072D01*
X126535000Y-100049928D01*
X126418155Y-99462509D01*
X126085409Y-98964519D01*
X125847418Y-98805499D01*
X126237966Y-98447576D01*
X126491046Y-97904742D01*
X126370997Y-97667000D01*
X125127000Y-97667000D01*
X125127000Y-97687000D01*
X124873000Y-97687000D01*
X124873000Y-97667000D01*
X123629003Y-97667000D01*
X123508954Y-97904742D01*
X123762034Y-98447576D01*
X124152582Y-98805499D01*
X123914591Y-98964519D01*
X123581845Y-99462509D01*
X123465000Y-100049928D01*
X120710000Y-100049928D01*
X120710000Y-94100000D01*
X123452560Y-94100000D01*
X123452560Y-95900000D01*
X123496838Y-96135317D01*
X123635910Y-96351441D01*
X123848110Y-96496431D01*
X123899146Y-96506766D01*
X123762034Y-96632424D01*
X123508954Y-97175258D01*
X123629003Y-97413000D01*
X124873000Y-97413000D01*
X124873000Y-97393000D01*
X125127000Y-97393000D01*
X125127000Y-97413000D01*
X126370997Y-97413000D01*
X126491046Y-97175258D01*
X126237966Y-96632424D01*
X126103462Y-96509156D01*
X126135317Y-96503162D01*
X126351441Y-96364090D01*
X126496431Y-96151890D01*
X126547440Y-95900000D01*
X126547440Y-94182000D01*
X167240041Y-94182000D01*
X167354115Y-94755489D01*
X167678971Y-95241670D01*
X167692642Y-95250805D01*
X167669083Y-95255238D01*
X167452959Y-95394310D01*
X167307969Y-95606510D01*
X167256960Y-95858400D01*
X167256960Y-97585600D01*
X167301238Y-97820917D01*
X167440310Y-98037041D01*
X167652510Y-98182031D01*
X167904400Y-98233040D01*
X169631600Y-98233040D01*
X169866917Y-98188762D01*
X170083041Y-98049690D01*
X170228031Y-97837490D01*
X170236908Y-97793655D01*
X170473000Y-97951407D01*
X170473000Y-103240889D01*
X170388162Y-103445201D01*
X170387838Y-103817167D01*
X170529883Y-104160943D01*
X170792673Y-104424192D01*
X171136201Y-104566838D01*
X171508167Y-104567162D01*
X171851943Y-104425117D01*
X172115192Y-104162327D01*
X172257838Y-103818799D01*
X172258162Y-103446833D01*
X172143000Y-103168119D01*
X172143000Y-97951407D01*
X172397029Y-97781670D01*
X172578000Y-97510828D01*
X172758971Y-97781670D01*
X173245152Y-98106526D01*
X173818641Y-98220600D01*
X173877359Y-98220600D01*
X174450848Y-98106526D01*
X174937029Y-97781670D01*
X175261885Y-97295489D01*
X175375959Y-96722000D01*
X175261885Y-96148511D01*
X174937029Y-95662330D01*
X174613772Y-95446336D01*
X174736490Y-95388821D01*
X175130688Y-94956947D01*
X175302958Y-94541026D01*
X175181817Y-94309000D01*
X173975000Y-94309000D01*
X173975000Y-94329000D01*
X173721000Y-94329000D01*
X173721000Y-94309000D01*
X173701000Y-94309000D01*
X173701000Y-94055000D01*
X173721000Y-94055000D01*
X173721000Y-92847531D01*
X173975000Y-92847531D01*
X173975000Y-94055000D01*
X175181817Y-94055000D01*
X175302958Y-93822974D01*
X175130688Y-93407053D01*
X174736490Y-92975179D01*
X174207027Y-92727032D01*
X173975000Y-92847531D01*
X173721000Y-92847531D01*
X173488973Y-92727032D01*
X172959510Y-92975179D01*
X172577992Y-93393161D01*
X172397029Y-93122330D01*
X171910848Y-92797474D01*
X171337359Y-92683400D01*
X171278641Y-92683400D01*
X170705152Y-92797474D01*
X170218971Y-93122330D01*
X170038000Y-93393172D01*
X169857029Y-93122330D01*
X169370848Y-92797474D01*
X168797359Y-92683400D01*
X168738641Y-92683400D01*
X168165152Y-92797474D01*
X167678971Y-93122330D01*
X167354115Y-93608511D01*
X167240041Y-94182000D01*
X126547440Y-94182000D01*
X126547440Y-94100000D01*
X126503162Y-93864683D01*
X126364090Y-93648559D01*
X126151890Y-93503569D01*
X125900000Y-93452560D01*
X124100000Y-93452560D01*
X123864683Y-93496838D01*
X123648559Y-93635910D01*
X123503569Y-93848110D01*
X123452560Y-94100000D01*
X120710000Y-94100000D01*
X120710000Y-82896890D01*
X165558524Y-82896890D01*
X165728355Y-83306924D01*
X166118642Y-83735183D01*
X166643108Y-83981486D01*
X166873000Y-83860819D01*
X166873000Y-82667000D01*
X167127000Y-82667000D01*
X167127000Y-83860819D01*
X167356892Y-83981486D01*
X167881358Y-83735183D01*
X168271645Y-83306924D01*
X168441476Y-82896890D01*
X181558524Y-82896890D01*
X181728355Y-83306924D01*
X182118642Y-83735183D01*
X182643108Y-83981486D01*
X182873000Y-83860819D01*
X182873000Y-82667000D01*
X183127000Y-82667000D01*
X183127000Y-83860819D01*
X183356892Y-83981486D01*
X183881358Y-83735183D01*
X184271645Y-83306924D01*
X184441476Y-82896890D01*
X197558524Y-82896890D01*
X197728355Y-83306924D01*
X198118642Y-83735183D01*
X198643108Y-83981486D01*
X198873000Y-83860819D01*
X198873000Y-82667000D01*
X199127000Y-82667000D01*
X199127000Y-83860819D01*
X199356892Y-83981486D01*
X199881358Y-83735183D01*
X200271645Y-83306924D01*
X200441476Y-82896890D01*
X200320155Y-82667000D01*
X199127000Y-82667000D01*
X198873000Y-82667000D01*
X197679845Y-82667000D01*
X197558524Y-82896890D01*
X184441476Y-82896890D01*
X184320155Y-82667000D01*
X183127000Y-82667000D01*
X182873000Y-82667000D01*
X181679845Y-82667000D01*
X181558524Y-82896890D01*
X168441476Y-82896890D01*
X168320155Y-82667000D01*
X167127000Y-82667000D01*
X166873000Y-82667000D01*
X165679845Y-82667000D01*
X165558524Y-82896890D01*
X120710000Y-82896890D01*
X120710000Y-79150000D01*
X165502560Y-79150000D01*
X165502560Y-80850000D01*
X165546838Y-81085317D01*
X165685910Y-81301441D01*
X165898110Y-81446431D01*
X166006107Y-81468301D01*
X165728355Y-81773076D01*
X165558524Y-82183110D01*
X165679845Y-82413000D01*
X166873000Y-82413000D01*
X166873000Y-82393000D01*
X167127000Y-82393000D01*
X167127000Y-82413000D01*
X168320155Y-82413000D01*
X168441476Y-82183110D01*
X168271645Y-81773076D01*
X167995499Y-81470063D01*
X168085317Y-81453162D01*
X168301441Y-81314090D01*
X168446431Y-81101890D01*
X168497440Y-80850000D01*
X168497440Y-79150000D01*
X181502560Y-79150000D01*
X181502560Y-80850000D01*
X181546838Y-81085317D01*
X181685910Y-81301441D01*
X181898110Y-81446431D01*
X182006107Y-81468301D01*
X181728355Y-81773076D01*
X181558524Y-82183110D01*
X181679845Y-82413000D01*
X182873000Y-82413000D01*
X182873000Y-82393000D01*
X183127000Y-82393000D01*
X183127000Y-82413000D01*
X184320155Y-82413000D01*
X184441476Y-82183110D01*
X184271645Y-81773076D01*
X183995499Y-81470063D01*
X184085317Y-81453162D01*
X184301441Y-81314090D01*
X184446431Y-81101890D01*
X184497440Y-80850000D01*
X184497440Y-79150000D01*
X197502560Y-79150000D01*
X197502560Y-80850000D01*
X197546838Y-81085317D01*
X197685910Y-81301441D01*
X197898110Y-81446431D01*
X198006107Y-81468301D01*
X197728355Y-81773076D01*
X197558524Y-82183110D01*
X197679845Y-82413000D01*
X198873000Y-82413000D01*
X198873000Y-82393000D01*
X199127000Y-82393000D01*
X199127000Y-82413000D01*
X200320155Y-82413000D01*
X200441476Y-82183110D01*
X200271645Y-81773076D01*
X199995499Y-81470063D01*
X200085317Y-81453162D01*
X200301441Y-81314090D01*
X200446431Y-81101890D01*
X200497440Y-80850000D01*
X200497440Y-79150000D01*
X200453162Y-78914683D01*
X200314090Y-78698559D01*
X200101890Y-78553569D01*
X199850000Y-78502560D01*
X198150000Y-78502560D01*
X197914683Y-78546838D01*
X197698559Y-78685910D01*
X197553569Y-78898110D01*
X197502560Y-79150000D01*
X184497440Y-79150000D01*
X184453162Y-78914683D01*
X184314090Y-78698559D01*
X184101890Y-78553569D01*
X183850000Y-78502560D01*
X182150000Y-78502560D01*
X181914683Y-78546838D01*
X181698559Y-78685910D01*
X181553569Y-78898110D01*
X181502560Y-79150000D01*
X168497440Y-79150000D01*
X168453162Y-78914683D01*
X168314090Y-78698559D01*
X168101890Y-78553569D01*
X167850000Y-78502560D01*
X166150000Y-78502560D01*
X165914683Y-78546838D01*
X165698559Y-78685910D01*
X165553569Y-78898110D01*
X165502560Y-79150000D01*
X120710000Y-79150000D01*
X120710000Y-75100000D01*
X160925132Y-75100000D01*
X161053395Y-75744822D01*
X161418657Y-76291475D01*
X161965310Y-76656737D01*
X162610132Y-76785000D01*
X163389868Y-76785000D01*
X164034690Y-76656737D01*
X164581343Y-76291475D01*
X164946605Y-75744822D01*
X165074868Y-75100000D01*
X176925132Y-75100000D01*
X177053395Y-75744822D01*
X177418657Y-76291475D01*
X177965310Y-76656737D01*
X178610132Y-76785000D01*
X179389868Y-76785000D01*
X180034690Y-76656737D01*
X180581343Y-76291475D01*
X180946605Y-75744822D01*
X181074868Y-75100000D01*
X192925132Y-75100000D01*
X193053395Y-75744822D01*
X193418657Y-76291475D01*
X193965310Y-76656737D01*
X194610132Y-76785000D01*
X195389868Y-76785000D01*
X196034690Y-76656737D01*
X196581343Y-76291475D01*
X196946605Y-75744822D01*
X197074868Y-75100000D01*
X196946605Y-74455178D01*
X196581343Y-73908525D01*
X196034690Y-73543263D01*
X195389868Y-73415000D01*
X194610132Y-73415000D01*
X193965310Y-73543263D01*
X193418657Y-73908525D01*
X193053395Y-74455178D01*
X192925132Y-75100000D01*
X181074868Y-75100000D01*
X180946605Y-74455178D01*
X180581343Y-73908525D01*
X180034690Y-73543263D01*
X179389868Y-73415000D01*
X178610132Y-73415000D01*
X177965310Y-73543263D01*
X177418657Y-73908525D01*
X177053395Y-74455178D01*
X176925132Y-75100000D01*
X165074868Y-75100000D01*
X164946605Y-74455178D01*
X164581343Y-73908525D01*
X164034690Y-73543263D01*
X163389868Y-73415000D01*
X162610132Y-73415000D01*
X161965310Y-73543263D01*
X161418657Y-73908525D01*
X161053395Y-74455178D01*
X160925132Y-75100000D01*
X120710000Y-75100000D01*
X120710000Y-72101834D01*
X125869543Y-72101834D01*
X126269853Y-73070658D01*
X127010443Y-73812542D01*
X127978567Y-74214542D01*
X129026834Y-74215457D01*
X129995658Y-73815147D01*
X130737542Y-73074557D01*
X131111070Y-72175000D01*
X133987560Y-72175000D01*
X133987560Y-73825000D01*
X134031838Y-74060317D01*
X134170910Y-74276441D01*
X134383110Y-74421431D01*
X134635000Y-74472440D01*
X136285000Y-74472440D01*
X136520317Y-74428162D01*
X136736441Y-74289090D01*
X136881431Y-74076890D01*
X136932440Y-73825000D01*
X136932440Y-73682884D01*
X136991551Y-73825943D01*
X137401897Y-74237006D01*
X137938314Y-74459746D01*
X138519138Y-74460253D01*
X139055943Y-74238449D01*
X139268910Y-74025853D01*
X140153752Y-74025853D01*
X140230956Y-74274563D01*
X140777250Y-74471843D01*
X141357456Y-74445048D01*
X141769044Y-74274563D01*
X141846248Y-74025853D01*
X141000000Y-73179605D01*
X140153752Y-74025853D01*
X139268910Y-74025853D01*
X139467006Y-73828103D01*
X139608628Y-73487041D01*
X139725437Y-73769044D01*
X139974147Y-73846248D01*
X140820395Y-73000000D01*
X141179605Y-73000000D01*
X142025853Y-73846248D01*
X142274563Y-73769044D01*
X142383452Y-73467517D01*
X142531551Y-73825943D01*
X142941897Y-74237006D01*
X143478314Y-74459746D01*
X144059138Y-74460253D01*
X144595943Y-74238449D01*
X145007006Y-73828103D01*
X145155089Y-73471479D01*
X145301551Y-73825943D01*
X145711897Y-74237006D01*
X146248314Y-74459746D01*
X146829138Y-74460253D01*
X147365943Y-74238449D01*
X147777006Y-73828103D01*
X147999746Y-73291686D01*
X148000253Y-72710862D01*
X147778449Y-72174057D01*
X147706352Y-72101834D01*
X150859543Y-72101834D01*
X151259853Y-73070658D01*
X152000443Y-73812542D01*
X152968567Y-74214542D01*
X154016834Y-74215457D01*
X154985658Y-73815147D01*
X155727542Y-73074557D01*
X156129542Y-72106433D01*
X156130457Y-71058166D01*
X155738738Y-70110132D01*
X167965000Y-70110132D01*
X167965000Y-70889868D01*
X168093263Y-71534690D01*
X168458525Y-72081343D01*
X169005178Y-72446605D01*
X169650000Y-72574868D01*
X170294822Y-72446605D01*
X170384286Y-72386827D01*
X170493263Y-72934690D01*
X170858525Y-73481343D01*
X171405178Y-73846605D01*
X172050000Y-73974868D01*
X172694822Y-73846605D01*
X173241475Y-73481343D01*
X173606737Y-72934690D01*
X173735000Y-72289868D01*
X173735000Y-71510132D01*
X173606737Y-70865310D01*
X173241475Y-70318657D01*
X172929396Y-70110132D01*
X183965000Y-70110132D01*
X183965000Y-70889868D01*
X184093263Y-71534690D01*
X184458525Y-72081343D01*
X185005178Y-72446605D01*
X185650000Y-72574868D01*
X186294822Y-72446605D01*
X186384286Y-72386827D01*
X186493263Y-72934690D01*
X186858525Y-73481343D01*
X187405178Y-73846605D01*
X188050000Y-73974868D01*
X188694822Y-73846605D01*
X189241475Y-73481343D01*
X189606737Y-72934690D01*
X189735000Y-72289868D01*
X189735000Y-71510132D01*
X189606737Y-70865310D01*
X189241475Y-70318657D01*
X188929396Y-70110132D01*
X199965000Y-70110132D01*
X199965000Y-70889868D01*
X200093263Y-71534690D01*
X200458525Y-72081343D01*
X201005178Y-72446605D01*
X201650000Y-72574868D01*
X202294822Y-72446605D01*
X202384286Y-72386827D01*
X202493263Y-72934690D01*
X202858525Y-73481343D01*
X203405178Y-73846605D01*
X204050000Y-73974868D01*
X204694822Y-73846605D01*
X205241475Y-73481343D01*
X205606737Y-72934690D01*
X205735000Y-72289868D01*
X205735000Y-71510132D01*
X205606737Y-70865310D01*
X205241475Y-70318657D01*
X204694822Y-69953395D01*
X204050000Y-69825132D01*
X203405178Y-69953395D01*
X203315714Y-70013173D01*
X203206737Y-69465310D01*
X202841475Y-68918657D01*
X202294822Y-68553395D01*
X201650000Y-68425132D01*
X201005178Y-68553395D01*
X200458525Y-68918657D01*
X200093263Y-69465310D01*
X199965000Y-70110132D01*
X188929396Y-70110132D01*
X188694822Y-69953395D01*
X188050000Y-69825132D01*
X187405178Y-69953395D01*
X187315714Y-70013173D01*
X187206737Y-69465310D01*
X186841475Y-68918657D01*
X186294822Y-68553395D01*
X185650000Y-68425132D01*
X185005178Y-68553395D01*
X184458525Y-68918657D01*
X184093263Y-69465310D01*
X183965000Y-70110132D01*
X172929396Y-70110132D01*
X172694822Y-69953395D01*
X172050000Y-69825132D01*
X171405178Y-69953395D01*
X171315714Y-70013173D01*
X171206737Y-69465310D01*
X170841475Y-68918657D01*
X170294822Y-68553395D01*
X169650000Y-68425132D01*
X169005178Y-68553395D01*
X168458525Y-68918657D01*
X168093263Y-69465310D01*
X167965000Y-70110132D01*
X155738738Y-70110132D01*
X155730147Y-70089342D01*
X154989557Y-69347458D01*
X154021433Y-68945458D01*
X152973166Y-68944543D01*
X152004342Y-69344853D01*
X151262458Y-70085443D01*
X150860458Y-71053567D01*
X150859543Y-72101834D01*
X147706352Y-72101834D01*
X147368103Y-71762994D01*
X146831686Y-71540254D01*
X146250862Y-71539747D01*
X145714057Y-71761551D01*
X145302994Y-72171897D01*
X145154911Y-72528521D01*
X145008449Y-72174057D01*
X144598103Y-71762994D01*
X144061686Y-71540254D01*
X143480862Y-71539747D01*
X142944057Y-71761551D01*
X142532994Y-72171897D01*
X142391372Y-72512959D01*
X142274563Y-72230956D01*
X142025853Y-72153752D01*
X141179605Y-73000000D01*
X140820395Y-73000000D01*
X139974147Y-72153752D01*
X139725437Y-72230956D01*
X139616548Y-72532483D01*
X139468449Y-72174057D01*
X139268888Y-71974147D01*
X140153752Y-71974147D01*
X141000000Y-72820395D01*
X141846248Y-71974147D01*
X141769044Y-71725437D01*
X141222750Y-71528157D01*
X140642544Y-71554952D01*
X140230956Y-71725437D01*
X140153752Y-71974147D01*
X139268888Y-71974147D01*
X139058103Y-71762994D01*
X138521686Y-71540254D01*
X137940862Y-71539747D01*
X137404057Y-71761551D01*
X136992994Y-72171897D01*
X136932440Y-72317727D01*
X136932440Y-72175000D01*
X136888162Y-71939683D01*
X136749090Y-71723559D01*
X136606574Y-71626182D01*
X136622250Y-71631843D01*
X137202456Y-71605048D01*
X137614044Y-71434563D01*
X137691248Y-71185853D01*
X136845000Y-70339605D01*
X135998752Y-71185853D01*
X136075956Y-71434563D01*
X136395366Y-71549910D01*
X136285000Y-71527560D01*
X134635000Y-71527560D01*
X134399683Y-71571838D01*
X134183559Y-71710910D01*
X134038569Y-71923110D01*
X133987560Y-72175000D01*
X131111070Y-72175000D01*
X131139542Y-72106433D01*
X131140457Y-71058166D01*
X130740147Y-70089342D01*
X130588321Y-69937250D01*
X135373157Y-69937250D01*
X135399952Y-70517456D01*
X135570437Y-70929044D01*
X135819147Y-71006248D01*
X136665395Y-70160000D01*
X137024605Y-70160000D01*
X137870853Y-71006248D01*
X138119563Y-70929044D01*
X138228452Y-70627517D01*
X138376551Y-70985943D01*
X138786897Y-71397006D01*
X139323314Y-71619746D01*
X139904138Y-71620253D01*
X140440943Y-71398449D01*
X140852006Y-70988103D01*
X141000089Y-70631479D01*
X141146551Y-70985943D01*
X141556897Y-71397006D01*
X142093314Y-71619746D01*
X142674138Y-71620253D01*
X143210943Y-71398449D01*
X143622006Y-70988103D01*
X143770089Y-70631479D01*
X143916551Y-70985943D01*
X144326897Y-71397006D01*
X144863314Y-71619746D01*
X145444138Y-71620253D01*
X145980943Y-71398449D01*
X146392006Y-70988103D01*
X146614746Y-70451686D01*
X146615253Y-69870862D01*
X146393449Y-69334057D01*
X145983103Y-68922994D01*
X145446686Y-68700254D01*
X144865862Y-68699747D01*
X144329057Y-68921551D01*
X143917994Y-69331897D01*
X143769911Y-69688521D01*
X143623449Y-69334057D01*
X143213103Y-68922994D01*
X142676686Y-68700254D01*
X142095862Y-68699747D01*
X141559057Y-68921551D01*
X141147994Y-69331897D01*
X140999911Y-69688521D01*
X140853449Y-69334057D01*
X140443103Y-68922994D01*
X139906686Y-68700254D01*
X139325862Y-68699747D01*
X138789057Y-68921551D01*
X138377994Y-69331897D01*
X138236372Y-69672959D01*
X138119563Y-69390956D01*
X137870853Y-69313752D01*
X137024605Y-70160000D01*
X136665395Y-70160000D01*
X135819147Y-69313752D01*
X135570437Y-69390956D01*
X135373157Y-69937250D01*
X130588321Y-69937250D01*
X129999557Y-69347458D01*
X129485847Y-69134147D01*
X135998752Y-69134147D01*
X136845000Y-69980395D01*
X137691248Y-69134147D01*
X137614044Y-68885437D01*
X137067750Y-68688157D01*
X136487544Y-68714952D01*
X136075956Y-68885437D01*
X135998752Y-69134147D01*
X129485847Y-69134147D01*
X129031433Y-68945458D01*
X127983166Y-68944543D01*
X127014342Y-69344853D01*
X126272458Y-70085443D01*
X125870458Y-71053567D01*
X125869543Y-72101834D01*
X120710000Y-72101834D01*
X120710000Y-67010132D01*
X160765000Y-67010132D01*
X160765000Y-67789868D01*
X160893263Y-68434690D01*
X161258525Y-68981343D01*
X161805178Y-69346605D01*
X162450000Y-69474868D01*
X163094822Y-69346605D01*
X163641475Y-68981343D01*
X164006737Y-68434690D01*
X164135000Y-67789868D01*
X164135000Y-67010132D01*
X176765000Y-67010132D01*
X176765000Y-67789868D01*
X176893263Y-68434690D01*
X177258525Y-68981343D01*
X177805178Y-69346605D01*
X178450000Y-69474868D01*
X179094822Y-69346605D01*
X179641475Y-68981343D01*
X180006737Y-68434690D01*
X180135000Y-67789868D01*
X180135000Y-67010132D01*
X192765000Y-67010132D01*
X192765000Y-67789868D01*
X192893263Y-68434690D01*
X193258525Y-68981343D01*
X193805178Y-69346605D01*
X194450000Y-69474868D01*
X195094822Y-69346605D01*
X195641475Y-68981343D01*
X196006737Y-68434690D01*
X196135000Y-67789868D01*
X196135000Y-67010132D01*
X196006737Y-66365310D01*
X195641475Y-65818657D01*
X195094822Y-65453395D01*
X194450000Y-65325132D01*
X193805178Y-65453395D01*
X193258525Y-65818657D01*
X192893263Y-66365310D01*
X192765000Y-67010132D01*
X180135000Y-67010132D01*
X180006737Y-66365310D01*
X179641475Y-65818657D01*
X179094822Y-65453395D01*
X178450000Y-65325132D01*
X177805178Y-65453395D01*
X177258525Y-65818657D01*
X176893263Y-66365310D01*
X176765000Y-67010132D01*
X164135000Y-67010132D01*
X164006737Y-66365310D01*
X163641475Y-65818657D01*
X163094822Y-65453395D01*
X162450000Y-65325132D01*
X161805178Y-65453395D01*
X161258525Y-65818657D01*
X160893263Y-66365310D01*
X160765000Y-67010132D01*
X120710000Y-67010132D01*
X120710000Y-64488279D01*
X165010346Y-64488279D01*
X165044663Y-64627489D01*
X165368723Y-65201672D01*
X165887846Y-65608136D01*
X166523000Y-65785000D01*
X166873000Y-65785000D01*
X166873000Y-64227000D01*
X167127000Y-64227000D01*
X167127000Y-65785000D01*
X167477000Y-65785000D01*
X168112154Y-65608136D01*
X168631277Y-65201672D01*
X168955337Y-64627489D01*
X168989654Y-64488279D01*
X181010346Y-64488279D01*
X181044663Y-64627489D01*
X181368723Y-65201672D01*
X181887846Y-65608136D01*
X182523000Y-65785000D01*
X182873000Y-65785000D01*
X182873000Y-64227000D01*
X183127000Y-64227000D01*
X183127000Y-65785000D01*
X183477000Y-65785000D01*
X184112154Y-65608136D01*
X184631277Y-65201672D01*
X184955337Y-64627489D01*
X184989654Y-64488279D01*
X197010346Y-64488279D01*
X197044663Y-64627489D01*
X197368723Y-65201672D01*
X197887846Y-65608136D01*
X198523000Y-65785000D01*
X198873000Y-65785000D01*
X198873000Y-64227000D01*
X199127000Y-64227000D01*
X199127000Y-65785000D01*
X199477000Y-65785000D01*
X200112154Y-65608136D01*
X200631277Y-65201672D01*
X200955337Y-64627489D01*
X200989654Y-64488279D01*
X200870957Y-64227000D01*
X199127000Y-64227000D01*
X198873000Y-64227000D01*
X197129043Y-64227000D01*
X197010346Y-64488279D01*
X184989654Y-64488279D01*
X184870957Y-64227000D01*
X183127000Y-64227000D01*
X182873000Y-64227000D01*
X181129043Y-64227000D01*
X181010346Y-64488279D01*
X168989654Y-64488279D01*
X168870957Y-64227000D01*
X167127000Y-64227000D01*
X166873000Y-64227000D01*
X165129043Y-64227000D01*
X165010346Y-64488279D01*
X120710000Y-64488279D01*
X120710000Y-62710000D01*
X165736966Y-62710000D01*
X165368723Y-62998328D01*
M02*
