G04 #@! TF.FileFunction,Legend,Top*
%FSLAX46Y46*%
G04 Gerber Fmt 4.6, Leading zero omitted, Abs format (unit mm)*
G04 Created by KiCad (PCBNEW 4.0.6) date Thursday, 09 May 2019 22:32:22*
%MOMM*%
%LPD*%
G01*
G04 APERTURE LIST*
%ADD10C,0.100000*%
%ADD11C,0.400000*%
%ADD12C,0.150000*%
%ADD13C,0.120000*%
G04 APERTURE END LIST*
D10*
D11*
X127843735Y-158765762D02*
X127843735Y-156765762D01*
X128700878Y-158765762D02*
X128700878Y-157718143D01*
X128605640Y-157527667D01*
X128415164Y-157432429D01*
X128129450Y-157432429D01*
X127938974Y-157527667D01*
X127843735Y-157622905D01*
X129748498Y-158765762D02*
X130129450Y-158765762D01*
X130319926Y-158670524D01*
X130415164Y-158575286D01*
X130605640Y-158289571D01*
X130700879Y-157908619D01*
X130700879Y-157146714D01*
X130605640Y-156956238D01*
X130510402Y-156861000D01*
X130319926Y-156765762D01*
X129938974Y-156765762D01*
X129748498Y-156861000D01*
X129653259Y-156956238D01*
X129558021Y-157146714D01*
X129558021Y-157622905D01*
X129653259Y-157813381D01*
X129748498Y-157908619D01*
X129938974Y-158003857D01*
X130319926Y-158003857D01*
X130510402Y-157908619D01*
X130605640Y-157813381D01*
X130700879Y-157622905D01*
X131558021Y-158765762D02*
X131558021Y-156765762D01*
X131748498Y-158003857D02*
X132319926Y-158765762D01*
X132319926Y-157432429D02*
X131558021Y-158194333D01*
X132986593Y-158765762D02*
X134034212Y-157432429D01*
X132986593Y-157432429D02*
X134034212Y-158765762D01*
X134605641Y-156765762D02*
X135843737Y-156765762D01*
X135177070Y-157527667D01*
X135462784Y-157527667D01*
X135653260Y-157622905D01*
X135748498Y-157718143D01*
X135843737Y-157908619D01*
X135843737Y-158384810D01*
X135748498Y-158575286D01*
X135653260Y-158670524D01*
X135462784Y-158765762D01*
X134891356Y-158765762D01*
X134700879Y-158670524D01*
X134605641Y-158575286D01*
X138224689Y-158765762D02*
X138224689Y-156765762D01*
X138224689Y-157527667D02*
X138415166Y-157432429D01*
X138796118Y-157432429D01*
X138986594Y-157527667D01*
X139081832Y-157622905D01*
X139177070Y-157813381D01*
X139177070Y-158384810D01*
X139081832Y-158575286D01*
X138986594Y-158670524D01*
X138796118Y-158765762D01*
X138415166Y-158765762D01*
X138224689Y-158670524D01*
X140891356Y-158765762D02*
X140891356Y-157718143D01*
X140796118Y-157527667D01*
X140605642Y-157432429D01*
X140224690Y-157432429D01*
X140034213Y-157527667D01*
X140891356Y-158670524D02*
X140700880Y-158765762D01*
X140224690Y-158765762D01*
X140034213Y-158670524D01*
X139938975Y-158480048D01*
X139938975Y-158289571D01*
X140034213Y-158099095D01*
X140224690Y-158003857D01*
X140700880Y-158003857D01*
X140891356Y-157908619D01*
X141843737Y-157432429D02*
X141843737Y-158765762D01*
X141843737Y-157622905D02*
X141938976Y-157527667D01*
X142129452Y-157432429D01*
X142415166Y-157432429D01*
X142605642Y-157527667D01*
X142700880Y-157718143D01*
X142700880Y-158765762D01*
X144510404Y-158765762D02*
X144510404Y-156765762D01*
X144510404Y-158670524D02*
X144319928Y-158765762D01*
X143938976Y-158765762D01*
X143748500Y-158670524D01*
X143653261Y-158575286D01*
X143558023Y-158384810D01*
X143558023Y-157813381D01*
X143653261Y-157622905D01*
X143748500Y-157527667D01*
X143938976Y-157432429D01*
X144319928Y-157432429D01*
X144510404Y-157527667D01*
X147843738Y-158765762D02*
X147843738Y-156765762D01*
X147843738Y-158670524D02*
X147653262Y-158765762D01*
X147272310Y-158765762D01*
X147081834Y-158670524D01*
X146986595Y-158575286D01*
X146891357Y-158384810D01*
X146891357Y-157813381D01*
X146986595Y-157622905D01*
X147081834Y-157527667D01*
X147272310Y-157432429D01*
X147653262Y-157432429D01*
X147843738Y-157527667D01*
X149558024Y-158670524D02*
X149367548Y-158765762D01*
X148986596Y-158765762D01*
X148796119Y-158670524D01*
X148700881Y-158480048D01*
X148700881Y-157718143D01*
X148796119Y-157527667D01*
X148986596Y-157432429D01*
X149367548Y-157432429D01*
X149558024Y-157527667D01*
X149653262Y-157718143D01*
X149653262Y-157908619D01*
X148700881Y-158099095D01*
X151367548Y-158670524D02*
X151177072Y-158765762D01*
X150796120Y-158765762D01*
X150605644Y-158670524D01*
X150510405Y-158575286D01*
X150415167Y-158384810D01*
X150415167Y-157813381D01*
X150510405Y-157622905D01*
X150605644Y-157527667D01*
X150796120Y-157432429D01*
X151177072Y-157432429D01*
X151367548Y-157527667D01*
X152510406Y-158765762D02*
X152319930Y-158670524D01*
X152224691Y-158575286D01*
X152129453Y-158384810D01*
X152129453Y-157813381D01*
X152224691Y-157622905D01*
X152319930Y-157527667D01*
X152510406Y-157432429D01*
X152796120Y-157432429D01*
X152986596Y-157527667D01*
X153081834Y-157622905D01*
X153177072Y-157813381D01*
X153177072Y-158384810D01*
X153081834Y-158575286D01*
X152986596Y-158670524D01*
X152796120Y-158765762D01*
X152510406Y-158765762D01*
X154891358Y-158765762D02*
X154891358Y-156765762D01*
X154891358Y-158670524D02*
X154700882Y-158765762D01*
X154319930Y-158765762D01*
X154129454Y-158670524D01*
X154034215Y-158575286D01*
X153938977Y-158384810D01*
X153938977Y-157813381D01*
X154034215Y-157622905D01*
X154129454Y-157527667D01*
X154319930Y-157432429D01*
X154700882Y-157432429D01*
X154891358Y-157527667D01*
X156605644Y-158670524D02*
X156415168Y-158765762D01*
X156034216Y-158765762D01*
X155843739Y-158670524D01*
X155748501Y-158480048D01*
X155748501Y-157718143D01*
X155843739Y-157527667D01*
X156034216Y-157432429D01*
X156415168Y-157432429D01*
X156605644Y-157527667D01*
X156700882Y-157718143D01*
X156700882Y-157908619D01*
X155748501Y-158099095D01*
X157558025Y-158765762D02*
X157558025Y-157432429D01*
X157558025Y-157813381D02*
X157653264Y-157622905D01*
X157748502Y-157527667D01*
X157938978Y-157432429D01*
X158129454Y-157432429D01*
X160129454Y-157432429D02*
X160605645Y-158765762D01*
X161081835Y-157432429D01*
X162891360Y-158765762D02*
X161748502Y-158765762D01*
X162319931Y-158765762D02*
X162319931Y-156765762D01*
X162129455Y-157051476D01*
X161938979Y-157241952D01*
X161748502Y-157337190D01*
X163748502Y-158575286D02*
X163843741Y-158670524D01*
X163748502Y-158765762D01*
X163653264Y-158670524D01*
X163748502Y-158575286D01*
X163748502Y-158765762D01*
X165081836Y-156765762D02*
X165272312Y-156765762D01*
X165462788Y-156861000D01*
X165558026Y-156956238D01*
X165653264Y-157146714D01*
X165748503Y-157527667D01*
X165748503Y-158003857D01*
X165653264Y-158384810D01*
X165558026Y-158575286D01*
X165462788Y-158670524D01*
X165272312Y-158765762D01*
X165081836Y-158765762D01*
X164891360Y-158670524D01*
X164796122Y-158575286D01*
X164700883Y-158384810D01*
X164605645Y-158003857D01*
X164605645Y-157527667D01*
X164700883Y-157146714D01*
X164796122Y-156956238D01*
X164891360Y-156861000D01*
X165081836Y-156765762D01*
D12*
X158338000Y-110683000D02*
X156338000Y-110683000D01*
X156338000Y-112733000D02*
X158338000Y-112733000D01*
X151004000Y-80983000D02*
X153004000Y-80983000D01*
X153004000Y-78933000D02*
X151004000Y-78933000D01*
X181223000Y-122360000D02*
X181223000Y-120360000D01*
X179173000Y-120360000D02*
X179173000Y-122360000D01*
X200676000Y-88020000D02*
X202676000Y-88020000D01*
X202676000Y-85970000D02*
X200676000Y-85970000D01*
X188738000Y-81543000D02*
X190738000Y-81543000D01*
X190738000Y-79493000D02*
X188738000Y-79493000D01*
X180207000Y-82736000D02*
X180207000Y-80736000D01*
X178157000Y-80736000D02*
X178157000Y-82736000D01*
X174365000Y-107120000D02*
X174365000Y-105120000D01*
X172315000Y-105120000D02*
X172315000Y-107120000D01*
X171063000Y-109152000D02*
X171063000Y-107152000D01*
X169013000Y-107152000D02*
X169013000Y-109152000D01*
X127985000Y-87569000D02*
X125985000Y-87569000D01*
X125985000Y-89619000D02*
X127985000Y-89619000D01*
D13*
X132459000Y-89083000D02*
X132459000Y-79483000D01*
X137259000Y-89083000D02*
X137259000Y-79483000D01*
X132459000Y-89083000D02*
X137259000Y-89083000D01*
D12*
X128000000Y-105975000D02*
X126000000Y-105975000D01*
X126000000Y-108025000D02*
X128000000Y-108025000D01*
D13*
X132973000Y-104609000D02*
X142573000Y-104609000D01*
X132973000Y-109409000D02*
X142573000Y-109409000D01*
X132973000Y-104609000D02*
X132973000Y-109409000D01*
X177730000Y-119870000D02*
X177730000Y-128170000D01*
X174030000Y-119870000D02*
X174030000Y-128170000D01*
X177730000Y-119870000D02*
X174030000Y-119870000D01*
D12*
X126000000Y-127025000D02*
X128000000Y-127025000D01*
X128000000Y-124975000D02*
X126000000Y-124975000D01*
X196209000Y-82736000D02*
X196209000Y-80736000D01*
X194159000Y-80736000D02*
X194159000Y-82736000D01*
X164205000Y-82736000D02*
X164205000Y-80736000D01*
X162155000Y-80736000D02*
X162155000Y-82736000D01*
X159633000Y-87308000D02*
X159633000Y-85308000D01*
X157583000Y-85308000D02*
X157583000Y-87308000D01*
D13*
X163438000Y-90652000D02*
X179178000Y-90652000D01*
X179178000Y-90652000D02*
X179178000Y-100252000D01*
X179178000Y-100252000D02*
X163438000Y-100252000D01*
X163438000Y-100252000D02*
X163438000Y-90652000D01*
X151980000Y-102678000D02*
X151980000Y-96978000D01*
X151980000Y-96978000D02*
X148980000Y-96978000D01*
X148980000Y-96978000D02*
X148980000Y-102678000D01*
D12*
X174199000Y-155686000D02*
X174199000Y-155886000D01*
X174199000Y-158280000D02*
X174199000Y-158100000D01*
X170971256Y-157969643D02*
G75*
G03X174199000Y-158286000I1727744J1003643D01*
G01*
X171646994Y-158099068D02*
G75*
G03X173750000Y-158100000I1052006J1133068D01*
G01*
X174186220Y-155659274D02*
G75*
G03X170949000Y-156006000I-1497220J-1306726D01*
G01*
X173712889Y-155886747D02*
G75*
G03X171665000Y-155906000I-1013889J-1079253D01*
G01*
X189199000Y-155686000D02*
X189199000Y-155886000D01*
X189199000Y-158280000D02*
X189199000Y-158100000D01*
X185971256Y-157969643D02*
G75*
G03X189199000Y-158286000I1727744J1003643D01*
G01*
X186646994Y-158099068D02*
G75*
G03X188750000Y-158100000I1052006J1133068D01*
G01*
X189186220Y-155659274D02*
G75*
G03X185949000Y-156006000I-1497220J-1306726D01*
G01*
X188712889Y-155886747D02*
G75*
G03X186665000Y-155906000I-1013889J-1079253D01*
G01*
X204199000Y-155686000D02*
X204199000Y-155886000D01*
X204199000Y-158280000D02*
X204199000Y-158100000D01*
X200971256Y-157969643D02*
G75*
G03X204199000Y-158286000I1727744J1003643D01*
G01*
X201646994Y-158099068D02*
G75*
G03X203750000Y-158100000I1052006J1133068D01*
G01*
X204186220Y-155659274D02*
G75*
G03X200949000Y-156006000I-1497220J-1306726D01*
G01*
X203712889Y-155886747D02*
G75*
G03X201665000Y-155906000I-1013889J-1079253D01*
G01*
D13*
X174126000Y-79590000D02*
X174126000Y-85290000D01*
X174126000Y-85290000D02*
X177126000Y-85290000D01*
X177126000Y-85290000D02*
X177126000Y-79590000D01*
D12*
X126604000Y-81859000D02*
X126154000Y-81309000D01*
X126154000Y-81309000D02*
X127054000Y-81309000D01*
X127054000Y-81309000D02*
X126604000Y-81859000D01*
X126054000Y-81859000D02*
X127154000Y-81859000D01*
X128354060Y-83408140D02*
X128003540Y-83408140D01*
X124853940Y-83408140D02*
X125204460Y-83408140D01*
X128354060Y-79358560D02*
X128003540Y-79358560D01*
X128354060Y-83859440D02*
X128003540Y-83859440D01*
X124853940Y-83859440D02*
X125204460Y-83859440D01*
X124853940Y-79358560D02*
X125204460Y-79358560D01*
X128354060Y-83859440D02*
X128354060Y-79358560D01*
X124853940Y-83859440D02*
X124853940Y-79358560D01*
D13*
X143424000Y-79071000D02*
X142494000Y-79071000D01*
X140264000Y-79071000D02*
X141194000Y-79071000D01*
X140264000Y-79071000D02*
X140264000Y-82231000D01*
X143424000Y-79071000D02*
X143424000Y-80531000D01*
D12*
X180000000Y-62000000D02*
X180000000Y-58500000D01*
X180000000Y-58500000D02*
X186000000Y-58500000D01*
X186000000Y-58500000D02*
X186000000Y-62000000D01*
X177500000Y-76100000D02*
X189000000Y-76100000D01*
X189000000Y-76100000D02*
X189000000Y-62000000D01*
X189000000Y-62000000D02*
X177500000Y-62000000D01*
X177500000Y-62000000D02*
X177500000Y-76100000D01*
D13*
X130270000Y-153390000D02*
X168490000Y-153390000D01*
X168490000Y-153390000D02*
X168490000Y-148070000D01*
X168490000Y-148070000D02*
X127610000Y-148070000D01*
X127610000Y-148070000D02*
X127610000Y-150730000D01*
X127610000Y-150730000D02*
X130270000Y-150730000D01*
X130270000Y-150730000D02*
X130270000Y-153390000D01*
X129000000Y-153390000D02*
X127610000Y-153390000D01*
X127610000Y-153390000D02*
X127610000Y-152000000D01*
D12*
X164000000Y-62000000D02*
X164000000Y-58500000D01*
X164000000Y-58500000D02*
X170000000Y-58500000D01*
X170000000Y-58500000D02*
X170000000Y-62000000D01*
X161500000Y-76100000D02*
X173000000Y-76100000D01*
X173000000Y-76100000D02*
X173000000Y-62000000D01*
X173000000Y-62000000D02*
X161500000Y-62000000D01*
X161500000Y-62000000D02*
X161500000Y-76100000D01*
X196000000Y-62000000D02*
X196000000Y-58500000D01*
X196000000Y-58500000D02*
X202000000Y-58500000D01*
X202000000Y-58500000D02*
X202000000Y-62000000D01*
X193500000Y-76100000D02*
X205000000Y-76100000D01*
X205000000Y-76100000D02*
X205000000Y-62000000D01*
X205000000Y-62000000D02*
X193500000Y-62000000D01*
X193500000Y-62000000D02*
X193500000Y-76100000D01*
D13*
X169410000Y-115518000D02*
X169410000Y-128338000D01*
X169410000Y-128338000D02*
X172190000Y-128338000D01*
X172190000Y-128338000D02*
X172190000Y-115518000D01*
X172190000Y-115518000D02*
X169410000Y-115518000D01*
X169410000Y-114248000D02*
X169410000Y-112858000D01*
X169410000Y-112858000D02*
X170800000Y-112858000D01*
X181610000Y-81270000D02*
X181610000Y-83930000D01*
X181610000Y-83930000D02*
X184390000Y-83930000D01*
X184390000Y-83930000D02*
X184390000Y-81270000D01*
X184390000Y-81270000D02*
X181610000Y-81270000D01*
X181610000Y-80000000D02*
X181610000Y-78610000D01*
X181610000Y-78610000D02*
X183000000Y-78610000D01*
X197610000Y-81270000D02*
X197610000Y-83930000D01*
X197610000Y-83930000D02*
X200390000Y-83930000D01*
X200390000Y-83930000D02*
X200390000Y-81270000D01*
X200390000Y-81270000D02*
X197610000Y-81270000D01*
X197610000Y-80000000D02*
X197610000Y-78610000D01*
X197610000Y-78610000D02*
X199000000Y-78610000D01*
X165610000Y-81270000D02*
X165610000Y-83930000D01*
X165610000Y-83930000D02*
X168390000Y-83930000D01*
X168390000Y-83930000D02*
X168390000Y-81270000D01*
X168390000Y-81270000D02*
X165610000Y-81270000D01*
X165610000Y-80000000D02*
X165610000Y-78610000D01*
X165610000Y-78610000D02*
X167000000Y-78610000D01*
D12*
X125000000Y-74200000D02*
X157000000Y-74200000D01*
X157000000Y-74200000D02*
X157000000Y-62060000D01*
X157000000Y-62060000D02*
X125000000Y-62060000D01*
X125000000Y-62060000D02*
X125000000Y-74200000D01*
X132050000Y-62060000D02*
X132050000Y-55560000D01*
X132050000Y-55560000D02*
X149950000Y-55560000D01*
X149950000Y-55560000D02*
X149950000Y-62060000D01*
D13*
X157590000Y-101604000D02*
X157590000Y-100674000D01*
X157590000Y-98444000D02*
X157590000Y-99374000D01*
X157590000Y-98444000D02*
X155430000Y-98444000D01*
X157590000Y-101604000D02*
X156130000Y-101604000D01*
X200535000Y-113863000D02*
X200535000Y-114793000D01*
X200535000Y-117023000D02*
X200535000Y-116093000D01*
X200535000Y-117023000D02*
X202695000Y-117023000D01*
X200535000Y-113863000D02*
X201995000Y-113863000D01*
X188978000Y-84018000D02*
X188978000Y-84948000D01*
X188978000Y-87178000D02*
X188978000Y-86248000D01*
X188978000Y-87178000D02*
X191138000Y-87178000D01*
X188978000Y-84018000D02*
X190438000Y-84018000D01*
X197233000Y-93416000D02*
X197233000Y-94346000D01*
X197233000Y-96576000D02*
X197233000Y-95646000D01*
X197233000Y-96576000D02*
X199393000Y-96576000D01*
X197233000Y-93416000D02*
X198693000Y-93416000D01*
X196540000Y-109853000D02*
X197470000Y-109853000D01*
X199700000Y-109853000D02*
X198770000Y-109853000D01*
X199700000Y-109853000D02*
X199700000Y-107693000D01*
X196540000Y-109853000D02*
X196540000Y-108393000D01*
X163393000Y-88771000D02*
X164323000Y-88771000D01*
X166553000Y-88771000D02*
X165623000Y-88771000D01*
X166553000Y-88771000D02*
X166553000Y-86611000D01*
X163393000Y-88771000D02*
X163393000Y-87311000D01*
X198049000Y-116207000D02*
X197119000Y-116207000D01*
X194889000Y-116207000D02*
X195819000Y-116207000D01*
X194889000Y-116207000D02*
X194889000Y-118367000D01*
X198049000Y-116207000D02*
X198049000Y-117667000D01*
X192715000Y-102745000D02*
X191785000Y-102745000D01*
X189555000Y-102745000D02*
X190485000Y-102745000D01*
X189555000Y-102745000D02*
X189555000Y-104905000D01*
X192715000Y-102745000D02*
X192715000Y-104205000D01*
X193731000Y-97411000D02*
X192801000Y-97411000D01*
X190571000Y-97411000D02*
X191501000Y-97411000D01*
X190571000Y-97411000D02*
X190571000Y-99571000D01*
X193731000Y-97411000D02*
X193731000Y-98871000D01*
D12*
X157068000Y-107957000D02*
X155068000Y-107957000D01*
X155068000Y-105807000D02*
X157068000Y-105807000D01*
X127925000Y-144364000D02*
X127925000Y-142364000D01*
X130075000Y-142364000D02*
X130075000Y-144364000D01*
X130465000Y-137506000D02*
X130465000Y-135506000D01*
X132615000Y-135506000D02*
X132615000Y-137506000D01*
X133005000Y-144364000D02*
X133005000Y-142364000D01*
X135155000Y-142364000D02*
X135155000Y-144364000D01*
X135545000Y-137506000D02*
X135545000Y-135506000D01*
X137695000Y-135506000D02*
X137695000Y-137506000D01*
X160445000Y-76672000D02*
X160445000Y-78672000D01*
X158295000Y-78672000D02*
X158295000Y-76672000D01*
X138085000Y-144364000D02*
X138085000Y-142364000D01*
X140235000Y-142364000D02*
X140235000Y-144364000D01*
X140625000Y-137506000D02*
X140625000Y-135506000D01*
X142775000Y-135506000D02*
X142775000Y-137506000D01*
X143165000Y-144364000D02*
X143165000Y-142364000D01*
X145315000Y-142364000D02*
X145315000Y-144364000D01*
X145705000Y-137506000D02*
X145705000Y-135506000D01*
X147855000Y-135506000D02*
X147855000Y-137506000D01*
X148245000Y-144364000D02*
X148245000Y-142364000D01*
X150395000Y-142364000D02*
X150395000Y-144364000D01*
X150785000Y-137506000D02*
X150785000Y-135506000D01*
X152935000Y-135506000D02*
X152935000Y-137506000D01*
X153325000Y-144364000D02*
X153325000Y-142364000D01*
X155475000Y-142364000D02*
X155475000Y-144364000D01*
X155865000Y-137506000D02*
X155865000Y-135506000D01*
X158015000Y-135506000D02*
X158015000Y-137506000D01*
X158405000Y-144364000D02*
X158405000Y-142364000D01*
X160555000Y-142364000D02*
X160555000Y-144364000D01*
X191702000Y-122317000D02*
X191702000Y-124317000D01*
X189552000Y-124317000D02*
X189552000Y-122317000D01*
X160945000Y-137506000D02*
X160945000Y-135506000D01*
X163095000Y-135506000D02*
X163095000Y-137506000D01*
X163485000Y-144364000D02*
X163485000Y-142364000D01*
X165635000Y-142364000D02*
X165635000Y-144364000D01*
X199957000Y-122317000D02*
X199957000Y-124317000D01*
X197807000Y-124317000D02*
X197807000Y-122317000D01*
X166025000Y-137506000D02*
X166025000Y-135506000D01*
X168175000Y-135506000D02*
X168175000Y-137506000D01*
X180281000Y-132064000D02*
X180281000Y-130064000D01*
X182431000Y-130064000D02*
X182431000Y-132064000D01*
X183837000Y-132064000D02*
X183837000Y-130064000D01*
X185987000Y-130064000D02*
X185987000Y-132064000D01*
X187393000Y-132064000D02*
X187393000Y-130064000D01*
X189543000Y-130064000D02*
X189543000Y-132064000D01*
X180182000Y-89415000D02*
X178182000Y-89415000D01*
X178182000Y-87265000D02*
X180182000Y-87265000D01*
X195437000Y-90991000D02*
X193437000Y-90991000D01*
X193437000Y-88841000D02*
X195437000Y-88841000D01*
X183701000Y-94885000D02*
X183701000Y-96885000D01*
X181551000Y-96885000D02*
X181551000Y-94885000D01*
X195639000Y-122317000D02*
X195639000Y-124317000D01*
X193489000Y-124317000D02*
X193489000Y-122317000D01*
X201565000Y-97731000D02*
X203565000Y-97731000D01*
X203565000Y-99881000D02*
X201565000Y-99881000D01*
X196156000Y-103870000D02*
X196156000Y-101870000D01*
X198306000Y-101870000D02*
X198306000Y-103870000D01*
X172398000Y-81169000D02*
X172398000Y-83169000D01*
X170248000Y-83169000D02*
X170248000Y-81169000D01*
X188781000Y-93996000D02*
X188781000Y-95996000D01*
X186631000Y-95996000D02*
X186631000Y-93996000D01*
X191829000Y-109236000D02*
X191829000Y-111236000D01*
X189679000Y-111236000D02*
X189679000Y-109236000D01*
X170704000Y-87317000D02*
X172704000Y-87317000D01*
X172704000Y-89467000D02*
X170704000Y-89467000D01*
X195131000Y-109236000D02*
X195131000Y-111236000D01*
X192981000Y-111236000D02*
X192981000Y-109236000D01*
X152193000Y-114120000D02*
X152193000Y-114395000D01*
X159943000Y-114120000D02*
X159943000Y-114485000D01*
X159943000Y-129870000D02*
X159943000Y-129505000D01*
X152193000Y-129870000D02*
X152193000Y-129505000D01*
X152193000Y-114120000D02*
X159943000Y-114120000D01*
X152193000Y-129870000D02*
X159943000Y-129870000D01*
X152193000Y-114395000D02*
X150368000Y-114395000D01*
X185093000Y-108083000D02*
X184868000Y-108083000D01*
X185093000Y-115333000D02*
X184768000Y-115333000D01*
X177843000Y-115333000D02*
X178168000Y-115333000D01*
X177843000Y-108083000D02*
X178168000Y-108083000D01*
X185093000Y-108083000D02*
X185093000Y-108408000D01*
X177843000Y-108083000D02*
X177843000Y-108408000D01*
X177843000Y-115333000D02*
X177843000Y-115008000D01*
X185093000Y-115333000D02*
X185093000Y-115008000D01*
X184868000Y-108083000D02*
X184868000Y-106658000D01*
D13*
X128690000Y-92420000D02*
X128690000Y-102660000D01*
X144580000Y-92420000D02*
X144580000Y-102660000D01*
X144580000Y-92420000D02*
X128690000Y-92420000D01*
X144580000Y-102660000D02*
X128690000Y-102660000D01*
X128690000Y-95000000D02*
X126050000Y-95000000D01*
X128690000Y-97540000D02*
X126066000Y-97540000D01*
X128690000Y-100080000D02*
X126066000Y-100080000D01*
D12*
X128339000Y-122042000D02*
X128339000Y-120792000D01*
X128339000Y-122042000D02*
X129839000Y-122042000D01*
X128339000Y-112042000D02*
X129839000Y-112042000D01*
X128339000Y-112042000D02*
X128339000Y-113292000D01*
X154333000Y-90915000D02*
X154333000Y-90865000D01*
X150183000Y-90915000D02*
X150183000Y-90770000D01*
X150183000Y-85765000D02*
X150183000Y-85910000D01*
X154333000Y-85765000D02*
X154333000Y-85910000D01*
X154333000Y-90915000D02*
X150183000Y-90915000D01*
X154333000Y-85765000D02*
X150183000Y-85765000D01*
X154333000Y-90865000D02*
X155733000Y-90865000D01*
X166720760Y-113867000D02*
X166319440Y-114067660D01*
X166319440Y-114067660D02*
X165720000Y-114169260D01*
X165720000Y-114169260D02*
X165219620Y-114067660D01*
X165219620Y-114067660D02*
X164521120Y-113668880D01*
X164521120Y-113668880D02*
X164119800Y-113066900D01*
X164119800Y-113066900D02*
X163919140Y-112467460D01*
X163919140Y-112467460D02*
X163919140Y-105868540D01*
X163919140Y-105868540D02*
X164119800Y-105167500D01*
X164119800Y-105167500D02*
X164419520Y-104768720D01*
X164419520Y-104768720D02*
X164919900Y-104367400D01*
X164919900Y-104367400D02*
X165519340Y-104166740D01*
X165519340Y-104166740D02*
X166019720Y-104166740D01*
X166019720Y-104166740D02*
X166520100Y-104367400D01*
X166520100Y-104367400D02*
X167119540Y-104867780D01*
X167119540Y-104867780D02*
X167419260Y-105368160D01*
X167419260Y-105368160D02*
X167520860Y-105868540D01*
X167520860Y-105967600D02*
X167520860Y-112569060D01*
X167520860Y-112569060D02*
X167419260Y-112967840D01*
X167419260Y-112967840D02*
X167119540Y-113468220D01*
X167119540Y-113468220D02*
X166619160Y-113968600D01*
X168049180Y-105977760D02*
X168000920Y-105518020D01*
X168000920Y-105518020D02*
X167889160Y-105119240D01*
X167889160Y-105119240D02*
X167670720Y-104687440D01*
X167670720Y-104687440D02*
X167439580Y-104397880D01*
X167439580Y-104397880D02*
X167089060Y-104067680D01*
X167089060Y-104067680D02*
X166550580Y-103778120D01*
X166550580Y-103778120D02*
X165951140Y-103648580D01*
X165951140Y-103648580D02*
X165440600Y-103648580D01*
X165440600Y-103648580D02*
X164739560Y-103818760D01*
X164739560Y-103818760D02*
X164150280Y-104217540D01*
X164150280Y-104217540D02*
X163779440Y-104677280D01*
X163779440Y-104677280D02*
X163571160Y-105098920D01*
X163571160Y-105098920D02*
X163411140Y-105548500D01*
X163411140Y-105548500D02*
X163380660Y-105987920D01*
X163599100Y-113328520D02*
X163820080Y-113706980D01*
X163820080Y-113706980D02*
X164099480Y-114027020D01*
X164099480Y-114027020D02*
X164429680Y-114278480D01*
X164429680Y-114278480D02*
X164980860Y-114578200D01*
X164980860Y-114578200D02*
X165450760Y-114687420D01*
X165450760Y-114687420D02*
X165910500Y-114707740D01*
X165910500Y-114707740D02*
X166370240Y-114618840D01*
X166370240Y-114618840D02*
X166819820Y-114428340D01*
X166819820Y-114428340D02*
X167289720Y-114067660D01*
X167289720Y-114067660D02*
X167609760Y-113717140D01*
X167609760Y-113717140D02*
X167840900Y-113328520D01*
X167840900Y-113328520D02*
X167980600Y-112899260D01*
X167980600Y-112899260D02*
X168049180Y-112457300D01*
X163390820Y-105967600D02*
X163390820Y-112419200D01*
X163390820Y-112419200D02*
X163428920Y-112838300D01*
X163428920Y-112838300D02*
X163599100Y-113328520D01*
X168049180Y-105967600D02*
X168049180Y-112419200D01*
X182896000Y-105546000D02*
X184896000Y-105546000D01*
X184896000Y-103496000D02*
X182896000Y-103496000D01*
X157171334Y-109765143D02*
X157123715Y-109812762D01*
X156980858Y-109860381D01*
X156885620Y-109860381D01*
X156742762Y-109812762D01*
X156647524Y-109717524D01*
X156599905Y-109622286D01*
X156552286Y-109431810D01*
X156552286Y-109288952D01*
X156599905Y-109098476D01*
X156647524Y-109003238D01*
X156742762Y-108908000D01*
X156885620Y-108860381D01*
X156980858Y-108860381D01*
X157123715Y-108908000D01*
X157171334Y-108955619D01*
X157552286Y-108955619D02*
X157599905Y-108908000D01*
X157695143Y-108860381D01*
X157933239Y-108860381D01*
X158028477Y-108908000D01*
X158076096Y-108955619D01*
X158123715Y-109050857D01*
X158123715Y-109146095D01*
X158076096Y-109288952D01*
X157504667Y-109860381D01*
X158123715Y-109860381D01*
X151837334Y-82615143D02*
X151789715Y-82662762D01*
X151646858Y-82710381D01*
X151551620Y-82710381D01*
X151408762Y-82662762D01*
X151313524Y-82567524D01*
X151265905Y-82472286D01*
X151218286Y-82281810D01*
X151218286Y-82138952D01*
X151265905Y-81948476D01*
X151313524Y-81853238D01*
X151408762Y-81758000D01*
X151551620Y-81710381D01*
X151646858Y-81710381D01*
X151789715Y-81758000D01*
X151837334Y-81805619D01*
X152170667Y-81710381D02*
X152789715Y-81710381D01*
X152456381Y-82091333D01*
X152599239Y-82091333D01*
X152694477Y-82138952D01*
X152742096Y-82186571D01*
X152789715Y-82281810D01*
X152789715Y-82519905D01*
X152742096Y-82615143D01*
X152694477Y-82662762D01*
X152599239Y-82710381D01*
X152313524Y-82710381D01*
X152218286Y-82662762D01*
X152170667Y-82615143D01*
X182855143Y-121526666D02*
X182902762Y-121574285D01*
X182950381Y-121717142D01*
X182950381Y-121812380D01*
X182902762Y-121955238D01*
X182807524Y-122050476D01*
X182712286Y-122098095D01*
X182521810Y-122145714D01*
X182378952Y-122145714D01*
X182188476Y-122098095D01*
X182093238Y-122050476D01*
X181998000Y-121955238D01*
X181950381Y-121812380D01*
X181950381Y-121717142D01*
X181998000Y-121574285D01*
X182045619Y-121526666D01*
X182283714Y-120669523D02*
X182950381Y-120669523D01*
X181902762Y-120907619D02*
X182617048Y-121145714D01*
X182617048Y-120526666D01*
X201509334Y-89652143D02*
X201461715Y-89699762D01*
X201318858Y-89747381D01*
X201223620Y-89747381D01*
X201080762Y-89699762D01*
X200985524Y-89604524D01*
X200937905Y-89509286D01*
X200890286Y-89318810D01*
X200890286Y-89175952D01*
X200937905Y-88985476D01*
X200985524Y-88890238D01*
X201080762Y-88795000D01*
X201223620Y-88747381D01*
X201318858Y-88747381D01*
X201461715Y-88795000D01*
X201509334Y-88842619D01*
X202414096Y-88747381D02*
X201937905Y-88747381D01*
X201890286Y-89223571D01*
X201937905Y-89175952D01*
X202033143Y-89128333D01*
X202271239Y-89128333D01*
X202366477Y-89175952D01*
X202414096Y-89223571D01*
X202461715Y-89318810D01*
X202461715Y-89556905D01*
X202414096Y-89652143D01*
X202366477Y-89699762D01*
X202271239Y-89747381D01*
X202033143Y-89747381D01*
X201937905Y-89699762D01*
X201890286Y-89652143D01*
X187412334Y-79033643D02*
X187364715Y-79081262D01*
X187221858Y-79128881D01*
X187126620Y-79128881D01*
X186983762Y-79081262D01*
X186888524Y-78986024D01*
X186840905Y-78890786D01*
X186793286Y-78700310D01*
X186793286Y-78557452D01*
X186840905Y-78366976D01*
X186888524Y-78271738D01*
X186983762Y-78176500D01*
X187126620Y-78128881D01*
X187221858Y-78128881D01*
X187364715Y-78176500D01*
X187412334Y-78224119D01*
X188269477Y-78128881D02*
X188079000Y-78128881D01*
X187983762Y-78176500D01*
X187936143Y-78224119D01*
X187840905Y-78366976D01*
X187793286Y-78557452D01*
X187793286Y-78938405D01*
X187840905Y-79033643D01*
X187888524Y-79081262D01*
X187983762Y-79128881D01*
X188174239Y-79128881D01*
X188269477Y-79081262D01*
X188317096Y-79033643D01*
X188364715Y-78938405D01*
X188364715Y-78700310D01*
X188317096Y-78605071D01*
X188269477Y-78557452D01*
X188174239Y-78509833D01*
X187983762Y-78509833D01*
X187888524Y-78557452D01*
X187840905Y-78605071D01*
X187793286Y-78700310D01*
X178538143Y-77636666D02*
X178585762Y-77684285D01*
X178633381Y-77827142D01*
X178633381Y-77922380D01*
X178585762Y-78065238D01*
X178490524Y-78160476D01*
X178395286Y-78208095D01*
X178204810Y-78255714D01*
X178061952Y-78255714D01*
X177871476Y-78208095D01*
X177776238Y-78160476D01*
X177681000Y-78065238D01*
X177633381Y-77922380D01*
X177633381Y-77827142D01*
X177681000Y-77684285D01*
X177728619Y-77636666D01*
X177633381Y-77303333D02*
X177633381Y-76636666D01*
X178633381Y-77065238D01*
X175997143Y-106286666D02*
X176044762Y-106334285D01*
X176092381Y-106477142D01*
X176092381Y-106572380D01*
X176044762Y-106715238D01*
X175949524Y-106810476D01*
X175854286Y-106858095D01*
X175663810Y-106905714D01*
X175520952Y-106905714D01*
X175330476Y-106858095D01*
X175235238Y-106810476D01*
X175140000Y-106715238D01*
X175092381Y-106572380D01*
X175092381Y-106477142D01*
X175140000Y-106334285D01*
X175187619Y-106286666D01*
X175520952Y-105715238D02*
X175473333Y-105810476D01*
X175425714Y-105858095D01*
X175330476Y-105905714D01*
X175282857Y-105905714D01*
X175187619Y-105858095D01*
X175140000Y-105810476D01*
X175092381Y-105715238D01*
X175092381Y-105524761D01*
X175140000Y-105429523D01*
X175187619Y-105381904D01*
X175282857Y-105334285D01*
X175330476Y-105334285D01*
X175425714Y-105381904D01*
X175473333Y-105429523D01*
X175520952Y-105524761D01*
X175520952Y-105715238D01*
X175568571Y-105810476D01*
X175616190Y-105858095D01*
X175711429Y-105905714D01*
X175901905Y-105905714D01*
X175997143Y-105858095D01*
X176044762Y-105810476D01*
X176092381Y-105715238D01*
X176092381Y-105524761D01*
X176044762Y-105429523D01*
X175997143Y-105381904D01*
X175901905Y-105334285D01*
X175711429Y-105334285D01*
X175616190Y-105381904D01*
X175568571Y-105429523D01*
X175520952Y-105524761D01*
X170029143Y-103798666D02*
X170076762Y-103846285D01*
X170124381Y-103989142D01*
X170124381Y-104084380D01*
X170076762Y-104227238D01*
X169981524Y-104322476D01*
X169886286Y-104370095D01*
X169695810Y-104417714D01*
X169552952Y-104417714D01*
X169362476Y-104370095D01*
X169267238Y-104322476D01*
X169172000Y-104227238D01*
X169124381Y-104084380D01*
X169124381Y-103989142D01*
X169172000Y-103846285D01*
X169219619Y-103798666D01*
X170124381Y-103322476D02*
X170124381Y-103132000D01*
X170076762Y-103036761D01*
X170029143Y-102989142D01*
X169886286Y-102893904D01*
X169695810Y-102846285D01*
X169314857Y-102846285D01*
X169219619Y-102893904D01*
X169172000Y-102941523D01*
X169124381Y-103036761D01*
X169124381Y-103227238D01*
X169172000Y-103322476D01*
X169219619Y-103370095D01*
X169314857Y-103417714D01*
X169552952Y-103417714D01*
X169648190Y-103370095D01*
X169695810Y-103322476D01*
X169743429Y-103227238D01*
X169743429Y-103036761D01*
X169695810Y-102941523D01*
X169648190Y-102893904D01*
X169552952Y-102846285D01*
X129532143Y-90971643D02*
X129484524Y-91019262D01*
X129341667Y-91066881D01*
X129246429Y-91066881D01*
X129103571Y-91019262D01*
X129008333Y-90924024D01*
X128960714Y-90828786D01*
X128913095Y-90638310D01*
X128913095Y-90495452D01*
X128960714Y-90304976D01*
X129008333Y-90209738D01*
X129103571Y-90114500D01*
X129246429Y-90066881D01*
X129341667Y-90066881D01*
X129484524Y-90114500D01*
X129532143Y-90162119D01*
X130484524Y-91066881D02*
X129913095Y-91066881D01*
X130198809Y-91066881D02*
X130198809Y-90066881D01*
X130103571Y-90209738D01*
X130008333Y-90304976D01*
X129913095Y-90352595D01*
X131103571Y-90066881D02*
X131198810Y-90066881D01*
X131294048Y-90114500D01*
X131341667Y-90162119D01*
X131389286Y-90257357D01*
X131436905Y-90447833D01*
X131436905Y-90685929D01*
X131389286Y-90876405D01*
X131341667Y-90971643D01*
X131294048Y-91019262D01*
X131198810Y-91066881D01*
X131103571Y-91066881D01*
X131008333Y-91019262D01*
X130960714Y-90971643D01*
X130913095Y-90876405D01*
X130865476Y-90685929D01*
X130865476Y-90447833D01*
X130913095Y-90257357D01*
X130960714Y-90162119D01*
X131008333Y-90114500D01*
X131103571Y-90066881D01*
X131316143Y-83775857D02*
X131363762Y-83823476D01*
X131411381Y-83966333D01*
X131411381Y-84061571D01*
X131363762Y-84204429D01*
X131268524Y-84299667D01*
X131173286Y-84347286D01*
X130982810Y-84394905D01*
X130839952Y-84394905D01*
X130649476Y-84347286D01*
X130554238Y-84299667D01*
X130459000Y-84204429D01*
X130411381Y-84061571D01*
X130411381Y-83966333D01*
X130459000Y-83823476D01*
X130506619Y-83775857D01*
X131411381Y-82823476D02*
X131411381Y-83394905D01*
X131411381Y-83109191D02*
X130411381Y-83109191D01*
X130554238Y-83204429D01*
X130649476Y-83299667D01*
X130697095Y-83394905D01*
X131411381Y-81871095D02*
X131411381Y-82442524D01*
X131411381Y-82156810D02*
X130411381Y-82156810D01*
X130554238Y-82252048D01*
X130649476Y-82347286D01*
X130697095Y-82442524D01*
X126357143Y-105057143D02*
X126309524Y-105104762D01*
X126166667Y-105152381D01*
X126071429Y-105152381D01*
X125928571Y-105104762D01*
X125833333Y-105009524D01*
X125785714Y-104914286D01*
X125738095Y-104723810D01*
X125738095Y-104580952D01*
X125785714Y-104390476D01*
X125833333Y-104295238D01*
X125928571Y-104200000D01*
X126071429Y-104152381D01*
X126166667Y-104152381D01*
X126309524Y-104200000D01*
X126357143Y-104247619D01*
X127309524Y-105152381D02*
X126738095Y-105152381D01*
X127023809Y-105152381D02*
X127023809Y-104152381D01*
X126928571Y-104295238D01*
X126833333Y-104390476D01*
X126738095Y-104438095D01*
X127690476Y-104247619D02*
X127738095Y-104200000D01*
X127833333Y-104152381D01*
X128071429Y-104152381D01*
X128166667Y-104200000D01*
X128214286Y-104247619D01*
X128261905Y-104342857D01*
X128261905Y-104438095D01*
X128214286Y-104580952D01*
X127642857Y-105152381D01*
X128261905Y-105152381D01*
X146042143Y-107608643D02*
X145994524Y-107656262D01*
X145851667Y-107703881D01*
X145756429Y-107703881D01*
X145613571Y-107656262D01*
X145518333Y-107561024D01*
X145470714Y-107465786D01*
X145423095Y-107275310D01*
X145423095Y-107132452D01*
X145470714Y-106941976D01*
X145518333Y-106846738D01*
X145613571Y-106751500D01*
X145756429Y-106703881D01*
X145851667Y-106703881D01*
X145994524Y-106751500D01*
X146042143Y-106799119D01*
X146994524Y-107703881D02*
X146423095Y-107703881D01*
X146708809Y-107703881D02*
X146708809Y-106703881D01*
X146613571Y-106846738D01*
X146518333Y-106941976D01*
X146423095Y-106989595D01*
X147327857Y-106703881D02*
X147946905Y-106703881D01*
X147613571Y-107084833D01*
X147756429Y-107084833D01*
X147851667Y-107132452D01*
X147899286Y-107180071D01*
X147946905Y-107275310D01*
X147946905Y-107513405D01*
X147899286Y-107608643D01*
X147851667Y-107656262D01*
X147756429Y-107703881D01*
X147470714Y-107703881D01*
X147375476Y-107656262D01*
X147327857Y-107608643D01*
X176379143Y-132722857D02*
X176426762Y-132770476D01*
X176474381Y-132913333D01*
X176474381Y-133008571D01*
X176426762Y-133151429D01*
X176331524Y-133246667D01*
X176236286Y-133294286D01*
X176045810Y-133341905D01*
X175902952Y-133341905D01*
X175712476Y-133294286D01*
X175617238Y-133246667D01*
X175522000Y-133151429D01*
X175474381Y-133008571D01*
X175474381Y-132913333D01*
X175522000Y-132770476D01*
X175569619Y-132722857D01*
X176474381Y-131770476D02*
X176474381Y-132341905D01*
X176474381Y-132056191D02*
X175474381Y-132056191D01*
X175617238Y-132151429D01*
X175712476Y-132246667D01*
X175760095Y-132341905D01*
X175807714Y-130913333D02*
X176474381Y-130913333D01*
X175426762Y-131151429D02*
X176141048Y-131389524D01*
X176141048Y-130770476D01*
X126357143Y-128657143D02*
X126309524Y-128704762D01*
X126166667Y-128752381D01*
X126071429Y-128752381D01*
X125928571Y-128704762D01*
X125833333Y-128609524D01*
X125785714Y-128514286D01*
X125738095Y-128323810D01*
X125738095Y-128180952D01*
X125785714Y-127990476D01*
X125833333Y-127895238D01*
X125928571Y-127800000D01*
X126071429Y-127752381D01*
X126166667Y-127752381D01*
X126309524Y-127800000D01*
X126357143Y-127847619D01*
X127309524Y-128752381D02*
X126738095Y-128752381D01*
X127023809Y-128752381D02*
X127023809Y-127752381D01*
X126928571Y-127895238D01*
X126833333Y-127990476D01*
X126738095Y-128038095D01*
X128214286Y-127752381D02*
X127738095Y-127752381D01*
X127690476Y-128228571D01*
X127738095Y-128180952D01*
X127833333Y-128133333D01*
X128071429Y-128133333D01*
X128166667Y-128180952D01*
X128214286Y-128228571D01*
X128261905Y-128323810D01*
X128261905Y-128561905D01*
X128214286Y-128657143D01*
X128166667Y-128704762D01*
X128071429Y-128752381D01*
X127833333Y-128752381D01*
X127738095Y-128704762D01*
X127690476Y-128657143D01*
X197334143Y-86494857D02*
X197381762Y-86542476D01*
X197429381Y-86685333D01*
X197429381Y-86780571D01*
X197381762Y-86923429D01*
X197286524Y-87018667D01*
X197191286Y-87066286D01*
X197000810Y-87113905D01*
X196857952Y-87113905D01*
X196667476Y-87066286D01*
X196572238Y-87018667D01*
X196477000Y-86923429D01*
X196429381Y-86780571D01*
X196429381Y-86685333D01*
X196477000Y-86542476D01*
X196524619Y-86494857D01*
X197429381Y-85542476D02*
X197429381Y-86113905D01*
X197429381Y-85828191D02*
X196429381Y-85828191D01*
X196572238Y-85923429D01*
X196667476Y-86018667D01*
X196715095Y-86113905D01*
X196429381Y-84685333D02*
X196429381Y-84875810D01*
X196477000Y-84971048D01*
X196524619Y-85018667D01*
X196667476Y-85113905D01*
X196857952Y-85161524D01*
X197238905Y-85161524D01*
X197334143Y-85113905D01*
X197381762Y-85066286D01*
X197429381Y-84971048D01*
X197429381Y-84780571D01*
X197381762Y-84685333D01*
X197334143Y-84637714D01*
X197238905Y-84590095D01*
X197000810Y-84590095D01*
X196905571Y-84637714D01*
X196857952Y-84685333D01*
X196810333Y-84780571D01*
X196810333Y-84971048D01*
X196857952Y-85066286D01*
X196905571Y-85113905D01*
X197000810Y-85161524D01*
X161647143Y-83192857D02*
X161694762Y-83240476D01*
X161742381Y-83383333D01*
X161742381Y-83478571D01*
X161694762Y-83621429D01*
X161599524Y-83716667D01*
X161504286Y-83764286D01*
X161313810Y-83811905D01*
X161170952Y-83811905D01*
X160980476Y-83764286D01*
X160885238Y-83716667D01*
X160790000Y-83621429D01*
X160742381Y-83478571D01*
X160742381Y-83383333D01*
X160790000Y-83240476D01*
X160837619Y-83192857D01*
X161742381Y-82240476D02*
X161742381Y-82811905D01*
X161742381Y-82526191D02*
X160742381Y-82526191D01*
X160885238Y-82621429D01*
X160980476Y-82716667D01*
X161028095Y-82811905D01*
X160742381Y-81907143D02*
X160742381Y-81240476D01*
X161742381Y-81669048D01*
X159361143Y-91828857D02*
X159408762Y-91876476D01*
X159456381Y-92019333D01*
X159456381Y-92114571D01*
X159408762Y-92257429D01*
X159313524Y-92352667D01*
X159218286Y-92400286D01*
X159027810Y-92447905D01*
X158884952Y-92447905D01*
X158694476Y-92400286D01*
X158599238Y-92352667D01*
X158504000Y-92257429D01*
X158456381Y-92114571D01*
X158456381Y-92019333D01*
X158504000Y-91876476D01*
X158551619Y-91828857D01*
X159456381Y-90876476D02*
X159456381Y-91447905D01*
X159456381Y-91162191D02*
X158456381Y-91162191D01*
X158599238Y-91257429D01*
X158694476Y-91352667D01*
X158742095Y-91447905D01*
X158884952Y-90305048D02*
X158837333Y-90400286D01*
X158789714Y-90447905D01*
X158694476Y-90495524D01*
X158646857Y-90495524D01*
X158551619Y-90447905D01*
X158504000Y-90400286D01*
X158456381Y-90305048D01*
X158456381Y-90114571D01*
X158504000Y-90019333D01*
X158551619Y-89971714D01*
X158646857Y-89924095D01*
X158694476Y-89924095D01*
X158789714Y-89971714D01*
X158837333Y-90019333D01*
X158884952Y-90114571D01*
X158884952Y-90305048D01*
X158932571Y-90400286D01*
X158980190Y-90447905D01*
X159075429Y-90495524D01*
X159265905Y-90495524D01*
X159361143Y-90447905D01*
X159408762Y-90400286D01*
X159456381Y-90305048D01*
X159456381Y-90114571D01*
X159408762Y-90019333D01*
X159361143Y-89971714D01*
X159265905Y-89924095D01*
X159075429Y-89924095D01*
X158980190Y-89971714D01*
X158932571Y-90019333D01*
X158884952Y-90114571D01*
X160758310Y-95067381D02*
X160758310Y-94067381D01*
X161186881Y-95019762D02*
X161329738Y-95067381D01*
X161567834Y-95067381D01*
X161663072Y-95019762D01*
X161710691Y-94972143D01*
X161758310Y-94876905D01*
X161758310Y-94781667D01*
X161710691Y-94686429D01*
X161663072Y-94638810D01*
X161567834Y-94591190D01*
X161377357Y-94543571D01*
X161282119Y-94495952D01*
X161234500Y-94448333D01*
X161186881Y-94353095D01*
X161186881Y-94257857D01*
X161234500Y-94162619D01*
X161282119Y-94115000D01*
X161377357Y-94067381D01*
X161615453Y-94067381D01*
X161758310Y-94115000D01*
X162186881Y-95067381D02*
X162186881Y-94067381D01*
X162567834Y-94067381D01*
X162663072Y-94115000D01*
X162710691Y-94162619D01*
X162758310Y-94257857D01*
X162758310Y-94400714D01*
X162710691Y-94495952D01*
X162663072Y-94543571D01*
X162567834Y-94591190D01*
X162186881Y-94591190D01*
D13*
X169073715Y-98894381D02*
X168502286Y-98894381D01*
X168788000Y-98894381D02*
X168788000Y-97894381D01*
X168692762Y-98037238D01*
X168597524Y-98132476D01*
X168502286Y-98180095D01*
D12*
X153472381Y-101016095D02*
X152472381Y-101016095D01*
X152472381Y-100778000D01*
X152520000Y-100635142D01*
X152615238Y-100539904D01*
X152710476Y-100492285D01*
X152900952Y-100444666D01*
X153043810Y-100444666D01*
X153234286Y-100492285D01*
X153329524Y-100539904D01*
X153424762Y-100635142D01*
X153472381Y-100778000D01*
X153472381Y-101016095D01*
X153472381Y-99492285D02*
X153472381Y-100063714D01*
X153472381Y-99778000D02*
X152472381Y-99778000D01*
X152615238Y-99873238D01*
X152710476Y-99968476D01*
X152758095Y-100063714D01*
X171351905Y-154392381D02*
X171351905Y-153392381D01*
X171590000Y-153392381D01*
X171732858Y-153440000D01*
X171828096Y-153535238D01*
X171875715Y-153630476D01*
X171923334Y-153820952D01*
X171923334Y-153963810D01*
X171875715Y-154154286D01*
X171828096Y-154249524D01*
X171732858Y-154344762D01*
X171590000Y-154392381D01*
X171351905Y-154392381D01*
X172304286Y-153487619D02*
X172351905Y-153440000D01*
X172447143Y-153392381D01*
X172685239Y-153392381D01*
X172780477Y-153440000D01*
X172828096Y-153487619D01*
X172875715Y-153582857D01*
X172875715Y-153678095D01*
X172828096Y-153820952D01*
X172256667Y-154392381D01*
X172875715Y-154392381D01*
X170223809Y-160304762D02*
X170366666Y-160352381D01*
X170604762Y-160352381D01*
X170700000Y-160304762D01*
X170747619Y-160257143D01*
X170795238Y-160161905D01*
X170795238Y-160066667D01*
X170747619Y-159971429D01*
X170700000Y-159923810D01*
X170604762Y-159876190D01*
X170414285Y-159828571D01*
X170319047Y-159780952D01*
X170271428Y-159733333D01*
X170223809Y-159638095D01*
X170223809Y-159542857D01*
X170271428Y-159447619D01*
X170319047Y-159400000D01*
X170414285Y-159352381D01*
X170652381Y-159352381D01*
X170795238Y-159400000D01*
X171080952Y-159352381D02*
X171652381Y-159352381D01*
X171366666Y-160352381D02*
X171366666Y-159352381D01*
X171938095Y-160066667D02*
X172414286Y-160066667D01*
X171842857Y-160352381D02*
X172176190Y-159352381D01*
X172509524Y-160352381D01*
X172700000Y-159352381D02*
X173271429Y-159352381D01*
X172985714Y-160352381D02*
X172985714Y-159352381D01*
X173604762Y-159352381D02*
X173604762Y-160161905D01*
X173652381Y-160257143D01*
X173700000Y-160304762D01*
X173795238Y-160352381D01*
X173985715Y-160352381D01*
X174080953Y-160304762D01*
X174128572Y-160257143D01*
X174176191Y-160161905D01*
X174176191Y-159352381D01*
X174604762Y-160304762D02*
X174747619Y-160352381D01*
X174985715Y-160352381D01*
X175080953Y-160304762D01*
X175128572Y-160257143D01*
X175176191Y-160161905D01*
X175176191Y-160066667D01*
X175128572Y-159971429D01*
X175080953Y-159923810D01*
X174985715Y-159876190D01*
X174795238Y-159828571D01*
X174700000Y-159780952D01*
X174652381Y-159733333D01*
X174604762Y-159638095D01*
X174604762Y-159542857D01*
X174652381Y-159447619D01*
X174700000Y-159400000D01*
X174795238Y-159352381D01*
X175033334Y-159352381D01*
X175176191Y-159400000D01*
X175428095Y-155712381D02*
X175428095Y-154712381D01*
X175999524Y-155712381D02*
X175570952Y-155140952D01*
X175999524Y-154712381D02*
X175428095Y-155283810D01*
X186351905Y-154392381D02*
X186351905Y-153392381D01*
X186590000Y-153392381D01*
X186732858Y-153440000D01*
X186828096Y-153535238D01*
X186875715Y-153630476D01*
X186923334Y-153820952D01*
X186923334Y-153963810D01*
X186875715Y-154154286D01*
X186828096Y-154249524D01*
X186732858Y-154344762D01*
X186590000Y-154392381D01*
X186351905Y-154392381D01*
X187256667Y-153392381D02*
X187875715Y-153392381D01*
X187542381Y-153773333D01*
X187685239Y-153773333D01*
X187780477Y-153820952D01*
X187828096Y-153868571D01*
X187875715Y-153963810D01*
X187875715Y-154201905D01*
X187828096Y-154297143D01*
X187780477Y-154344762D01*
X187685239Y-154392381D01*
X187399524Y-154392381D01*
X187304286Y-154344762D01*
X187256667Y-154297143D01*
X186652381Y-160352381D02*
X186652381Y-159352381D01*
X187128571Y-160352381D02*
X187128571Y-159352381D01*
X187700000Y-160352381D01*
X187700000Y-159352381D01*
X188176190Y-160352381D02*
X188176190Y-159352381D01*
X188176190Y-159828571D02*
X188747619Y-159828571D01*
X188747619Y-160352381D02*
X188747619Y-159352381D01*
X190428095Y-155712381D02*
X190428095Y-154712381D01*
X190999524Y-155712381D02*
X190570952Y-155140952D01*
X190999524Y-154712381D02*
X190428095Y-155283810D01*
X201351905Y-154392381D02*
X201351905Y-153392381D01*
X201590000Y-153392381D01*
X201732858Y-153440000D01*
X201828096Y-153535238D01*
X201875715Y-153630476D01*
X201923334Y-153820952D01*
X201923334Y-153963810D01*
X201875715Y-154154286D01*
X201828096Y-154249524D01*
X201732858Y-154344762D01*
X201590000Y-154392381D01*
X201351905Y-154392381D01*
X202780477Y-153725714D02*
X202780477Y-154392381D01*
X202542381Y-153344762D02*
X202304286Y-154059048D01*
X202923334Y-154059048D01*
X201557143Y-160352381D02*
X201557143Y-159352381D01*
X202128572Y-160352381D02*
X201700000Y-159780952D01*
X202128572Y-159352381D02*
X201557143Y-159923810D01*
X202557143Y-159828571D02*
X202890477Y-159828571D01*
X203033334Y-160352381D02*
X202557143Y-160352381D01*
X202557143Y-159352381D01*
X203033334Y-159352381D01*
X203652381Y-159876190D02*
X203652381Y-160352381D01*
X203319048Y-159352381D02*
X203652381Y-159876190D01*
X203985715Y-159352381D01*
X205428095Y-155712381D02*
X205428095Y-154712381D01*
X205999524Y-155712381D02*
X205570952Y-155140952D01*
X205999524Y-154712381D02*
X205428095Y-155283810D01*
X175966381Y-87161595D02*
X174966381Y-87161595D01*
X174966381Y-86923500D01*
X175014000Y-86780642D01*
X175109238Y-86685404D01*
X175204476Y-86637785D01*
X175394952Y-86590166D01*
X175537810Y-86590166D01*
X175728286Y-86637785D01*
X175823524Y-86685404D01*
X175918762Y-86780642D01*
X175966381Y-86923500D01*
X175966381Y-87161595D01*
X174966381Y-85685404D02*
X174966381Y-86161595D01*
X175442571Y-86209214D01*
X175394952Y-86161595D01*
X175347333Y-86066357D01*
X175347333Y-85828261D01*
X175394952Y-85733023D01*
X175442571Y-85685404D01*
X175537810Y-85637785D01*
X175775905Y-85637785D01*
X175871143Y-85685404D01*
X175918762Y-85733023D01*
X175966381Y-85828261D01*
X175966381Y-86066357D01*
X175918762Y-86161595D01*
X175871143Y-86209214D01*
X124206381Y-82347095D02*
X123206381Y-82347095D01*
X123206381Y-82109000D01*
X123254000Y-81966142D01*
X123349238Y-81870904D01*
X123444476Y-81823285D01*
X123634952Y-81775666D01*
X123777810Y-81775666D01*
X123968286Y-81823285D01*
X124063524Y-81870904D01*
X124158762Y-81966142D01*
X124206381Y-82109000D01*
X124206381Y-82347095D01*
X123206381Y-80918523D02*
X123206381Y-81109000D01*
X123254000Y-81204238D01*
X123301619Y-81251857D01*
X123444476Y-81347095D01*
X123634952Y-81394714D01*
X124015905Y-81394714D01*
X124111143Y-81347095D01*
X124158762Y-81299476D01*
X124206381Y-81204238D01*
X124206381Y-81013761D01*
X124158762Y-80918523D01*
X124111143Y-80870904D01*
X124015905Y-80823285D01*
X123777810Y-80823285D01*
X123682571Y-80870904D01*
X123634952Y-80918523D01*
X123587333Y-81013761D01*
X123587333Y-81204238D01*
X123634952Y-81299476D01*
X123682571Y-81347095D01*
X123777810Y-81394714D01*
X129956381Y-85120905D02*
X128956381Y-85120905D01*
X129956381Y-84549476D02*
X129384952Y-84978048D01*
X128956381Y-84549476D02*
X129527810Y-85120905D01*
X129620667Y-78797095D02*
X129620667Y-78320904D01*
X129906381Y-78892333D02*
X128906381Y-78559000D01*
X129906381Y-78225666D01*
X139796381Y-80569095D02*
X138796381Y-80569095D01*
X138796381Y-80331000D01*
X138844000Y-80188142D01*
X138939238Y-80092904D01*
X139034476Y-80045285D01*
X139224952Y-79997666D01*
X139367810Y-79997666D01*
X139558286Y-80045285D01*
X139653524Y-80092904D01*
X139748762Y-80188142D01*
X139796381Y-80331000D01*
X139796381Y-80569095D01*
X138796381Y-79664333D02*
X138796381Y-78997666D01*
X139796381Y-79426238D01*
X175791881Y-64531833D02*
X176506167Y-64531833D01*
X176649024Y-64579453D01*
X176744262Y-64674691D01*
X176791881Y-64817548D01*
X176791881Y-64912786D01*
X176791881Y-63531833D02*
X176791881Y-64103262D01*
X176791881Y-63817548D02*
X175791881Y-63817548D01*
X175934738Y-63912786D01*
X176029976Y-64008024D01*
X176077595Y-64103262D01*
X176442667Y-72834286D02*
X176442667Y-72358095D01*
X176728381Y-72929524D02*
X175728381Y-72596191D01*
X176728381Y-72262857D01*
X176633143Y-71358095D02*
X176680762Y-71405714D01*
X176728381Y-71548571D01*
X176728381Y-71643809D01*
X176680762Y-71786667D01*
X176585524Y-71881905D01*
X176490286Y-71929524D01*
X176299810Y-71977143D01*
X176156952Y-71977143D01*
X175966476Y-71929524D01*
X175871238Y-71881905D01*
X175776000Y-71786667D01*
X175728381Y-71643809D01*
X175728381Y-71548571D01*
X175776000Y-71405714D01*
X175823619Y-71358095D01*
X176633143Y-70358095D02*
X176680762Y-70405714D01*
X176728381Y-70548571D01*
X176728381Y-70643809D01*
X176680762Y-70786667D01*
X176585524Y-70881905D01*
X176490286Y-70929524D01*
X176299810Y-70977143D01*
X176156952Y-70977143D01*
X175966476Y-70929524D01*
X175871238Y-70881905D01*
X175776000Y-70786667D01*
X175728381Y-70643809D01*
X175728381Y-70548571D01*
X175776000Y-70405714D01*
X175823619Y-70358095D01*
X176728381Y-69405714D02*
X176728381Y-69977143D01*
X176728381Y-69691429D02*
X175728381Y-69691429D01*
X175871238Y-69786667D01*
X175966476Y-69881905D01*
X176014095Y-69977143D01*
X126062381Y-151063333D02*
X126776667Y-151063333D01*
X126919524Y-151110953D01*
X127014762Y-151206191D01*
X127062381Y-151349048D01*
X127062381Y-151444286D01*
X126157619Y-150634762D02*
X126110000Y-150587143D01*
X126062381Y-150491905D01*
X126062381Y-150253809D01*
X126110000Y-150158571D01*
X126157619Y-150110952D01*
X126252857Y-150063333D01*
X126348095Y-150063333D01*
X126490952Y-150110952D01*
X127062381Y-150682381D01*
X127062381Y-150063333D01*
X169418571Y-152110952D02*
X169466190Y-151968095D01*
X169513810Y-151920476D01*
X169609048Y-151872857D01*
X169751905Y-151872857D01*
X169847143Y-151920476D01*
X169894762Y-151968095D01*
X169942381Y-152063333D01*
X169942381Y-152444286D01*
X168942381Y-152444286D01*
X168942381Y-152110952D01*
X168990000Y-152015714D01*
X169037619Y-151968095D01*
X169132857Y-151920476D01*
X169228095Y-151920476D01*
X169323333Y-151968095D01*
X169370952Y-152015714D01*
X169418571Y-152110952D01*
X169418571Y-152444286D01*
X169656667Y-151491905D02*
X169656667Y-151015714D01*
X169942381Y-151587143D02*
X168942381Y-151253810D01*
X169942381Y-150920476D01*
X169942381Y-150587143D02*
X168942381Y-150587143D01*
X169942381Y-150015714D01*
X168942381Y-150015714D01*
X169942381Y-149539524D02*
X168942381Y-149539524D01*
X168942381Y-149301429D01*
X168990000Y-149158571D01*
X169085238Y-149063333D01*
X169180476Y-149015714D01*
X169370952Y-148968095D01*
X169513810Y-148968095D01*
X169704286Y-149015714D01*
X169799524Y-149063333D01*
X169894762Y-149158571D01*
X169942381Y-149301429D01*
X169942381Y-149539524D01*
X159789881Y-65103333D02*
X160504167Y-65103333D01*
X160647024Y-65150953D01*
X160742262Y-65246191D01*
X160789881Y-65389048D01*
X160789881Y-65484286D01*
X159789881Y-64722381D02*
X159789881Y-64103333D01*
X160170833Y-64436667D01*
X160170833Y-64293809D01*
X160218452Y-64198571D01*
X160266071Y-64150952D01*
X160361310Y-64103333D01*
X160599405Y-64103333D01*
X160694643Y-64150952D01*
X160742262Y-64198571D01*
X160789881Y-64293809D01*
X160789881Y-64579524D01*
X160742262Y-64674762D01*
X160694643Y-64722381D01*
X160186667Y-73453238D02*
X160186667Y-72977047D01*
X160472381Y-73548476D02*
X159472381Y-73215143D01*
X160472381Y-72881809D01*
X160377143Y-71977047D02*
X160424762Y-72024666D01*
X160472381Y-72167523D01*
X160472381Y-72262761D01*
X160424762Y-72405619D01*
X160329524Y-72500857D01*
X160234286Y-72548476D01*
X160043810Y-72596095D01*
X159900952Y-72596095D01*
X159710476Y-72548476D01*
X159615238Y-72500857D01*
X159520000Y-72405619D01*
X159472381Y-72262761D01*
X159472381Y-72167523D01*
X159520000Y-72024666D01*
X159567619Y-71977047D01*
X160377143Y-70977047D02*
X160424762Y-71024666D01*
X160472381Y-71167523D01*
X160472381Y-71262761D01*
X160424762Y-71405619D01*
X160329524Y-71500857D01*
X160234286Y-71548476D01*
X160043810Y-71596095D01*
X159900952Y-71596095D01*
X159710476Y-71548476D01*
X159615238Y-71500857D01*
X159520000Y-71405619D01*
X159472381Y-71262761D01*
X159472381Y-71167523D01*
X159520000Y-71024666D01*
X159567619Y-70977047D01*
X160472381Y-70024666D02*
X160472381Y-70596095D01*
X160472381Y-70310381D02*
X159472381Y-70310381D01*
X159615238Y-70405619D01*
X159710476Y-70500857D01*
X159758095Y-70596095D01*
X160567619Y-69834190D02*
X160567619Y-69072285D01*
X160472381Y-68834190D02*
X159472381Y-68834190D01*
X159472381Y-68453237D01*
X159520000Y-68357999D01*
X159567619Y-68310380D01*
X159662857Y-68262761D01*
X159805714Y-68262761D01*
X159900952Y-68310380D01*
X159948571Y-68357999D01*
X159996190Y-68453237D01*
X159996190Y-68834190D01*
X160377143Y-67262761D02*
X160424762Y-67310380D01*
X160472381Y-67453237D01*
X160472381Y-67548475D01*
X160424762Y-67691333D01*
X160329524Y-67786571D01*
X160234286Y-67834190D01*
X160043810Y-67881809D01*
X159900952Y-67881809D01*
X159710476Y-67834190D01*
X159615238Y-67786571D01*
X159520000Y-67691333D01*
X159472381Y-67548475D01*
X159472381Y-67453237D01*
X159520000Y-67310380D01*
X159567619Y-67262761D01*
X191666881Y-64976333D02*
X192381167Y-64976333D01*
X192524024Y-65023953D01*
X192619262Y-65119191D01*
X192666881Y-65262048D01*
X192666881Y-65357286D01*
X192000214Y-64071571D02*
X192666881Y-64071571D01*
X191619262Y-64309667D02*
X192333548Y-64547762D01*
X192333548Y-63928714D01*
X192444667Y-73342286D02*
X192444667Y-72866095D01*
X192730381Y-73437524D02*
X191730381Y-73104191D01*
X192730381Y-72770857D01*
X192635143Y-71866095D02*
X192682762Y-71913714D01*
X192730381Y-72056571D01*
X192730381Y-72151809D01*
X192682762Y-72294667D01*
X192587524Y-72389905D01*
X192492286Y-72437524D01*
X192301810Y-72485143D01*
X192158952Y-72485143D01*
X191968476Y-72437524D01*
X191873238Y-72389905D01*
X191778000Y-72294667D01*
X191730381Y-72151809D01*
X191730381Y-72056571D01*
X191778000Y-71913714D01*
X191825619Y-71866095D01*
X192635143Y-70866095D02*
X192682762Y-70913714D01*
X192730381Y-71056571D01*
X192730381Y-71151809D01*
X192682762Y-71294667D01*
X192587524Y-71389905D01*
X192492286Y-71437524D01*
X192301810Y-71485143D01*
X192158952Y-71485143D01*
X191968476Y-71437524D01*
X191873238Y-71389905D01*
X191778000Y-71294667D01*
X191730381Y-71151809D01*
X191730381Y-71056571D01*
X191778000Y-70913714D01*
X191825619Y-70866095D01*
X191825619Y-70485143D02*
X191778000Y-70437524D01*
X191730381Y-70342286D01*
X191730381Y-70104190D01*
X191778000Y-70008952D01*
X191825619Y-69961333D01*
X191920857Y-69913714D01*
X192016095Y-69913714D01*
X192158952Y-69961333D01*
X192730381Y-70532762D01*
X192730381Y-69913714D01*
X170466667Y-111310381D02*
X170466667Y-112024667D01*
X170419047Y-112167524D01*
X170323809Y-112262762D01*
X170180952Y-112310381D01*
X170085714Y-112310381D01*
X171419048Y-111310381D02*
X170942857Y-111310381D01*
X170895238Y-111786571D01*
X170942857Y-111738952D01*
X171038095Y-111691333D01*
X171276191Y-111691333D01*
X171371429Y-111738952D01*
X171419048Y-111786571D01*
X171466667Y-111881810D01*
X171466667Y-112119905D01*
X171419048Y-112215143D01*
X171371429Y-112262762D01*
X171276191Y-112310381D01*
X171038095Y-112310381D01*
X170942857Y-112262762D01*
X170895238Y-112215143D01*
X165140096Y-129579714D02*
X165140096Y-130246381D01*
X164902000Y-129198762D02*
X164663905Y-129913048D01*
X165282953Y-129913048D01*
X165997239Y-129722571D02*
X166140096Y-129770190D01*
X166187715Y-129817810D01*
X166235334Y-129913048D01*
X166235334Y-130055905D01*
X166187715Y-130151143D01*
X166140096Y-130198762D01*
X166044858Y-130246381D01*
X165663905Y-130246381D01*
X165663905Y-129246381D01*
X165997239Y-129246381D01*
X166092477Y-129294000D01*
X166140096Y-129341619D01*
X166187715Y-129436857D01*
X166187715Y-129532095D01*
X166140096Y-129627333D01*
X166092477Y-129674952D01*
X165997239Y-129722571D01*
X165663905Y-129722571D01*
X166663905Y-130246381D02*
X166663905Y-129246381D01*
X166997238Y-129246381D02*
X167568667Y-129246381D01*
X167282952Y-130246381D02*
X167282952Y-129246381D01*
X167663905Y-130341619D02*
X168425810Y-130341619D01*
X168997239Y-129722571D02*
X169140096Y-129770190D01*
X169187715Y-129817810D01*
X169235334Y-129913048D01*
X169235334Y-130055905D01*
X169187715Y-130151143D01*
X169140096Y-130198762D01*
X169044858Y-130246381D01*
X168663905Y-130246381D01*
X168663905Y-129246381D01*
X168997239Y-129246381D01*
X169092477Y-129294000D01*
X169140096Y-129341619D01*
X169187715Y-129436857D01*
X169187715Y-129532095D01*
X169140096Y-129627333D01*
X169092477Y-129674952D01*
X168997239Y-129722571D01*
X168663905Y-129722571D01*
X169616286Y-129960667D02*
X170092477Y-129960667D01*
X169521048Y-130246381D02*
X169854381Y-129246381D01*
X170187715Y-130246381D01*
X170521048Y-130246381D02*
X170521048Y-129246381D01*
X171092477Y-130246381D01*
X171092477Y-129246381D01*
X171568667Y-130246381D02*
X171568667Y-129246381D01*
X171806762Y-129246381D01*
X171949620Y-129294000D01*
X172044858Y-129389238D01*
X172092477Y-129484476D01*
X172140096Y-129674952D01*
X172140096Y-129817810D01*
X172092477Y-130008286D01*
X172044858Y-130103524D01*
X171949620Y-130198762D01*
X171806762Y-130246381D01*
X171568667Y-130246381D01*
X182666667Y-77062381D02*
X182666667Y-77776667D01*
X182619047Y-77919524D01*
X182523809Y-78014762D01*
X182380952Y-78062381D01*
X182285714Y-78062381D01*
X183571429Y-77062381D02*
X183380952Y-77062381D01*
X183285714Y-77110000D01*
X183238095Y-77157619D01*
X183142857Y-77300476D01*
X183095238Y-77490952D01*
X183095238Y-77871905D01*
X183142857Y-77967143D01*
X183190476Y-78014762D01*
X183285714Y-78062381D01*
X183476191Y-78062381D01*
X183571429Y-78014762D01*
X183619048Y-77967143D01*
X183666667Y-77871905D01*
X183666667Y-77633810D01*
X183619048Y-77538571D01*
X183571429Y-77490952D01*
X183476191Y-77443333D01*
X183285714Y-77443333D01*
X183190476Y-77490952D01*
X183142857Y-77538571D01*
X183095238Y-77633810D01*
X181959524Y-85351881D02*
X181959524Y-84351881D01*
X182435714Y-85351881D02*
X182435714Y-84351881D01*
X183007143Y-85351881D01*
X183007143Y-84351881D01*
X183483333Y-85351881D02*
X183483333Y-84351881D01*
X183483333Y-84828071D02*
X184054762Y-84828071D01*
X184054762Y-85351881D02*
X184054762Y-84351881D01*
X184292857Y-85447119D02*
X185054762Y-85447119D01*
X185292857Y-85351881D02*
X185292857Y-84351881D01*
X185769047Y-85351881D02*
X185769047Y-84351881D01*
X186340476Y-85351881D01*
X186340476Y-84351881D01*
X198666667Y-77062381D02*
X198666667Y-77776667D01*
X198619047Y-77919524D01*
X198523809Y-78014762D01*
X198380952Y-78062381D01*
X198285714Y-78062381D01*
X199047619Y-77062381D02*
X199714286Y-77062381D01*
X199285714Y-78062381D01*
X202255381Y-85470429D02*
X201255381Y-85470429D01*
X202255381Y-84899000D02*
X201683952Y-85327572D01*
X201255381Y-84899000D02*
X201826810Y-85470429D01*
X201731571Y-84470429D02*
X201731571Y-84137095D01*
X202255381Y-83994238D02*
X202255381Y-84470429D01*
X201255381Y-84470429D01*
X201255381Y-83994238D01*
X201779190Y-83375191D02*
X202255381Y-83375191D01*
X201255381Y-83708524D02*
X201779190Y-83375191D01*
X201255381Y-83041857D01*
X202255381Y-82232333D02*
X202255381Y-82708524D01*
X201255381Y-82708524D01*
X202255381Y-81899000D02*
X201255381Y-81899000D01*
X202255381Y-81422810D02*
X201255381Y-81422810D01*
X202255381Y-80851381D01*
X201255381Y-80851381D01*
X201731571Y-80375191D02*
X201731571Y-80041857D01*
X202255381Y-79899000D02*
X202255381Y-80375191D01*
X201255381Y-80375191D01*
X201255381Y-79899000D01*
X202350619Y-79708524D02*
X202350619Y-78946619D01*
X201255381Y-78518048D02*
X201255381Y-78327571D01*
X201303000Y-78232333D01*
X201398238Y-78137095D01*
X201588714Y-78089476D01*
X201922048Y-78089476D01*
X202112524Y-78137095D01*
X202207762Y-78232333D01*
X202255381Y-78327571D01*
X202255381Y-78518048D01*
X202207762Y-78613286D01*
X202112524Y-78708524D01*
X201922048Y-78756143D01*
X201588714Y-78756143D01*
X201398238Y-78708524D01*
X201303000Y-78613286D01*
X201255381Y-78518048D01*
X201255381Y-77660905D02*
X202064905Y-77660905D01*
X202160143Y-77613286D01*
X202207762Y-77565667D01*
X202255381Y-77470429D01*
X202255381Y-77279952D01*
X202207762Y-77184714D01*
X202160143Y-77137095D01*
X202064905Y-77089476D01*
X201255381Y-77089476D01*
X201255381Y-76756143D02*
X201255381Y-76184714D01*
X202255381Y-76470429D02*
X201255381Y-76470429D01*
X166036667Y-84351881D02*
X166036667Y-85066167D01*
X165989047Y-85209024D01*
X165893809Y-85304262D01*
X165750952Y-85351881D01*
X165655714Y-85351881D01*
X166655714Y-84780452D02*
X166560476Y-84732833D01*
X166512857Y-84685214D01*
X166465238Y-84589976D01*
X166465238Y-84542357D01*
X166512857Y-84447119D01*
X166560476Y-84399500D01*
X166655714Y-84351881D01*
X166846191Y-84351881D01*
X166941429Y-84399500D01*
X166989048Y-84447119D01*
X167036667Y-84542357D01*
X167036667Y-84589976D01*
X166989048Y-84685214D01*
X166941429Y-84732833D01*
X166846191Y-84780452D01*
X166655714Y-84780452D01*
X166560476Y-84828071D01*
X166512857Y-84875690D01*
X166465238Y-84970929D01*
X166465238Y-85161405D01*
X166512857Y-85256643D01*
X166560476Y-85304262D01*
X166655714Y-85351881D01*
X166846191Y-85351881D01*
X166941429Y-85304262D01*
X166989048Y-85256643D01*
X167036667Y-85161405D01*
X167036667Y-84970929D01*
X166989048Y-84875690D01*
X166941429Y-84828071D01*
X166846191Y-84780452D01*
X161401976Y-78049381D02*
X161401976Y-77049381D01*
X161782929Y-77049381D01*
X161878167Y-77097000D01*
X161925786Y-77144619D01*
X161973405Y-77239857D01*
X161973405Y-77382714D01*
X161925786Y-77477952D01*
X161878167Y-77525571D01*
X161782929Y-77573190D01*
X161401976Y-77573190D01*
X162259119Y-77049381D02*
X162830548Y-77049381D01*
X162544833Y-78049381D02*
X162544833Y-77049381D01*
X163021024Y-77049381D02*
X163592453Y-77049381D01*
X163306738Y-78049381D02*
X163306738Y-77049381D01*
X163687691Y-78144619D02*
X164449596Y-78144619D01*
X164687691Y-78049381D02*
X164687691Y-77049381D01*
X165068644Y-77049381D01*
X165163882Y-77097000D01*
X165211501Y-77144619D01*
X165259120Y-77239857D01*
X165259120Y-77382714D01*
X165211501Y-77477952D01*
X165163882Y-77525571D01*
X165068644Y-77573190D01*
X164687691Y-77573190D01*
X165878167Y-77049381D02*
X166068644Y-77049381D01*
X166163882Y-77097000D01*
X166259120Y-77192238D01*
X166306739Y-77382714D01*
X166306739Y-77716048D01*
X166259120Y-77906524D01*
X166163882Y-78001762D01*
X166068644Y-78049381D01*
X165878167Y-78049381D01*
X165782929Y-78001762D01*
X165687691Y-77906524D01*
X165640072Y-77716048D01*
X165640072Y-77382714D01*
X165687691Y-77192238D01*
X165782929Y-77097000D01*
X165878167Y-77049381D01*
X166640072Y-77049381D02*
X166878167Y-78049381D01*
X167068644Y-77335095D01*
X167259120Y-78049381D01*
X167497215Y-77049381D01*
X167878167Y-77525571D02*
X168211501Y-77525571D01*
X168354358Y-78049381D02*
X167878167Y-78049381D01*
X167878167Y-77049381D01*
X168354358Y-77049381D01*
X169354358Y-78049381D02*
X169021024Y-77573190D01*
X168782929Y-78049381D02*
X168782929Y-77049381D01*
X169163882Y-77049381D01*
X169259120Y-77097000D01*
X169306739Y-77144619D01*
X169354358Y-77239857D01*
X169354358Y-77382714D01*
X169306739Y-77477952D01*
X169259120Y-77525571D01*
X169163882Y-77573190D01*
X168782929Y-77573190D01*
X169973405Y-77049381D02*
X170163882Y-77049381D01*
X170259120Y-77097000D01*
X170354358Y-77192238D01*
X170401977Y-77382714D01*
X170401977Y-77716048D01*
X170354358Y-77906524D01*
X170259120Y-78001762D01*
X170163882Y-78049381D01*
X169973405Y-78049381D01*
X169878167Y-78001762D01*
X169782929Y-77906524D01*
X169735310Y-77716048D01*
X169735310Y-77382714D01*
X169782929Y-77192238D01*
X169878167Y-77097000D01*
X169973405Y-77049381D01*
X170830548Y-78049381D02*
X170830548Y-77049381D01*
X171401977Y-78049381D01*
X171401977Y-77049381D01*
X171640072Y-78144619D02*
X172401977Y-78144619D01*
X172830548Y-77049381D02*
X173021025Y-77049381D01*
X173116263Y-77097000D01*
X173211501Y-77192238D01*
X173259120Y-77382714D01*
X173259120Y-77716048D01*
X173211501Y-77906524D01*
X173116263Y-78001762D01*
X173021025Y-78049381D01*
X172830548Y-78049381D01*
X172735310Y-78001762D01*
X172640072Y-77906524D01*
X172592453Y-77716048D01*
X172592453Y-77382714D01*
X172640072Y-77192238D01*
X172735310Y-77097000D01*
X172830548Y-77049381D01*
X173687691Y-77049381D02*
X173687691Y-77858905D01*
X173735310Y-77954143D01*
X173782929Y-78001762D01*
X173878167Y-78049381D01*
X174068644Y-78049381D01*
X174163882Y-78001762D01*
X174211501Y-77954143D01*
X174259120Y-77858905D01*
X174259120Y-77049381D01*
X174592453Y-77049381D02*
X175163882Y-77049381D01*
X174878167Y-78049381D02*
X174878167Y-77049381D01*
X123404381Y-66373333D02*
X124118667Y-66373333D01*
X124261524Y-66420953D01*
X124356762Y-66516191D01*
X124404381Y-66659048D01*
X124404381Y-66754286D01*
X124404381Y-65849524D02*
X124404381Y-65659048D01*
X124356762Y-65563809D01*
X124309143Y-65516190D01*
X124166286Y-65420952D01*
X123975810Y-65373333D01*
X123594857Y-65373333D01*
X123499619Y-65420952D01*
X123452000Y-65468571D01*
X123404381Y-65563809D01*
X123404381Y-65754286D01*
X123452000Y-65849524D01*
X123499619Y-65897143D01*
X123594857Y-65944762D01*
X123832952Y-65944762D01*
X123928190Y-65897143D01*
X123975810Y-65849524D01*
X124023429Y-65754286D01*
X124023429Y-65563809D01*
X123975810Y-65468571D01*
X123928190Y-65420952D01*
X123832952Y-65373333D01*
X124309143Y-73286857D02*
X124356762Y-73334476D01*
X124404381Y-73477333D01*
X124404381Y-73572571D01*
X124356762Y-73715429D01*
X124261524Y-73810667D01*
X124166286Y-73858286D01*
X123975810Y-73905905D01*
X123832952Y-73905905D01*
X123642476Y-73858286D01*
X123547238Y-73810667D01*
X123452000Y-73715429D01*
X123404381Y-73572571D01*
X123404381Y-73477333D01*
X123452000Y-73334476D01*
X123499619Y-73286857D01*
X124118667Y-72905905D02*
X124118667Y-72429714D01*
X124404381Y-73001143D02*
X123404381Y-72667810D01*
X124404381Y-72334476D01*
X124404381Y-72001143D02*
X123404381Y-72001143D01*
X124404381Y-71429714D01*
X123404381Y-71429714D01*
X156734762Y-98071619D02*
X156639524Y-98024000D01*
X156544286Y-97928762D01*
X156401429Y-97785905D01*
X156306190Y-97738286D01*
X156210952Y-97738286D01*
X156258571Y-97976381D02*
X156163333Y-97928762D01*
X156068095Y-97833524D01*
X156020476Y-97643048D01*
X156020476Y-97309714D01*
X156068095Y-97119238D01*
X156163333Y-97024000D01*
X156258571Y-96976381D01*
X156449048Y-96976381D01*
X156544286Y-97024000D01*
X156639524Y-97119238D01*
X156687143Y-97309714D01*
X156687143Y-97643048D01*
X156639524Y-97833524D01*
X156544286Y-97928762D01*
X156449048Y-97976381D01*
X156258571Y-97976381D01*
X157639524Y-97976381D02*
X157068095Y-97976381D01*
X157353809Y-97976381D02*
X157353809Y-96976381D01*
X157258571Y-97119238D01*
X157163333Y-97214476D01*
X157068095Y-97262095D01*
X201199762Y-118490619D02*
X201104524Y-118443000D01*
X201009286Y-118347762D01*
X200866429Y-118204905D01*
X200771190Y-118157286D01*
X200675952Y-118157286D01*
X200723571Y-118395381D02*
X200628333Y-118347762D01*
X200533095Y-118252524D01*
X200485476Y-118062048D01*
X200485476Y-117728714D01*
X200533095Y-117538238D01*
X200628333Y-117443000D01*
X200723571Y-117395381D01*
X200914048Y-117395381D01*
X201009286Y-117443000D01*
X201104524Y-117538238D01*
X201152143Y-117728714D01*
X201152143Y-118062048D01*
X201104524Y-118252524D01*
X201009286Y-118347762D01*
X200914048Y-118395381D01*
X200723571Y-118395381D01*
X201533095Y-117490619D02*
X201580714Y-117443000D01*
X201675952Y-117395381D01*
X201914048Y-117395381D01*
X202009286Y-117443000D01*
X202056905Y-117490619D01*
X202104524Y-117585857D01*
X202104524Y-117681095D01*
X202056905Y-117823952D01*
X201485476Y-118395381D01*
X202104524Y-118395381D01*
X189642762Y-88645619D02*
X189547524Y-88598000D01*
X189452286Y-88502762D01*
X189309429Y-88359905D01*
X189214190Y-88312286D01*
X189118952Y-88312286D01*
X189166571Y-88550381D02*
X189071333Y-88502762D01*
X188976095Y-88407524D01*
X188928476Y-88217048D01*
X188928476Y-87883714D01*
X188976095Y-87693238D01*
X189071333Y-87598000D01*
X189166571Y-87550381D01*
X189357048Y-87550381D01*
X189452286Y-87598000D01*
X189547524Y-87693238D01*
X189595143Y-87883714D01*
X189595143Y-88217048D01*
X189547524Y-88407524D01*
X189452286Y-88502762D01*
X189357048Y-88550381D01*
X189166571Y-88550381D01*
X189928476Y-87550381D02*
X190547524Y-87550381D01*
X190214190Y-87931333D01*
X190357048Y-87931333D01*
X190452286Y-87978952D01*
X190499905Y-88026571D01*
X190547524Y-88121810D01*
X190547524Y-88359905D01*
X190499905Y-88455143D01*
X190452286Y-88502762D01*
X190357048Y-88550381D01*
X190071333Y-88550381D01*
X189976095Y-88502762D01*
X189928476Y-88455143D01*
X197897762Y-98043619D02*
X197802524Y-97996000D01*
X197707286Y-97900762D01*
X197564429Y-97757905D01*
X197469190Y-97710286D01*
X197373952Y-97710286D01*
X197421571Y-97948381D02*
X197326333Y-97900762D01*
X197231095Y-97805524D01*
X197183476Y-97615048D01*
X197183476Y-97281714D01*
X197231095Y-97091238D01*
X197326333Y-96996000D01*
X197421571Y-96948381D01*
X197612048Y-96948381D01*
X197707286Y-96996000D01*
X197802524Y-97091238D01*
X197850143Y-97281714D01*
X197850143Y-97615048D01*
X197802524Y-97805524D01*
X197707286Y-97900762D01*
X197612048Y-97948381D01*
X197421571Y-97948381D01*
X198707286Y-97281714D02*
X198707286Y-97948381D01*
X198469190Y-96900762D02*
X198231095Y-97615048D01*
X198850143Y-97615048D01*
X201167619Y-109188238D02*
X201120000Y-109283476D01*
X201024762Y-109378714D01*
X200881905Y-109521571D01*
X200834286Y-109616810D01*
X200834286Y-109712048D01*
X201072381Y-109664429D02*
X201024762Y-109759667D01*
X200929524Y-109854905D01*
X200739048Y-109902524D01*
X200405714Y-109902524D01*
X200215238Y-109854905D01*
X200120000Y-109759667D01*
X200072381Y-109664429D01*
X200072381Y-109473952D01*
X200120000Y-109378714D01*
X200215238Y-109283476D01*
X200405714Y-109235857D01*
X200739048Y-109235857D01*
X200929524Y-109283476D01*
X201024762Y-109378714D01*
X201072381Y-109473952D01*
X201072381Y-109664429D01*
X200072381Y-108331095D02*
X200072381Y-108807286D01*
X200548571Y-108854905D01*
X200500952Y-108807286D01*
X200453333Y-108712048D01*
X200453333Y-108473952D01*
X200500952Y-108378714D01*
X200548571Y-108331095D01*
X200643810Y-108283476D01*
X200881905Y-108283476D01*
X200977143Y-108331095D01*
X201024762Y-108378714D01*
X201072381Y-108473952D01*
X201072381Y-108712048D01*
X201024762Y-108807286D01*
X200977143Y-108854905D01*
X162853619Y-88995238D02*
X162806000Y-89090476D01*
X162710762Y-89185714D01*
X162567905Y-89328571D01*
X162520286Y-89423810D01*
X162520286Y-89519048D01*
X162758381Y-89471429D02*
X162710762Y-89566667D01*
X162615524Y-89661905D01*
X162425048Y-89709524D01*
X162091714Y-89709524D01*
X161901238Y-89661905D01*
X161806000Y-89566667D01*
X161758381Y-89471429D01*
X161758381Y-89280952D01*
X161806000Y-89185714D01*
X161901238Y-89090476D01*
X162091714Y-89042857D01*
X162425048Y-89042857D01*
X162615524Y-89090476D01*
X162710762Y-89185714D01*
X162758381Y-89280952D01*
X162758381Y-89471429D01*
X161758381Y-88185714D02*
X161758381Y-88376191D01*
X161806000Y-88471429D01*
X161853619Y-88519048D01*
X161996476Y-88614286D01*
X162186952Y-88661905D01*
X162567905Y-88661905D01*
X162663143Y-88614286D01*
X162710762Y-88566667D01*
X162758381Y-88471429D01*
X162758381Y-88280952D01*
X162710762Y-88185714D01*
X162663143Y-88138095D01*
X162567905Y-88090476D01*
X162329810Y-88090476D01*
X162234571Y-88138095D01*
X162186952Y-88185714D01*
X162139333Y-88280952D01*
X162139333Y-88471429D01*
X162186952Y-88566667D01*
X162234571Y-88614286D01*
X162329810Y-88661905D01*
X194516619Y-117062238D02*
X194469000Y-117157476D01*
X194373762Y-117252714D01*
X194230905Y-117395571D01*
X194183286Y-117490810D01*
X194183286Y-117586048D01*
X194421381Y-117538429D02*
X194373762Y-117633667D01*
X194278524Y-117728905D01*
X194088048Y-117776524D01*
X193754714Y-117776524D01*
X193564238Y-117728905D01*
X193469000Y-117633667D01*
X193421381Y-117538429D01*
X193421381Y-117347952D01*
X193469000Y-117252714D01*
X193564238Y-117157476D01*
X193754714Y-117109857D01*
X194088048Y-117109857D01*
X194278524Y-117157476D01*
X194373762Y-117252714D01*
X194421381Y-117347952D01*
X194421381Y-117538429D01*
X193421381Y-116776524D02*
X193421381Y-116109857D01*
X194421381Y-116538429D01*
X189182619Y-103600238D02*
X189135000Y-103695476D01*
X189039762Y-103790714D01*
X188896905Y-103933571D01*
X188849286Y-104028810D01*
X188849286Y-104124048D01*
X189087381Y-104076429D02*
X189039762Y-104171667D01*
X188944524Y-104266905D01*
X188754048Y-104314524D01*
X188420714Y-104314524D01*
X188230238Y-104266905D01*
X188135000Y-104171667D01*
X188087381Y-104076429D01*
X188087381Y-103885952D01*
X188135000Y-103790714D01*
X188230238Y-103695476D01*
X188420714Y-103647857D01*
X188754048Y-103647857D01*
X188944524Y-103695476D01*
X189039762Y-103790714D01*
X189087381Y-103885952D01*
X189087381Y-104076429D01*
X188515952Y-103076429D02*
X188468333Y-103171667D01*
X188420714Y-103219286D01*
X188325476Y-103266905D01*
X188277857Y-103266905D01*
X188182619Y-103219286D01*
X188135000Y-103171667D01*
X188087381Y-103076429D01*
X188087381Y-102885952D01*
X188135000Y-102790714D01*
X188182619Y-102743095D01*
X188277857Y-102695476D01*
X188325476Y-102695476D01*
X188420714Y-102743095D01*
X188468333Y-102790714D01*
X188515952Y-102885952D01*
X188515952Y-103076429D01*
X188563571Y-103171667D01*
X188611190Y-103219286D01*
X188706429Y-103266905D01*
X188896905Y-103266905D01*
X188992143Y-103219286D01*
X189039762Y-103171667D01*
X189087381Y-103076429D01*
X189087381Y-102885952D01*
X189039762Y-102790714D01*
X188992143Y-102743095D01*
X188896905Y-102695476D01*
X188706429Y-102695476D01*
X188611190Y-102743095D01*
X188563571Y-102790714D01*
X188515952Y-102885952D01*
X190198619Y-98266238D02*
X190151000Y-98361476D01*
X190055762Y-98456714D01*
X189912905Y-98599571D01*
X189865286Y-98694810D01*
X189865286Y-98790048D01*
X190103381Y-98742429D02*
X190055762Y-98837667D01*
X189960524Y-98932905D01*
X189770048Y-98980524D01*
X189436714Y-98980524D01*
X189246238Y-98932905D01*
X189151000Y-98837667D01*
X189103381Y-98742429D01*
X189103381Y-98551952D01*
X189151000Y-98456714D01*
X189246238Y-98361476D01*
X189436714Y-98313857D01*
X189770048Y-98313857D01*
X189960524Y-98361476D01*
X190055762Y-98456714D01*
X190103381Y-98551952D01*
X190103381Y-98742429D01*
X190103381Y-97837667D02*
X190103381Y-97647191D01*
X190055762Y-97551952D01*
X190008143Y-97504333D01*
X189865286Y-97409095D01*
X189674810Y-97361476D01*
X189293857Y-97361476D01*
X189198619Y-97409095D01*
X189151000Y-97456714D01*
X189103381Y-97551952D01*
X189103381Y-97742429D01*
X189151000Y-97837667D01*
X189198619Y-97885286D01*
X189293857Y-97932905D01*
X189531952Y-97932905D01*
X189627190Y-97885286D01*
X189674810Y-97837667D01*
X189722429Y-97742429D01*
X189722429Y-97551952D01*
X189674810Y-97456714D01*
X189627190Y-97409095D01*
X189531952Y-97361476D01*
X155901334Y-105034381D02*
X155568000Y-104558190D01*
X155329905Y-105034381D02*
X155329905Y-104034381D01*
X155710858Y-104034381D01*
X155806096Y-104082000D01*
X155853715Y-104129619D01*
X155901334Y-104224857D01*
X155901334Y-104367714D01*
X155853715Y-104462952D01*
X155806096Y-104510571D01*
X155710858Y-104558190D01*
X155329905Y-104558190D01*
X156853715Y-105034381D02*
X156282286Y-105034381D01*
X156568000Y-105034381D02*
X156568000Y-104034381D01*
X156472762Y-104177238D01*
X156377524Y-104272476D01*
X156282286Y-104320095D01*
X131752381Y-143530666D02*
X131276190Y-143864000D01*
X131752381Y-144102095D02*
X130752381Y-144102095D01*
X130752381Y-143721142D01*
X130800000Y-143625904D01*
X130847619Y-143578285D01*
X130942857Y-143530666D01*
X131085714Y-143530666D01*
X131180952Y-143578285D01*
X131228571Y-143625904D01*
X131276190Y-143721142D01*
X131276190Y-144102095D01*
X130847619Y-143149714D02*
X130800000Y-143102095D01*
X130752381Y-143006857D01*
X130752381Y-142768761D01*
X130800000Y-142673523D01*
X130847619Y-142625904D01*
X130942857Y-142578285D01*
X131038095Y-142578285D01*
X131180952Y-142625904D01*
X131752381Y-143197333D01*
X131752381Y-142578285D01*
X134292381Y-136672666D02*
X133816190Y-137006000D01*
X134292381Y-137244095D02*
X133292381Y-137244095D01*
X133292381Y-136863142D01*
X133340000Y-136767904D01*
X133387619Y-136720285D01*
X133482857Y-136672666D01*
X133625714Y-136672666D01*
X133720952Y-136720285D01*
X133768571Y-136767904D01*
X133816190Y-136863142D01*
X133816190Y-137244095D01*
X133292381Y-136339333D02*
X133292381Y-135720285D01*
X133673333Y-136053619D01*
X133673333Y-135910761D01*
X133720952Y-135815523D01*
X133768571Y-135767904D01*
X133863810Y-135720285D01*
X134101905Y-135720285D01*
X134197143Y-135767904D01*
X134244762Y-135815523D01*
X134292381Y-135910761D01*
X134292381Y-136196476D01*
X134244762Y-136291714D01*
X134197143Y-136339333D01*
X136832381Y-143530666D02*
X136356190Y-143864000D01*
X136832381Y-144102095D02*
X135832381Y-144102095D01*
X135832381Y-143721142D01*
X135880000Y-143625904D01*
X135927619Y-143578285D01*
X136022857Y-143530666D01*
X136165714Y-143530666D01*
X136260952Y-143578285D01*
X136308571Y-143625904D01*
X136356190Y-143721142D01*
X136356190Y-144102095D01*
X136165714Y-142673523D02*
X136832381Y-142673523D01*
X135784762Y-142911619D02*
X136499048Y-143149714D01*
X136499048Y-142530666D01*
X139372381Y-136672666D02*
X138896190Y-137006000D01*
X139372381Y-137244095D02*
X138372381Y-137244095D01*
X138372381Y-136863142D01*
X138420000Y-136767904D01*
X138467619Y-136720285D01*
X138562857Y-136672666D01*
X138705714Y-136672666D01*
X138800952Y-136720285D01*
X138848571Y-136767904D01*
X138896190Y-136863142D01*
X138896190Y-137244095D01*
X138372381Y-135767904D02*
X138372381Y-136244095D01*
X138848571Y-136291714D01*
X138800952Y-136244095D01*
X138753333Y-136148857D01*
X138753333Y-135910761D01*
X138800952Y-135815523D01*
X138848571Y-135767904D01*
X138943810Y-135720285D01*
X139181905Y-135720285D01*
X139277143Y-135767904D01*
X139324762Y-135815523D01*
X139372381Y-135910761D01*
X139372381Y-136148857D01*
X139324762Y-136244095D01*
X139277143Y-136291714D01*
X157522381Y-77838666D02*
X157046190Y-78172000D01*
X157522381Y-78410095D02*
X156522381Y-78410095D01*
X156522381Y-78029142D01*
X156570000Y-77933904D01*
X156617619Y-77886285D01*
X156712857Y-77838666D01*
X156855714Y-77838666D01*
X156950952Y-77886285D01*
X156998571Y-77933904D01*
X157046190Y-78029142D01*
X157046190Y-78410095D01*
X156522381Y-76981523D02*
X156522381Y-77172000D01*
X156570000Y-77267238D01*
X156617619Y-77314857D01*
X156760476Y-77410095D01*
X156950952Y-77457714D01*
X157331905Y-77457714D01*
X157427143Y-77410095D01*
X157474762Y-77362476D01*
X157522381Y-77267238D01*
X157522381Y-77076761D01*
X157474762Y-76981523D01*
X157427143Y-76933904D01*
X157331905Y-76886285D01*
X157093810Y-76886285D01*
X156998571Y-76933904D01*
X156950952Y-76981523D01*
X156903333Y-77076761D01*
X156903333Y-77267238D01*
X156950952Y-77362476D01*
X156998571Y-77410095D01*
X157093810Y-77457714D01*
X141912381Y-143530666D02*
X141436190Y-143864000D01*
X141912381Y-144102095D02*
X140912381Y-144102095D01*
X140912381Y-143721142D01*
X140960000Y-143625904D01*
X141007619Y-143578285D01*
X141102857Y-143530666D01*
X141245714Y-143530666D01*
X141340952Y-143578285D01*
X141388571Y-143625904D01*
X141436190Y-143721142D01*
X141436190Y-144102095D01*
X140912381Y-143197333D02*
X140912381Y-142530666D01*
X141912381Y-142959238D01*
X144452381Y-136672666D02*
X143976190Y-137006000D01*
X144452381Y-137244095D02*
X143452381Y-137244095D01*
X143452381Y-136863142D01*
X143500000Y-136767904D01*
X143547619Y-136720285D01*
X143642857Y-136672666D01*
X143785714Y-136672666D01*
X143880952Y-136720285D01*
X143928571Y-136767904D01*
X143976190Y-136863142D01*
X143976190Y-137244095D01*
X143880952Y-136101238D02*
X143833333Y-136196476D01*
X143785714Y-136244095D01*
X143690476Y-136291714D01*
X143642857Y-136291714D01*
X143547619Y-136244095D01*
X143500000Y-136196476D01*
X143452381Y-136101238D01*
X143452381Y-135910761D01*
X143500000Y-135815523D01*
X143547619Y-135767904D01*
X143642857Y-135720285D01*
X143690476Y-135720285D01*
X143785714Y-135767904D01*
X143833333Y-135815523D01*
X143880952Y-135910761D01*
X143880952Y-136101238D01*
X143928571Y-136196476D01*
X143976190Y-136244095D01*
X144071429Y-136291714D01*
X144261905Y-136291714D01*
X144357143Y-136244095D01*
X144404762Y-136196476D01*
X144452381Y-136101238D01*
X144452381Y-135910761D01*
X144404762Y-135815523D01*
X144357143Y-135767904D01*
X144261905Y-135720285D01*
X144071429Y-135720285D01*
X143976190Y-135767904D01*
X143928571Y-135815523D01*
X143880952Y-135910761D01*
X146992381Y-143530666D02*
X146516190Y-143864000D01*
X146992381Y-144102095D02*
X145992381Y-144102095D01*
X145992381Y-143721142D01*
X146040000Y-143625904D01*
X146087619Y-143578285D01*
X146182857Y-143530666D01*
X146325714Y-143530666D01*
X146420952Y-143578285D01*
X146468571Y-143625904D01*
X146516190Y-143721142D01*
X146516190Y-144102095D01*
X146992381Y-143054476D02*
X146992381Y-142864000D01*
X146944762Y-142768761D01*
X146897143Y-142721142D01*
X146754286Y-142625904D01*
X146563810Y-142578285D01*
X146182857Y-142578285D01*
X146087619Y-142625904D01*
X146040000Y-142673523D01*
X145992381Y-142768761D01*
X145992381Y-142959238D01*
X146040000Y-143054476D01*
X146087619Y-143102095D01*
X146182857Y-143149714D01*
X146420952Y-143149714D01*
X146516190Y-143102095D01*
X146563810Y-143054476D01*
X146611429Y-142959238D01*
X146611429Y-142768761D01*
X146563810Y-142673523D01*
X146516190Y-142625904D01*
X146420952Y-142578285D01*
X149532381Y-137148857D02*
X149056190Y-137482191D01*
X149532381Y-137720286D02*
X148532381Y-137720286D01*
X148532381Y-137339333D01*
X148580000Y-137244095D01*
X148627619Y-137196476D01*
X148722857Y-137148857D01*
X148865714Y-137148857D01*
X148960952Y-137196476D01*
X149008571Y-137244095D01*
X149056190Y-137339333D01*
X149056190Y-137720286D01*
X149532381Y-136196476D02*
X149532381Y-136767905D01*
X149532381Y-136482191D02*
X148532381Y-136482191D01*
X148675238Y-136577429D01*
X148770476Y-136672667D01*
X148818095Y-136767905D01*
X148532381Y-135577429D02*
X148532381Y-135482190D01*
X148580000Y-135386952D01*
X148627619Y-135339333D01*
X148722857Y-135291714D01*
X148913333Y-135244095D01*
X149151429Y-135244095D01*
X149341905Y-135291714D01*
X149437143Y-135339333D01*
X149484762Y-135386952D01*
X149532381Y-135482190D01*
X149532381Y-135577429D01*
X149484762Y-135672667D01*
X149437143Y-135720286D01*
X149341905Y-135767905D01*
X149151429Y-135815524D01*
X148913333Y-135815524D01*
X148722857Y-135767905D01*
X148627619Y-135720286D01*
X148580000Y-135672667D01*
X148532381Y-135577429D01*
X152072381Y-144006857D02*
X151596190Y-144340191D01*
X152072381Y-144578286D02*
X151072381Y-144578286D01*
X151072381Y-144197333D01*
X151120000Y-144102095D01*
X151167619Y-144054476D01*
X151262857Y-144006857D01*
X151405714Y-144006857D01*
X151500952Y-144054476D01*
X151548571Y-144102095D01*
X151596190Y-144197333D01*
X151596190Y-144578286D01*
X152072381Y-143054476D02*
X152072381Y-143625905D01*
X152072381Y-143340191D02*
X151072381Y-143340191D01*
X151215238Y-143435429D01*
X151310476Y-143530667D01*
X151358095Y-143625905D01*
X152072381Y-142102095D02*
X152072381Y-142673524D01*
X152072381Y-142387810D02*
X151072381Y-142387810D01*
X151215238Y-142483048D01*
X151310476Y-142578286D01*
X151358095Y-142673524D01*
X154612381Y-137148857D02*
X154136190Y-137482191D01*
X154612381Y-137720286D02*
X153612381Y-137720286D01*
X153612381Y-137339333D01*
X153660000Y-137244095D01*
X153707619Y-137196476D01*
X153802857Y-137148857D01*
X153945714Y-137148857D01*
X154040952Y-137196476D01*
X154088571Y-137244095D01*
X154136190Y-137339333D01*
X154136190Y-137720286D01*
X154612381Y-136196476D02*
X154612381Y-136767905D01*
X154612381Y-136482191D02*
X153612381Y-136482191D01*
X153755238Y-136577429D01*
X153850476Y-136672667D01*
X153898095Y-136767905D01*
X153707619Y-135815524D02*
X153660000Y-135767905D01*
X153612381Y-135672667D01*
X153612381Y-135434571D01*
X153660000Y-135339333D01*
X153707619Y-135291714D01*
X153802857Y-135244095D01*
X153898095Y-135244095D01*
X154040952Y-135291714D01*
X154612381Y-135863143D01*
X154612381Y-135244095D01*
X157152381Y-144006857D02*
X156676190Y-144340191D01*
X157152381Y-144578286D02*
X156152381Y-144578286D01*
X156152381Y-144197333D01*
X156200000Y-144102095D01*
X156247619Y-144054476D01*
X156342857Y-144006857D01*
X156485714Y-144006857D01*
X156580952Y-144054476D01*
X156628571Y-144102095D01*
X156676190Y-144197333D01*
X156676190Y-144578286D01*
X157152381Y-143054476D02*
X157152381Y-143625905D01*
X157152381Y-143340191D02*
X156152381Y-143340191D01*
X156295238Y-143435429D01*
X156390476Y-143530667D01*
X156438095Y-143625905D01*
X156152381Y-142721143D02*
X156152381Y-142102095D01*
X156533333Y-142435429D01*
X156533333Y-142292571D01*
X156580952Y-142197333D01*
X156628571Y-142149714D01*
X156723810Y-142102095D01*
X156961905Y-142102095D01*
X157057143Y-142149714D01*
X157104762Y-142197333D01*
X157152381Y-142292571D01*
X157152381Y-142578286D01*
X157104762Y-142673524D01*
X157057143Y-142721143D01*
X159692381Y-137148857D02*
X159216190Y-137482191D01*
X159692381Y-137720286D02*
X158692381Y-137720286D01*
X158692381Y-137339333D01*
X158740000Y-137244095D01*
X158787619Y-137196476D01*
X158882857Y-137148857D01*
X159025714Y-137148857D01*
X159120952Y-137196476D01*
X159168571Y-137244095D01*
X159216190Y-137339333D01*
X159216190Y-137720286D01*
X159692381Y-136196476D02*
X159692381Y-136767905D01*
X159692381Y-136482191D02*
X158692381Y-136482191D01*
X158835238Y-136577429D01*
X158930476Y-136672667D01*
X158978095Y-136767905D01*
X159025714Y-135339333D02*
X159692381Y-135339333D01*
X158644762Y-135577429D02*
X159359048Y-135815524D01*
X159359048Y-135196476D01*
X162232381Y-144006857D02*
X161756190Y-144340191D01*
X162232381Y-144578286D02*
X161232381Y-144578286D01*
X161232381Y-144197333D01*
X161280000Y-144102095D01*
X161327619Y-144054476D01*
X161422857Y-144006857D01*
X161565714Y-144006857D01*
X161660952Y-144054476D01*
X161708571Y-144102095D01*
X161756190Y-144197333D01*
X161756190Y-144578286D01*
X162232381Y-143054476D02*
X162232381Y-143625905D01*
X162232381Y-143340191D02*
X161232381Y-143340191D01*
X161375238Y-143435429D01*
X161470476Y-143530667D01*
X161518095Y-143625905D01*
X161232381Y-142149714D02*
X161232381Y-142625905D01*
X161708571Y-142673524D01*
X161660952Y-142625905D01*
X161613333Y-142530667D01*
X161613333Y-142292571D01*
X161660952Y-142197333D01*
X161708571Y-142149714D01*
X161803810Y-142102095D01*
X162041905Y-142102095D01*
X162137143Y-142149714D01*
X162184762Y-142197333D01*
X162232381Y-142292571D01*
X162232381Y-142530667D01*
X162184762Y-142625905D01*
X162137143Y-142673524D01*
X188779381Y-123959857D02*
X188303190Y-124293191D01*
X188779381Y-124531286D02*
X187779381Y-124531286D01*
X187779381Y-124150333D01*
X187827000Y-124055095D01*
X187874619Y-124007476D01*
X187969857Y-123959857D01*
X188112714Y-123959857D01*
X188207952Y-124007476D01*
X188255571Y-124055095D01*
X188303190Y-124150333D01*
X188303190Y-124531286D01*
X188779381Y-123007476D02*
X188779381Y-123578905D01*
X188779381Y-123293191D02*
X187779381Y-123293191D01*
X187922238Y-123388429D01*
X188017476Y-123483667D01*
X188065095Y-123578905D01*
X187779381Y-122150333D02*
X187779381Y-122340810D01*
X187827000Y-122436048D01*
X187874619Y-122483667D01*
X188017476Y-122578905D01*
X188207952Y-122626524D01*
X188588905Y-122626524D01*
X188684143Y-122578905D01*
X188731762Y-122531286D01*
X188779381Y-122436048D01*
X188779381Y-122245571D01*
X188731762Y-122150333D01*
X188684143Y-122102714D01*
X188588905Y-122055095D01*
X188350810Y-122055095D01*
X188255571Y-122102714D01*
X188207952Y-122150333D01*
X188160333Y-122245571D01*
X188160333Y-122436048D01*
X188207952Y-122531286D01*
X188255571Y-122578905D01*
X188350810Y-122626524D01*
X164772381Y-137148857D02*
X164296190Y-137482191D01*
X164772381Y-137720286D02*
X163772381Y-137720286D01*
X163772381Y-137339333D01*
X163820000Y-137244095D01*
X163867619Y-137196476D01*
X163962857Y-137148857D01*
X164105714Y-137148857D01*
X164200952Y-137196476D01*
X164248571Y-137244095D01*
X164296190Y-137339333D01*
X164296190Y-137720286D01*
X164772381Y-136196476D02*
X164772381Y-136767905D01*
X164772381Y-136482191D02*
X163772381Y-136482191D01*
X163915238Y-136577429D01*
X164010476Y-136672667D01*
X164058095Y-136767905D01*
X163772381Y-135863143D02*
X163772381Y-135196476D01*
X164772381Y-135625048D01*
X167312381Y-144006857D02*
X166836190Y-144340191D01*
X167312381Y-144578286D02*
X166312381Y-144578286D01*
X166312381Y-144197333D01*
X166360000Y-144102095D01*
X166407619Y-144054476D01*
X166502857Y-144006857D01*
X166645714Y-144006857D01*
X166740952Y-144054476D01*
X166788571Y-144102095D01*
X166836190Y-144197333D01*
X166836190Y-144578286D01*
X167312381Y-143054476D02*
X167312381Y-143625905D01*
X167312381Y-143340191D02*
X166312381Y-143340191D01*
X166455238Y-143435429D01*
X166550476Y-143530667D01*
X166598095Y-143625905D01*
X166740952Y-142483048D02*
X166693333Y-142578286D01*
X166645714Y-142625905D01*
X166550476Y-142673524D01*
X166502857Y-142673524D01*
X166407619Y-142625905D01*
X166360000Y-142578286D01*
X166312381Y-142483048D01*
X166312381Y-142292571D01*
X166360000Y-142197333D01*
X166407619Y-142149714D01*
X166502857Y-142102095D01*
X166550476Y-142102095D01*
X166645714Y-142149714D01*
X166693333Y-142197333D01*
X166740952Y-142292571D01*
X166740952Y-142483048D01*
X166788571Y-142578286D01*
X166836190Y-142625905D01*
X166931429Y-142673524D01*
X167121905Y-142673524D01*
X167217143Y-142625905D01*
X167264762Y-142578286D01*
X167312381Y-142483048D01*
X167312381Y-142292571D01*
X167264762Y-142197333D01*
X167217143Y-142149714D01*
X167121905Y-142102095D01*
X166931429Y-142102095D01*
X166836190Y-142149714D01*
X166788571Y-142197333D01*
X166740952Y-142292571D01*
X199334381Y-128912857D02*
X198858190Y-129246191D01*
X199334381Y-129484286D02*
X198334381Y-129484286D01*
X198334381Y-129103333D01*
X198382000Y-129008095D01*
X198429619Y-128960476D01*
X198524857Y-128912857D01*
X198667714Y-128912857D01*
X198762952Y-128960476D01*
X198810571Y-129008095D01*
X198858190Y-129103333D01*
X198858190Y-129484286D01*
X199334381Y-127960476D02*
X199334381Y-128531905D01*
X199334381Y-128246191D02*
X198334381Y-128246191D01*
X198477238Y-128341429D01*
X198572476Y-128436667D01*
X198620095Y-128531905D01*
X199334381Y-127484286D02*
X199334381Y-127293810D01*
X199286762Y-127198571D01*
X199239143Y-127150952D01*
X199096286Y-127055714D01*
X198905810Y-127008095D01*
X198524857Y-127008095D01*
X198429619Y-127055714D01*
X198382000Y-127103333D01*
X198334381Y-127198571D01*
X198334381Y-127389048D01*
X198382000Y-127484286D01*
X198429619Y-127531905D01*
X198524857Y-127579524D01*
X198762952Y-127579524D01*
X198858190Y-127531905D01*
X198905810Y-127484286D01*
X198953429Y-127389048D01*
X198953429Y-127198571D01*
X198905810Y-127103333D01*
X198858190Y-127055714D01*
X198762952Y-127008095D01*
X169852381Y-137148857D02*
X169376190Y-137482191D01*
X169852381Y-137720286D02*
X168852381Y-137720286D01*
X168852381Y-137339333D01*
X168900000Y-137244095D01*
X168947619Y-137196476D01*
X169042857Y-137148857D01*
X169185714Y-137148857D01*
X169280952Y-137196476D01*
X169328571Y-137244095D01*
X169376190Y-137339333D01*
X169376190Y-137720286D01*
X168947619Y-136767905D02*
X168900000Y-136720286D01*
X168852381Y-136625048D01*
X168852381Y-136386952D01*
X168900000Y-136291714D01*
X168947619Y-136244095D01*
X169042857Y-136196476D01*
X169138095Y-136196476D01*
X169280952Y-136244095D01*
X169852381Y-136815524D01*
X169852381Y-136196476D01*
X168852381Y-135577429D02*
X168852381Y-135482190D01*
X168900000Y-135386952D01*
X168947619Y-135339333D01*
X169042857Y-135291714D01*
X169233333Y-135244095D01*
X169471429Y-135244095D01*
X169661905Y-135291714D01*
X169757143Y-135339333D01*
X169804762Y-135386952D01*
X169852381Y-135482190D01*
X169852381Y-135577429D01*
X169804762Y-135672667D01*
X169757143Y-135720286D01*
X169661905Y-135767905D01*
X169471429Y-135815524D01*
X169233333Y-135815524D01*
X169042857Y-135767905D01*
X168947619Y-135720286D01*
X168900000Y-135672667D01*
X168852381Y-135577429D01*
X181808381Y-136532857D02*
X181332190Y-136866191D01*
X181808381Y-137104286D02*
X180808381Y-137104286D01*
X180808381Y-136723333D01*
X180856000Y-136628095D01*
X180903619Y-136580476D01*
X180998857Y-136532857D01*
X181141714Y-136532857D01*
X181236952Y-136580476D01*
X181284571Y-136628095D01*
X181332190Y-136723333D01*
X181332190Y-137104286D01*
X180903619Y-136151905D02*
X180856000Y-136104286D01*
X180808381Y-136009048D01*
X180808381Y-135770952D01*
X180856000Y-135675714D01*
X180903619Y-135628095D01*
X180998857Y-135580476D01*
X181094095Y-135580476D01*
X181236952Y-135628095D01*
X181808381Y-136199524D01*
X181808381Y-135580476D01*
X181808381Y-134628095D02*
X181808381Y-135199524D01*
X181808381Y-134913810D02*
X180808381Y-134913810D01*
X180951238Y-135009048D01*
X181046476Y-135104286D01*
X181094095Y-135199524D01*
X185618381Y-136532857D02*
X185142190Y-136866191D01*
X185618381Y-137104286D02*
X184618381Y-137104286D01*
X184618381Y-136723333D01*
X184666000Y-136628095D01*
X184713619Y-136580476D01*
X184808857Y-136532857D01*
X184951714Y-136532857D01*
X185046952Y-136580476D01*
X185094571Y-136628095D01*
X185142190Y-136723333D01*
X185142190Y-137104286D01*
X184713619Y-136151905D02*
X184666000Y-136104286D01*
X184618381Y-136009048D01*
X184618381Y-135770952D01*
X184666000Y-135675714D01*
X184713619Y-135628095D01*
X184808857Y-135580476D01*
X184904095Y-135580476D01*
X185046952Y-135628095D01*
X185618381Y-136199524D01*
X185618381Y-135580476D01*
X184713619Y-135199524D02*
X184666000Y-135151905D01*
X184618381Y-135056667D01*
X184618381Y-134818571D01*
X184666000Y-134723333D01*
X184713619Y-134675714D01*
X184808857Y-134628095D01*
X184904095Y-134628095D01*
X185046952Y-134675714D01*
X185618381Y-135247143D01*
X185618381Y-134628095D01*
X188920381Y-136532857D02*
X188444190Y-136866191D01*
X188920381Y-137104286D02*
X187920381Y-137104286D01*
X187920381Y-136723333D01*
X187968000Y-136628095D01*
X188015619Y-136580476D01*
X188110857Y-136532857D01*
X188253714Y-136532857D01*
X188348952Y-136580476D01*
X188396571Y-136628095D01*
X188444190Y-136723333D01*
X188444190Y-137104286D01*
X188015619Y-136151905D02*
X187968000Y-136104286D01*
X187920381Y-136009048D01*
X187920381Y-135770952D01*
X187968000Y-135675714D01*
X188015619Y-135628095D01*
X188110857Y-135580476D01*
X188206095Y-135580476D01*
X188348952Y-135628095D01*
X188920381Y-136199524D01*
X188920381Y-135580476D01*
X187920381Y-135247143D02*
X187920381Y-134628095D01*
X188301333Y-134961429D01*
X188301333Y-134818571D01*
X188348952Y-134723333D01*
X188396571Y-134675714D01*
X188491810Y-134628095D01*
X188729905Y-134628095D01*
X188825143Y-134675714D01*
X188872762Y-134723333D01*
X188920381Y-134818571D01*
X188920381Y-135104286D01*
X188872762Y-135199524D01*
X188825143Y-135247143D01*
X178539143Y-86492381D02*
X178205809Y-86016190D01*
X177967714Y-86492381D02*
X177967714Y-85492381D01*
X178348667Y-85492381D01*
X178443905Y-85540000D01*
X178491524Y-85587619D01*
X178539143Y-85682857D01*
X178539143Y-85825714D01*
X178491524Y-85920952D01*
X178443905Y-85968571D01*
X178348667Y-86016190D01*
X177967714Y-86016190D01*
X178920095Y-85587619D02*
X178967714Y-85540000D01*
X179062952Y-85492381D01*
X179301048Y-85492381D01*
X179396286Y-85540000D01*
X179443905Y-85587619D01*
X179491524Y-85682857D01*
X179491524Y-85778095D01*
X179443905Y-85920952D01*
X178872476Y-86492381D01*
X179491524Y-86492381D01*
X180348667Y-85825714D02*
X180348667Y-86492381D01*
X180110571Y-85444762D02*
X179872476Y-86159048D01*
X180491524Y-86159048D01*
X193794143Y-88068381D02*
X193460809Y-87592190D01*
X193222714Y-88068381D02*
X193222714Y-87068381D01*
X193603667Y-87068381D01*
X193698905Y-87116000D01*
X193746524Y-87163619D01*
X193794143Y-87258857D01*
X193794143Y-87401714D01*
X193746524Y-87496952D01*
X193698905Y-87544571D01*
X193603667Y-87592190D01*
X193222714Y-87592190D01*
X194175095Y-87163619D02*
X194222714Y-87116000D01*
X194317952Y-87068381D01*
X194556048Y-87068381D01*
X194651286Y-87116000D01*
X194698905Y-87163619D01*
X194746524Y-87258857D01*
X194746524Y-87354095D01*
X194698905Y-87496952D01*
X194127476Y-88068381D01*
X194746524Y-88068381D01*
X195651286Y-87068381D02*
X195175095Y-87068381D01*
X195127476Y-87544571D01*
X195175095Y-87496952D01*
X195270333Y-87449333D01*
X195508429Y-87449333D01*
X195603667Y-87496952D01*
X195651286Y-87544571D01*
X195698905Y-87639810D01*
X195698905Y-87877905D01*
X195651286Y-87973143D01*
X195603667Y-88020762D01*
X195508429Y-88068381D01*
X195270333Y-88068381D01*
X195175095Y-88020762D01*
X195127476Y-87973143D01*
X180778381Y-96527857D02*
X180302190Y-96861191D01*
X180778381Y-97099286D02*
X179778381Y-97099286D01*
X179778381Y-96718333D01*
X179826000Y-96623095D01*
X179873619Y-96575476D01*
X179968857Y-96527857D01*
X180111714Y-96527857D01*
X180206952Y-96575476D01*
X180254571Y-96623095D01*
X180302190Y-96718333D01*
X180302190Y-97099286D01*
X179873619Y-96146905D02*
X179826000Y-96099286D01*
X179778381Y-96004048D01*
X179778381Y-95765952D01*
X179826000Y-95670714D01*
X179873619Y-95623095D01*
X179968857Y-95575476D01*
X180064095Y-95575476D01*
X180206952Y-95623095D01*
X180778381Y-96194524D01*
X180778381Y-95575476D01*
X179778381Y-94718333D02*
X179778381Y-94908810D01*
X179826000Y-95004048D01*
X179873619Y-95051667D01*
X180016476Y-95146905D01*
X180206952Y-95194524D01*
X180587905Y-95194524D01*
X180683143Y-95146905D01*
X180730762Y-95099286D01*
X180778381Y-95004048D01*
X180778381Y-94813571D01*
X180730762Y-94718333D01*
X180683143Y-94670714D01*
X180587905Y-94623095D01*
X180349810Y-94623095D01*
X180254571Y-94670714D01*
X180206952Y-94718333D01*
X180159333Y-94813571D01*
X180159333Y-95004048D01*
X180206952Y-95099286D01*
X180254571Y-95146905D01*
X180349810Y-95194524D01*
X195016381Y-128912857D02*
X194540190Y-129246191D01*
X195016381Y-129484286D02*
X194016381Y-129484286D01*
X194016381Y-129103333D01*
X194064000Y-129008095D01*
X194111619Y-128960476D01*
X194206857Y-128912857D01*
X194349714Y-128912857D01*
X194444952Y-128960476D01*
X194492571Y-129008095D01*
X194540190Y-129103333D01*
X194540190Y-129484286D01*
X194111619Y-128531905D02*
X194064000Y-128484286D01*
X194016381Y-128389048D01*
X194016381Y-128150952D01*
X194064000Y-128055714D01*
X194111619Y-128008095D01*
X194206857Y-127960476D01*
X194302095Y-127960476D01*
X194444952Y-128008095D01*
X195016381Y-128579524D01*
X195016381Y-127960476D01*
X194016381Y-127627143D02*
X194016381Y-126960476D01*
X195016381Y-127389048D01*
X201922143Y-101558381D02*
X201588809Y-101082190D01*
X201350714Y-101558381D02*
X201350714Y-100558381D01*
X201731667Y-100558381D01*
X201826905Y-100606000D01*
X201874524Y-100653619D01*
X201922143Y-100748857D01*
X201922143Y-100891714D01*
X201874524Y-100986952D01*
X201826905Y-101034571D01*
X201731667Y-101082190D01*
X201350714Y-101082190D01*
X202303095Y-100653619D02*
X202350714Y-100606000D01*
X202445952Y-100558381D01*
X202684048Y-100558381D01*
X202779286Y-100606000D01*
X202826905Y-100653619D01*
X202874524Y-100748857D01*
X202874524Y-100844095D01*
X202826905Y-100986952D01*
X202255476Y-101558381D01*
X202874524Y-101558381D01*
X203445952Y-100986952D02*
X203350714Y-100939333D01*
X203303095Y-100891714D01*
X203255476Y-100796476D01*
X203255476Y-100748857D01*
X203303095Y-100653619D01*
X203350714Y-100606000D01*
X203445952Y-100558381D01*
X203636429Y-100558381D01*
X203731667Y-100606000D01*
X203779286Y-100653619D01*
X203826905Y-100748857D01*
X203826905Y-100796476D01*
X203779286Y-100891714D01*
X203731667Y-100939333D01*
X203636429Y-100986952D01*
X203445952Y-100986952D01*
X203350714Y-101034571D01*
X203303095Y-101082190D01*
X203255476Y-101177429D01*
X203255476Y-101367905D01*
X203303095Y-101463143D01*
X203350714Y-101510762D01*
X203445952Y-101558381D01*
X203636429Y-101558381D01*
X203731667Y-101510762D01*
X203779286Y-101463143D01*
X203826905Y-101367905D01*
X203826905Y-101177429D01*
X203779286Y-101082190D01*
X203731667Y-101034571D01*
X203636429Y-100986952D01*
X199983381Y-103512857D02*
X199507190Y-103846191D01*
X199983381Y-104084286D02*
X198983381Y-104084286D01*
X198983381Y-103703333D01*
X199031000Y-103608095D01*
X199078619Y-103560476D01*
X199173857Y-103512857D01*
X199316714Y-103512857D01*
X199411952Y-103560476D01*
X199459571Y-103608095D01*
X199507190Y-103703333D01*
X199507190Y-104084286D01*
X199078619Y-103131905D02*
X199031000Y-103084286D01*
X198983381Y-102989048D01*
X198983381Y-102750952D01*
X199031000Y-102655714D01*
X199078619Y-102608095D01*
X199173857Y-102560476D01*
X199269095Y-102560476D01*
X199411952Y-102608095D01*
X199983381Y-103179524D01*
X199983381Y-102560476D01*
X199983381Y-102084286D02*
X199983381Y-101893810D01*
X199935762Y-101798571D01*
X199888143Y-101750952D01*
X199745286Y-101655714D01*
X199554810Y-101608095D01*
X199173857Y-101608095D01*
X199078619Y-101655714D01*
X199031000Y-101703333D01*
X198983381Y-101798571D01*
X198983381Y-101989048D01*
X199031000Y-102084286D01*
X199078619Y-102131905D01*
X199173857Y-102179524D01*
X199411952Y-102179524D01*
X199507190Y-102131905D01*
X199554810Y-102084286D01*
X199602429Y-101989048D01*
X199602429Y-101798571D01*
X199554810Y-101703333D01*
X199507190Y-101655714D01*
X199411952Y-101608095D01*
X169933881Y-80970357D02*
X169457690Y-81303691D01*
X169933881Y-81541786D02*
X168933881Y-81541786D01*
X168933881Y-81160833D01*
X168981500Y-81065595D01*
X169029119Y-81017976D01*
X169124357Y-80970357D01*
X169267214Y-80970357D01*
X169362452Y-81017976D01*
X169410071Y-81065595D01*
X169457690Y-81160833D01*
X169457690Y-81541786D01*
X168933881Y-80637024D02*
X168933881Y-80017976D01*
X169314833Y-80351310D01*
X169314833Y-80208452D01*
X169362452Y-80113214D01*
X169410071Y-80065595D01*
X169505310Y-80017976D01*
X169743405Y-80017976D01*
X169838643Y-80065595D01*
X169886262Y-80113214D01*
X169933881Y-80208452D01*
X169933881Y-80494167D01*
X169886262Y-80589405D01*
X169838643Y-80637024D01*
X168933881Y-79398929D02*
X168933881Y-79303690D01*
X168981500Y-79208452D01*
X169029119Y-79160833D01*
X169124357Y-79113214D01*
X169314833Y-79065595D01*
X169552929Y-79065595D01*
X169743405Y-79113214D01*
X169838643Y-79160833D01*
X169886262Y-79208452D01*
X169933881Y-79303690D01*
X169933881Y-79398929D01*
X169886262Y-79494167D01*
X169838643Y-79541786D01*
X169743405Y-79589405D01*
X169552929Y-79637024D01*
X169314833Y-79637024D01*
X169124357Y-79589405D01*
X169029119Y-79541786D01*
X168981500Y-79494167D01*
X168933881Y-79398929D01*
X185858381Y-95638857D02*
X185382190Y-95972191D01*
X185858381Y-96210286D02*
X184858381Y-96210286D01*
X184858381Y-95829333D01*
X184906000Y-95734095D01*
X184953619Y-95686476D01*
X185048857Y-95638857D01*
X185191714Y-95638857D01*
X185286952Y-95686476D01*
X185334571Y-95734095D01*
X185382190Y-95829333D01*
X185382190Y-96210286D01*
X184858381Y-95305524D02*
X184858381Y-94686476D01*
X185239333Y-95019810D01*
X185239333Y-94876952D01*
X185286952Y-94781714D01*
X185334571Y-94734095D01*
X185429810Y-94686476D01*
X185667905Y-94686476D01*
X185763143Y-94734095D01*
X185810762Y-94781714D01*
X185858381Y-94876952D01*
X185858381Y-95162667D01*
X185810762Y-95257905D01*
X185763143Y-95305524D01*
X185858381Y-93734095D02*
X185858381Y-94305524D01*
X185858381Y-94019810D02*
X184858381Y-94019810D01*
X185001238Y-94115048D01*
X185096476Y-94210286D01*
X185144095Y-94305524D01*
X190190381Y-115704857D02*
X189714190Y-116038191D01*
X190190381Y-116276286D02*
X189190381Y-116276286D01*
X189190381Y-115895333D01*
X189238000Y-115800095D01*
X189285619Y-115752476D01*
X189380857Y-115704857D01*
X189523714Y-115704857D01*
X189618952Y-115752476D01*
X189666571Y-115800095D01*
X189714190Y-115895333D01*
X189714190Y-116276286D01*
X189190381Y-115371524D02*
X189190381Y-114752476D01*
X189571333Y-115085810D01*
X189571333Y-114942952D01*
X189618952Y-114847714D01*
X189666571Y-114800095D01*
X189761810Y-114752476D01*
X189999905Y-114752476D01*
X190095143Y-114800095D01*
X190142762Y-114847714D01*
X190190381Y-114942952D01*
X190190381Y-115228667D01*
X190142762Y-115323905D01*
X190095143Y-115371524D01*
X189285619Y-114371524D02*
X189238000Y-114323905D01*
X189190381Y-114228667D01*
X189190381Y-113990571D01*
X189238000Y-113895333D01*
X189285619Y-113847714D01*
X189380857Y-113800095D01*
X189476095Y-113800095D01*
X189618952Y-113847714D01*
X190190381Y-114419143D01*
X190190381Y-113800095D01*
X169283143Y-86939381D02*
X168949809Y-86463190D01*
X168711714Y-86939381D02*
X168711714Y-85939381D01*
X169092667Y-85939381D01*
X169187905Y-85987000D01*
X169235524Y-86034619D01*
X169283143Y-86129857D01*
X169283143Y-86272714D01*
X169235524Y-86367952D01*
X169187905Y-86415571D01*
X169092667Y-86463190D01*
X168711714Y-86463190D01*
X169616476Y-85939381D02*
X170235524Y-85939381D01*
X169902190Y-86320333D01*
X170045048Y-86320333D01*
X170140286Y-86367952D01*
X170187905Y-86415571D01*
X170235524Y-86510810D01*
X170235524Y-86748905D01*
X170187905Y-86844143D01*
X170140286Y-86891762D01*
X170045048Y-86939381D01*
X169759333Y-86939381D01*
X169664095Y-86891762D01*
X169616476Y-86844143D01*
X170568857Y-85939381D02*
X171187905Y-85939381D01*
X170854571Y-86320333D01*
X170997429Y-86320333D01*
X171092667Y-86367952D01*
X171140286Y-86415571D01*
X171187905Y-86510810D01*
X171187905Y-86748905D01*
X171140286Y-86844143D01*
X171092667Y-86891762D01*
X170997429Y-86939381D01*
X170711714Y-86939381D01*
X170616476Y-86891762D01*
X170568857Y-86844143D01*
X196540381Y-113672857D02*
X196064190Y-114006191D01*
X196540381Y-114244286D02*
X195540381Y-114244286D01*
X195540381Y-113863333D01*
X195588000Y-113768095D01*
X195635619Y-113720476D01*
X195730857Y-113672857D01*
X195873714Y-113672857D01*
X195968952Y-113720476D01*
X196016571Y-113768095D01*
X196064190Y-113863333D01*
X196064190Y-114244286D01*
X195540381Y-113339524D02*
X195540381Y-112720476D01*
X195921333Y-113053810D01*
X195921333Y-112910952D01*
X195968952Y-112815714D01*
X196016571Y-112768095D01*
X196111810Y-112720476D01*
X196349905Y-112720476D01*
X196445143Y-112768095D01*
X196492762Y-112815714D01*
X196540381Y-112910952D01*
X196540381Y-113196667D01*
X196492762Y-113291905D01*
X196445143Y-113339524D01*
X195873714Y-111863333D02*
X196540381Y-111863333D01*
X195492762Y-112101429D02*
X196207048Y-112339524D01*
X196207048Y-111720476D01*
X152146095Y-130262381D02*
X152146095Y-131071905D01*
X152193714Y-131167143D01*
X152241333Y-131214762D01*
X152336571Y-131262381D01*
X152527048Y-131262381D01*
X152622286Y-131214762D01*
X152669905Y-131167143D01*
X152717524Y-131071905D01*
X152717524Y-130262381D01*
X153717524Y-131262381D02*
X153146095Y-131262381D01*
X153431809Y-131262381D02*
X153431809Y-130262381D01*
X153336571Y-130405238D01*
X153241333Y-130500476D01*
X153146095Y-130548095D01*
X186970381Y-112469905D02*
X187779905Y-112469905D01*
X187875143Y-112422286D01*
X187922762Y-112374667D01*
X187970381Y-112279429D01*
X187970381Y-112088952D01*
X187922762Y-111993714D01*
X187875143Y-111946095D01*
X187779905Y-111898476D01*
X186970381Y-111898476D01*
X187065619Y-111469905D02*
X187018000Y-111422286D01*
X186970381Y-111327048D01*
X186970381Y-111088952D01*
X187018000Y-110993714D01*
X187065619Y-110946095D01*
X187160857Y-110898476D01*
X187256095Y-110898476D01*
X187398952Y-110946095D01*
X187970381Y-111517524D01*
X187970381Y-110898476D01*
X121054881Y-98043905D02*
X121864405Y-98043905D01*
X121959643Y-97996286D01*
X122007262Y-97948667D01*
X122054881Y-97853429D01*
X122054881Y-97662952D01*
X122007262Y-97567714D01*
X121959643Y-97520095D01*
X121864405Y-97472476D01*
X121054881Y-97472476D01*
X121054881Y-97091524D02*
X121054881Y-96472476D01*
X121435833Y-96805810D01*
X121435833Y-96662952D01*
X121483452Y-96567714D01*
X121531071Y-96520095D01*
X121626310Y-96472476D01*
X121864405Y-96472476D01*
X121959643Y-96520095D01*
X122007262Y-96567714D01*
X122054881Y-96662952D01*
X122054881Y-96948667D01*
X122007262Y-97043905D01*
X121959643Y-97091524D01*
X121308881Y-117665405D02*
X122118405Y-117665405D01*
X122213643Y-117617786D01*
X122261262Y-117570167D01*
X122308881Y-117474929D01*
X122308881Y-117284452D01*
X122261262Y-117189214D01*
X122213643Y-117141595D01*
X122118405Y-117093976D01*
X121308881Y-117093976D01*
X121642214Y-116189214D02*
X122308881Y-116189214D01*
X121261262Y-116427310D02*
X121975548Y-116665405D01*
X121975548Y-116046357D01*
X151496095Y-91292381D02*
X151496095Y-92101905D01*
X151543714Y-92197143D01*
X151591333Y-92244762D01*
X151686571Y-92292381D01*
X151877048Y-92292381D01*
X151972286Y-92244762D01*
X152019905Y-92197143D01*
X152067524Y-92101905D01*
X152067524Y-91292381D01*
X153019905Y-91292381D02*
X152543714Y-91292381D01*
X152496095Y-91768571D01*
X152543714Y-91720952D01*
X152638952Y-91673333D01*
X152877048Y-91673333D01*
X152972286Y-91720952D01*
X153019905Y-91768571D01*
X153067524Y-91863810D01*
X153067524Y-92101905D01*
X153019905Y-92197143D01*
X152972286Y-92244762D01*
X152877048Y-92292381D01*
X152638952Y-92292381D01*
X152543714Y-92244762D01*
X152496095Y-92197143D01*
X162282190Y-108680191D02*
X162758381Y-108680191D01*
X161758381Y-109013524D02*
X162282190Y-108680191D01*
X161758381Y-108346857D01*
X162758381Y-107489714D02*
X162758381Y-108061143D01*
X162758381Y-107775429D02*
X161758381Y-107775429D01*
X161901238Y-107870667D01*
X161996476Y-107965905D01*
X162044095Y-108061143D01*
X180935334Y-102973143D02*
X180887715Y-103020762D01*
X180744858Y-103068381D01*
X180649620Y-103068381D01*
X180506762Y-103020762D01*
X180411524Y-102925524D01*
X180363905Y-102830286D01*
X180316286Y-102639810D01*
X180316286Y-102496952D01*
X180363905Y-102306476D01*
X180411524Y-102211238D01*
X180506762Y-102116000D01*
X180649620Y-102068381D01*
X180744858Y-102068381D01*
X180887715Y-102116000D01*
X180935334Y-102163619D01*
X181887715Y-103068381D02*
X181316286Y-103068381D01*
X181602000Y-103068381D02*
X181602000Y-102068381D01*
X181506762Y-102211238D01*
X181411524Y-102306476D01*
X181316286Y-102354095D01*
M02*
