M48
;DRILL file {KiCad 4.0.6} date Thursday, 09 May 2019 22:32:27
;FORMAT={2:4/ absolute / inch / keep zeros}
FMAT,2
INCH,TZ
T1C0.016
T2C0.031
T3C0.032
T4C0.039
T5C0.039
T6C0.040
T7C0.120
T8C0.138
%
G90
G05
M72
T1
X049213Y-049606
X049543Y-046080
X050781Y-034880
X050787Y-042126
X051950Y-044900
X051950Y-045687
X051950Y-046475
X051950Y-047262
X052737Y-044900
X052737Y-045687
X052737Y-046475
X052737Y-047262
X053094Y-031243
X053525Y-044900
X053525Y-045687
X053525Y-046475
X053525Y-047262
X054312Y-044900
X054312Y-045687
X054312Y-046475
X054312Y-047262
X056180Y-042130
X058250Y-035525
X059057Y-031480
X059244Y-040424
X059600Y-051200
X060925Y-039750
X061157Y-043980
X061600Y-035025
X062444Y-033192
X064350Y-048075
X066944Y-041792
X067450Y-040800
X068244Y-040992
X069244Y-050510
X070944Y-048567
X071150Y-042975
X071500Y-044950
X073187Y-041150
X073913Y-031700
X075400Y-032900
X075625Y-041475
X076450Y-039300
X077250Y-042150
X078225Y-046350
X078613Y-034250
X078650Y-036625
X079375Y-044550
T3
X065244Y-042019
X065244Y-043941
T4
X049213Y-037402
X049213Y-038402
X049213Y-039402
X050787Y-058843
X050787Y-059843
X051787Y-058843
X051787Y-059843
X052787Y-058843
X052787Y-059843
X053787Y-058843
X053787Y-059843
X054787Y-058843
X054787Y-059843
X055787Y-058843
X055787Y-059843
X056787Y-058843
X056787Y-059843
X057787Y-058843
X057787Y-059843
X058787Y-058843
X058787Y-059843
X059787Y-058843
X059787Y-059843
X060787Y-058843
X060787Y-059843
X061787Y-058843
X061787Y-059843
X062787Y-058843
X062787Y-059843
X063787Y-058843
X063787Y-059843
X064787Y-058843
X064787Y-059843
X065748Y-031496
X065748Y-032496
X065787Y-058843
X065787Y-059843
X067244Y-044980
X067244Y-045980
X067244Y-046980
X067244Y-047980
X067244Y-048980
X067244Y-049980
X072047Y-031496
X072047Y-032496
X078346Y-031496
X078346Y-032496
T5
X067504Y-061811
X068504Y-061811
X073409Y-061811
X074409Y-061811
X079315Y-061811
X080315Y-061811
T6
X053331Y-028740
X053876Y-027622
X054421Y-028740
X054967Y-027622
X055512Y-028740
X056057Y-027622
X056602Y-028740
X057148Y-027622
X057693Y-028740
X066444Y-037080
X066444Y-038080
X067444Y-037080
X067444Y-038080
X068444Y-037080
X068444Y-038080
T7
X050593Y-028181
X060431Y-028181
T8
X055772Y-038402
T2
X063957Y-026398G85X063957Y-026673
G05
X064035Y-029567G85X064311Y-029567
G05
X065610Y-025236G85X065886Y-025236
G05
X066791Y-027618G85X066791Y-027894
G05
X067736Y-028169G85X067736Y-028445
G05
X070256Y-026398G85X070256Y-026673
G05
X070335Y-029567G85X070610Y-029567
G05
X071909Y-025236G85X072185Y-025236
G05
X073091Y-027618G85X073091Y-027894
G05
X074035Y-028169G85X074035Y-028445
G05
X076555Y-026398G85X076555Y-026673
G05
X076634Y-029567G85X076909Y-029567
G05
X078209Y-025236G85X078484Y-025236
G05
X079390Y-027618G85X079390Y-027894
G05
X080335Y-028169G85X080335Y-028445
G05
T0
M30
