G04 #@! TF.FileFunction,Copper,L1,Top,Signal*
%FSLAX46Y46*%
G04 Gerber Fmt 4.6, Leading zero omitted, Abs format (unit mm)*
G04 Created by KiCad (PCBNEW 4.0.6) date Thursday, 09 May 2019 22:32:22*
%MOMM*%
%LPD*%
G01*
G04 APERTURE LIST*
%ADD10C,0.100000*%
%ADD11C,0.300000*%
%ADD12C,0.600000*%
%ADD13R,2.000000X1.600000*%
%ADD14R,1.600000X2.000000*%
%ADD15R,2.700000X3.750000*%
%ADD16R,3.750000X2.700000*%
%ADD17R,2.500000X3.750000*%
%ADD18R,1.727200X1.727200*%
%ADD19O,1.727200X1.727200*%
%ADD20R,2.700000X1.500000*%
%ADD21R,2.000000X2.000000*%
%ADD22C,2.000000*%
%ADD23R,1.800860X3.500120*%
%ADD24R,0.800000X1.900000*%
%ADD25O,2.800000X2.100000*%
%ADD26O,2.100000X2.800000*%
%ADD27R,1.700000X1.700000*%
%ADD28O,1.700000X1.700000*%
%ADD29C,4.000000*%
%ADD30R,1.650000X1.650000*%
%ADD31C,1.650000*%
%ADD32R,0.900000X0.800000*%
%ADD33R,0.800000X0.900000*%
%ADD34R,2.000000X1.700000*%
%ADD35R,1.700000X2.000000*%
%ADD36R,2.000000X0.600000*%
%ADD37R,0.550000X1.600000*%
%ADD38R,1.600000X0.550000*%
%ADD39C,4.500000*%
%ADD40R,1.800000X1.800000*%
%ADD41O,1.800000X1.800000*%
%ADD42R,4.600000X1.390000*%
%ADD43R,9.400000X10.800000*%
%ADD44R,1.550000X0.600000*%
%ADD45C,1.501140*%
%ADD46C,0.400000*%
%ADD47C,0.500000*%
G04 APERTURE END LIST*
D10*
D11*
X192786548Y-140284119D02*
X193015119Y-140360310D01*
X193396072Y-140360310D01*
X193548453Y-140284119D01*
X193624643Y-140207929D01*
X193700834Y-140055548D01*
X193700834Y-139903167D01*
X193624643Y-139750786D01*
X193548453Y-139674595D01*
X193396072Y-139598405D01*
X193091310Y-139522214D01*
X192938929Y-139446024D01*
X192862738Y-139369833D01*
X192786548Y-139217452D01*
X192786548Y-139065071D01*
X192862738Y-138912690D01*
X192938929Y-138836500D01*
X193091310Y-138760310D01*
X193472262Y-138760310D01*
X193700834Y-138836500D01*
X195453215Y-140512690D02*
X195300834Y-140436500D01*
X195148453Y-140284119D01*
X194919882Y-140055548D01*
X194767501Y-139979357D01*
X194615120Y-139979357D01*
X194691310Y-140360310D02*
X194538929Y-140284119D01*
X194386548Y-140131738D01*
X194310358Y-139826976D01*
X194310358Y-139293643D01*
X194386548Y-138988881D01*
X194538929Y-138836500D01*
X194691310Y-138760310D01*
X194996072Y-138760310D01*
X195148453Y-138836500D01*
X195300834Y-138988881D01*
X195377025Y-139293643D01*
X195377025Y-139826976D01*
X195300834Y-140131738D01*
X195148453Y-140284119D01*
X194996072Y-140360310D01*
X194691310Y-140360310D01*
X196291310Y-139446024D02*
X196138929Y-139369833D01*
X196062738Y-139293643D01*
X195986548Y-139141262D01*
X195986548Y-139065071D01*
X196062738Y-138912690D01*
X196138929Y-138836500D01*
X196291310Y-138760310D01*
X196596072Y-138760310D01*
X196748453Y-138836500D01*
X196824643Y-138912690D01*
X196900834Y-139065071D01*
X196900834Y-139141262D01*
X196824643Y-139293643D01*
X196748453Y-139369833D01*
X196596072Y-139446024D01*
X196291310Y-139446024D01*
X196138929Y-139522214D01*
X196062738Y-139598405D01*
X195986548Y-139750786D01*
X195986548Y-140055548D01*
X196062738Y-140207929D01*
X196138929Y-140284119D01*
X196291310Y-140360310D01*
X196596072Y-140360310D01*
X196748453Y-140284119D01*
X196824643Y-140207929D01*
X196900834Y-140055548D01*
X196900834Y-139750786D01*
X196824643Y-139598405D01*
X196748453Y-139522214D01*
X196596072Y-139446024D01*
X197586548Y-140360310D02*
X197586548Y-138760310D01*
X198500834Y-140360310D02*
X197815120Y-139446024D01*
X198500834Y-138760310D02*
X197586548Y-139674595D01*
X199719882Y-139522214D02*
X199186548Y-139522214D01*
X199186548Y-140360310D02*
X199186548Y-138760310D01*
X199948453Y-138760310D01*
X200557977Y-140360310D02*
X200557977Y-138760310D01*
X200557977Y-139522214D02*
X201472263Y-139522214D01*
X201472263Y-140360310D02*
X201472263Y-138760310D01*
D12*
X137953000Y-120046000D03*
X135953000Y-120046000D03*
X133953000Y-120046000D03*
X131953000Y-120046000D03*
X137953000Y-118046000D03*
X135953000Y-118046000D03*
X133953000Y-118046000D03*
X131953000Y-118046000D03*
X137953000Y-116046000D03*
X135953000Y-116046000D03*
X133953000Y-116046000D03*
X131953000Y-116046000D03*
X137953000Y-114046000D03*
X135953000Y-114046000D03*
X133953000Y-114046000D03*
D13*
X155338000Y-111708000D03*
X159338000Y-111708000D03*
X154004000Y-79958000D03*
X150004000Y-79958000D03*
D14*
X180198000Y-119360000D03*
X180198000Y-123360000D03*
D13*
X203676000Y-86995000D03*
X199676000Y-86995000D03*
X191738000Y-80518000D03*
X187738000Y-80518000D03*
D14*
X179182000Y-79736000D03*
X179182000Y-83736000D03*
X173340000Y-104120000D03*
X173340000Y-108120000D03*
X170038000Y-106152000D03*
X170038000Y-110152000D03*
D13*
X124985000Y-88594000D03*
X128985000Y-88594000D03*
D15*
X134859000Y-86908000D03*
X134859000Y-79358000D03*
D13*
X125000000Y-107000000D03*
X129000000Y-107000000D03*
D16*
X135148000Y-107009000D03*
X142698000Y-107009000D03*
D17*
X175880000Y-122045000D03*
X175880000Y-128295000D03*
D13*
X129000000Y-126000000D03*
X125000000Y-126000000D03*
D14*
X195184000Y-79736000D03*
X195184000Y-83736000D03*
X163180000Y-79736000D03*
X163180000Y-83736000D03*
X158608000Y-84308000D03*
X158608000Y-88308000D03*
D18*
X168768000Y-96722000D03*
D19*
X168768000Y-94182000D03*
X171308000Y-96722000D03*
X171308000Y-94182000D03*
X173848000Y-96722000D03*
X173848000Y-94182000D03*
D20*
X150480000Y-97878000D03*
X150480000Y-102678000D03*
D21*
X174000000Y-157000000D03*
D22*
X171460000Y-157000000D03*
D21*
X189000000Y-157000000D03*
D22*
X186460000Y-157000000D03*
D21*
X204000000Y-157000000D03*
D22*
X201460000Y-157000000D03*
D20*
X175626000Y-84390000D03*
X175626000Y-79590000D03*
D23*
X126604000Y-84108360D03*
X126604000Y-79109640D03*
D24*
X140894000Y-81331000D03*
X142794000Y-81331000D03*
X141844000Y-78331000D03*
D25*
X183000000Y-64100000D03*
D26*
X178450000Y-67400000D03*
X188050000Y-71900000D03*
D25*
X179000000Y-75100000D03*
D26*
X185650000Y-70500000D03*
D27*
X129000000Y-152000000D03*
D28*
X129000000Y-149460000D03*
X131540000Y-152000000D03*
X131540000Y-149460000D03*
X134080000Y-152000000D03*
X134080000Y-149460000D03*
X136620000Y-152000000D03*
X136620000Y-149460000D03*
X139160000Y-152000000D03*
X139160000Y-149460000D03*
X141700000Y-152000000D03*
X141700000Y-149460000D03*
X144240000Y-152000000D03*
X144240000Y-149460000D03*
X146780000Y-152000000D03*
X146780000Y-149460000D03*
X149320000Y-152000000D03*
X149320000Y-149460000D03*
X151860000Y-152000000D03*
X151860000Y-149460000D03*
X154400000Y-152000000D03*
X154400000Y-149460000D03*
X156940000Y-152000000D03*
X156940000Y-149460000D03*
X159480000Y-152000000D03*
X159480000Y-149460000D03*
X162020000Y-152000000D03*
X162020000Y-149460000D03*
X164560000Y-152000000D03*
X164560000Y-149460000D03*
X167100000Y-152000000D03*
X167100000Y-149460000D03*
D25*
X167000000Y-64100000D03*
D26*
X162450000Y-67400000D03*
X172050000Y-71900000D03*
D25*
X163000000Y-75100000D03*
D26*
X169650000Y-70500000D03*
D25*
X199000000Y-64100000D03*
D26*
X194450000Y-67400000D03*
X204050000Y-71900000D03*
D25*
X195000000Y-75100000D03*
D26*
X201650000Y-70500000D03*
D27*
X170800000Y-114248000D03*
D28*
X170800000Y-116788000D03*
X170800000Y-119328000D03*
X170800000Y-121868000D03*
X170800000Y-124408000D03*
X170800000Y-126948000D03*
D27*
X183000000Y-80000000D03*
D28*
X183000000Y-82540000D03*
D27*
X199000000Y-80000000D03*
D28*
X199000000Y-82540000D03*
D27*
X167000000Y-80000000D03*
D28*
X167000000Y-82540000D03*
D29*
X153495000Y-71580000D03*
X128505000Y-71580000D03*
D30*
X135460000Y-73000000D03*
D31*
X138230000Y-73000000D03*
X141000000Y-73000000D03*
X143770000Y-73000000D03*
X146540000Y-73000000D03*
X136845000Y-70160000D03*
X139615000Y-70160000D03*
X142385000Y-70160000D03*
X145155000Y-70160000D03*
D32*
X155830000Y-99074000D03*
X155830000Y-100974000D03*
X157830000Y-100024000D03*
X202295000Y-116393000D03*
X202295000Y-114493000D03*
X200295000Y-115443000D03*
X190738000Y-86548000D03*
X190738000Y-84648000D03*
X188738000Y-85598000D03*
X198993000Y-95946000D03*
X198993000Y-94046000D03*
X196993000Y-94996000D03*
D33*
X199070000Y-108093000D03*
X197170000Y-108093000D03*
X198120000Y-110093000D03*
X165923000Y-87011000D03*
X164023000Y-87011000D03*
X164973000Y-89011000D03*
X195519000Y-117967000D03*
X197419000Y-117967000D03*
X196469000Y-115967000D03*
X190185000Y-104505000D03*
X192085000Y-104505000D03*
X191135000Y-102505000D03*
X191201000Y-99171000D03*
X193101000Y-99171000D03*
X192151000Y-97171000D03*
D34*
X154068000Y-106882000D03*
X158068000Y-106882000D03*
D35*
X129000000Y-141364000D03*
X129000000Y-145364000D03*
X131540000Y-134506000D03*
X131540000Y-138506000D03*
X134080000Y-141364000D03*
X134080000Y-145364000D03*
X136620000Y-134506000D03*
X136620000Y-138506000D03*
X159370000Y-79672000D03*
X159370000Y-75672000D03*
X139160000Y-141364000D03*
X139160000Y-145364000D03*
X141700000Y-134506000D03*
X141700000Y-138506000D03*
X144240000Y-141364000D03*
X144240000Y-145364000D03*
X146780000Y-134506000D03*
X146780000Y-138506000D03*
X149320000Y-141364000D03*
X149320000Y-145364000D03*
X151860000Y-134506000D03*
X151860000Y-138506000D03*
X154400000Y-141364000D03*
X154400000Y-145364000D03*
X156940000Y-134506000D03*
X156940000Y-138506000D03*
X159480000Y-141364000D03*
X159480000Y-145364000D03*
X190627000Y-125317000D03*
X190627000Y-121317000D03*
X162020000Y-134506000D03*
X162020000Y-138506000D03*
X164560000Y-141364000D03*
X164560000Y-145364000D03*
X198882000Y-125317000D03*
X198882000Y-121317000D03*
X167100000Y-134506000D03*
X167100000Y-138506000D03*
X181356000Y-129064000D03*
X181356000Y-133064000D03*
X184912000Y-129064000D03*
X184912000Y-133064000D03*
X188468000Y-129064000D03*
X188468000Y-133064000D03*
D34*
X177182000Y-88340000D03*
X181182000Y-88340000D03*
X192437000Y-89916000D03*
X196437000Y-89916000D03*
D35*
X182626000Y-97885000D03*
X182626000Y-93885000D03*
X194564000Y-125317000D03*
X194564000Y-121317000D03*
D34*
X204565000Y-98806000D03*
X200565000Y-98806000D03*
D35*
X197231000Y-100870000D03*
X197231000Y-104870000D03*
X171323000Y-84169000D03*
X171323000Y-80169000D03*
X187706000Y-96996000D03*
X187706000Y-92996000D03*
X190754000Y-112236000D03*
X190754000Y-108236000D03*
D34*
X173704000Y-88392000D03*
X169704000Y-88392000D03*
D35*
X194056000Y-112236000D03*
X194056000Y-108236000D03*
D36*
X151368000Y-115010000D03*
X151368000Y-116280000D03*
X151368000Y-117550000D03*
X151368000Y-118820000D03*
X151368000Y-120090000D03*
X151368000Y-121360000D03*
X151368000Y-122630000D03*
X151368000Y-123900000D03*
X151368000Y-125170000D03*
X151368000Y-126440000D03*
X151368000Y-127710000D03*
X151368000Y-128980000D03*
X160768000Y-128980000D03*
X160768000Y-127710000D03*
X160768000Y-126440000D03*
X160768000Y-125170000D03*
X160768000Y-123900000D03*
X160768000Y-122630000D03*
X160768000Y-121360000D03*
X160768000Y-120090000D03*
X160768000Y-118820000D03*
X160768000Y-117550000D03*
X160768000Y-116280000D03*
X160768000Y-115010000D03*
D37*
X184268000Y-107458000D03*
X183468000Y-107458000D03*
X182668000Y-107458000D03*
X181868000Y-107458000D03*
X181068000Y-107458000D03*
X180268000Y-107458000D03*
X179468000Y-107458000D03*
X178668000Y-107458000D03*
D38*
X177218000Y-108908000D03*
X177218000Y-109708000D03*
X177218000Y-110508000D03*
X177218000Y-111308000D03*
X177218000Y-112108000D03*
X177218000Y-112908000D03*
X177218000Y-113708000D03*
X177218000Y-114508000D03*
D37*
X178668000Y-115958000D03*
X179468000Y-115958000D03*
X180268000Y-115958000D03*
X181068000Y-115958000D03*
X181868000Y-115958000D03*
X182668000Y-115958000D03*
X183468000Y-115958000D03*
X184268000Y-115958000D03*
D38*
X185718000Y-114508000D03*
X185718000Y-113708000D03*
X185718000Y-112908000D03*
X185718000Y-112108000D03*
X185718000Y-111308000D03*
X185718000Y-110508000D03*
X185718000Y-109708000D03*
X185718000Y-108908000D03*
D39*
X141660000Y-97540000D03*
D40*
X125000000Y-95000000D03*
D41*
X125000000Y-97540000D03*
X125000000Y-100080000D03*
D42*
X125839000Y-117042000D03*
D43*
X134989000Y-117042000D03*
D42*
X125839000Y-119582000D03*
X125839000Y-114502000D03*
D44*
X154958000Y-90245000D03*
X154958000Y-88975000D03*
X154958000Y-87705000D03*
X154958000Y-86435000D03*
X149558000Y-86435000D03*
X149558000Y-87705000D03*
X149558000Y-88975000D03*
X149558000Y-90245000D03*
D45*
X165720000Y-106727060D03*
X165720000Y-111608940D03*
D13*
X185896000Y-104521000D03*
X181896000Y-104521000D03*
D12*
X131953000Y-114046000D03*
X187738000Y-80518000D03*
X191516000Y-83566000D03*
X199676000Y-86995000D03*
X199771000Y-93027500D03*
X175880000Y-128295000D03*
X180198000Y-123360000D03*
X198691500Y-117729000D03*
X201612500Y-113157000D03*
X196215000Y-107061000D03*
X194183000Y-99822000D03*
X181610000Y-114173000D03*
X180721000Y-109156500D03*
X192087500Y-105346500D03*
X185896000Y-104521000D03*
X170038000Y-106152000D03*
X173340000Y-104120000D03*
X163449000Y-122110500D03*
X151384000Y-130048000D03*
X155338000Y-111708000D03*
X150480000Y-102678000D03*
X154749500Y-100965000D03*
X158608000Y-84308000D03*
X156464000Y-88963500D03*
X147955000Y-90233500D03*
X150004000Y-79958000D03*
X129000000Y-107000000D03*
X128985000Y-88594000D03*
X134859000Y-79358000D03*
X125000000Y-126000000D03*
X125839000Y-117042000D03*
X142698000Y-107009000D03*
X171323000Y-103632000D03*
D46*
X198882000Y-125317000D02*
X194564000Y-125317000D01*
X190627000Y-125317000D02*
X194564000Y-125317000D01*
X175880000Y-122045000D02*
X175880000Y-123429000D01*
X175880000Y-123429000D02*
X178943000Y-126492000D01*
X194564000Y-129286000D02*
X194564000Y-125317000D01*
X192786000Y-131064000D02*
X194564000Y-129286000D01*
X179959000Y-131064000D02*
X192786000Y-131064000D01*
X178943000Y-130048000D02*
X179959000Y-131064000D01*
X178943000Y-126492000D02*
X178943000Y-130048000D01*
X168768000Y-94182000D02*
X168768000Y-93106000D01*
X180689000Y-91948000D02*
X182626000Y-93885000D01*
X169926000Y-91948000D02*
X180689000Y-91948000D01*
X168768000Y-93106000D02*
X169926000Y-91948000D01*
X176276000Y-100278000D02*
X177653000Y-100278000D01*
X176276000Y-100278000D02*
X164196000Y-100278000D01*
X162481500Y-98563500D02*
X164196000Y-100278000D01*
X177653000Y-100278000D02*
X181896000Y-104521000D01*
X181868000Y-107458000D02*
X181868000Y-104549000D01*
X181868000Y-104549000D02*
X181896000Y-104521000D01*
X181868000Y-104676000D02*
X182023000Y-104521000D01*
X181868000Y-107458000D02*
X181868000Y-111308000D01*
X180268000Y-112908000D02*
X180268000Y-115958000D01*
X181868000Y-111308000D02*
X180268000Y-112908000D01*
X168768000Y-94182000D02*
X166863000Y-94182000D01*
X166863000Y-94182000D02*
X162481500Y-98563500D01*
X158608000Y-94690000D02*
X158608000Y-88308000D01*
X162481500Y-98563500D02*
X158608000Y-94690000D01*
X180198000Y-119360000D02*
X178565000Y-119360000D01*
X178565000Y-119360000D02*
X175880000Y-122045000D01*
X170800000Y-126948000D02*
X175703000Y-122045000D01*
X175703000Y-122045000D02*
X175880000Y-122045000D01*
D47*
X159338000Y-111708000D02*
X154512000Y-106882000D01*
X154512000Y-106882000D02*
X154068000Y-106882000D01*
X151242000Y-112216000D02*
X154068000Y-109390000D01*
X129000000Y-126000000D02*
X137458000Y-126000000D01*
X137458000Y-126000000D02*
X151242000Y-112216000D01*
X154068000Y-109390000D02*
X154068000Y-106882000D01*
D46*
X160768000Y-115010000D02*
X160768000Y-113138000D01*
X160768000Y-113138000D02*
X159338000Y-111708000D01*
X154958000Y-87705000D02*
X158005000Y-87705000D01*
X158005000Y-87705000D02*
X158608000Y-88308000D01*
X180268000Y-115958000D02*
X180268000Y-119290000D01*
X180268000Y-119290000D02*
X180198000Y-119360000D01*
D47*
X160768000Y-115010000D02*
X160894000Y-114884000D01*
X170800000Y-126948000D02*
X170800000Y-148300000D01*
X170800000Y-148300000D02*
X167100000Y-152000000D01*
X129000000Y-152000000D02*
X127653000Y-152000000D01*
X129000000Y-129505000D02*
X129000000Y-126000000D01*
X126731000Y-131774000D02*
X129000000Y-129505000D01*
X126731000Y-151078000D02*
X126731000Y-131774000D01*
X127653000Y-152000000D02*
X126731000Y-151078000D01*
X129000000Y-126000000D02*
X129000000Y-122743000D01*
X129000000Y-122743000D02*
X125839000Y-119582000D01*
X167100000Y-152000000D02*
X164560000Y-152000000D01*
X164560000Y-152000000D02*
X162020000Y-152000000D01*
X162020000Y-152000000D02*
X159480000Y-152000000D01*
X159480000Y-152000000D02*
X156940000Y-152000000D01*
X156940000Y-152000000D02*
X154400000Y-152000000D01*
X154400000Y-152000000D02*
X151860000Y-152000000D01*
X151860000Y-152000000D02*
X149320000Y-152000000D01*
X149320000Y-152000000D02*
X146780000Y-152000000D01*
X146780000Y-152000000D02*
X144240000Y-152000000D01*
X144240000Y-152000000D02*
X141700000Y-152000000D01*
X141700000Y-152000000D02*
X139160000Y-152000000D01*
X139160000Y-152000000D02*
X136620000Y-152000000D01*
X136620000Y-152000000D02*
X134080000Y-152000000D01*
X134080000Y-152000000D02*
X131540000Y-152000000D01*
X131540000Y-152000000D02*
X129000000Y-152000000D01*
D46*
X190738000Y-84648000D02*
X190738000Y-84344000D01*
X190738000Y-84344000D02*
X191516000Y-83566000D01*
X198993000Y-94046000D02*
X198993000Y-93805500D01*
X198993000Y-93805500D02*
X199771000Y-93027500D01*
X197419000Y-117967000D02*
X198453500Y-117967000D01*
X198453500Y-117967000D02*
X198691500Y-117729000D01*
X202295000Y-114493000D02*
X202295000Y-113839500D01*
X202295000Y-113839500D02*
X201612500Y-113157000D01*
X197170000Y-108093000D02*
X197170000Y-108016000D01*
X197170000Y-108016000D02*
X196215000Y-107061000D01*
X193101000Y-99171000D02*
X193532000Y-99171000D01*
X193532000Y-99171000D02*
X194183000Y-99822000D01*
X181068000Y-115958000D02*
X181068000Y-114715000D01*
X181068000Y-114715000D02*
X181610000Y-114173000D01*
X181068000Y-107458000D02*
X181068000Y-108809500D01*
X181068000Y-108809500D02*
X180721000Y-109156500D01*
X192085000Y-104505000D02*
X192085000Y-105344000D01*
X192085000Y-105344000D02*
X192087500Y-105346500D01*
X160768000Y-122630000D02*
X162929500Y-122630000D01*
X162698500Y-121360000D02*
X163449000Y-122110500D01*
X162698500Y-121360000D02*
X160768000Y-121360000D01*
X162929500Y-122630000D02*
X163449000Y-122110500D01*
X151368000Y-128980000D02*
X151368000Y-130032000D01*
X151368000Y-130032000D02*
X151384000Y-130048000D01*
X155830000Y-100974000D02*
X154758500Y-100974000D01*
X154758500Y-100974000D02*
X154749500Y-100965000D01*
X154958000Y-88975000D02*
X156452500Y-88975000D01*
X156452500Y-88975000D02*
X156464000Y-88963500D01*
X149558000Y-90245000D02*
X147966500Y-90245000D01*
X147966500Y-90245000D02*
X147955000Y-90233500D01*
X195184000Y-83736000D02*
X197804000Y-83736000D01*
X197804000Y-83736000D02*
X199000000Y-82540000D01*
X163180000Y-83736000D02*
X165804000Y-83736000D01*
X165804000Y-83736000D02*
X167000000Y-82540000D01*
X179182000Y-83736000D02*
X181804000Y-83736000D01*
X181804000Y-83736000D02*
X183000000Y-82540000D01*
D47*
X141844000Y-78331000D02*
X141844000Y-76275000D01*
X141000000Y-75431000D02*
X141000000Y-73000000D01*
X141844000Y-76275000D02*
X141000000Y-75431000D01*
D46*
X155830000Y-99074000D02*
X154634000Y-97878000D01*
X154634000Y-97878000D02*
X150480000Y-97878000D01*
X159370000Y-79672000D02*
X154290000Y-79672000D01*
X154290000Y-79672000D02*
X154004000Y-79958000D01*
X150480000Y-97878000D02*
X151750000Y-96608000D01*
X152258000Y-81704000D02*
X154004000Y-79958000D01*
X152258000Y-89864000D02*
X152258000Y-81704000D01*
X151750000Y-90372000D02*
X152258000Y-89864000D01*
X151750000Y-96608000D02*
X151750000Y-90372000D01*
X150808000Y-97550000D02*
X150480000Y-97878000D01*
X202295000Y-116393000D02*
X202631000Y-116393000D01*
X202631000Y-116393000D02*
X203581000Y-115443000D01*
X202946000Y-101219000D02*
X202946000Y-87725000D01*
X203581000Y-101854000D02*
X202946000Y-101219000D01*
X203581000Y-115443000D02*
X203581000Y-101854000D01*
X202946000Y-87725000D02*
X203676000Y-86995000D01*
X198882000Y-121317000D02*
X200501000Y-121317000D01*
X202295000Y-119523000D02*
X202295000Y-116393000D01*
X200501000Y-121317000D02*
X202295000Y-119523000D01*
X204050000Y-71900000D02*
X204050000Y-86621000D01*
X204050000Y-86621000D02*
X203676000Y-86995000D01*
X194450000Y-67400000D02*
X191738000Y-70112000D01*
X191738000Y-70112000D02*
X191738000Y-80518000D01*
X188738000Y-85598000D02*
X188738000Y-83518000D01*
X188738000Y-83518000D02*
X191738000Y-80518000D01*
X196993000Y-94996000D02*
X196993000Y-100632000D01*
X196993000Y-100632000D02*
X197231000Y-100870000D01*
X192437000Y-89916000D02*
X192437000Y-92107000D01*
X195326000Y-94996000D02*
X196993000Y-94996000D01*
X192437000Y-92107000D02*
X195326000Y-94996000D01*
X182880000Y-88340000D02*
X190861000Y-88340000D01*
X190861000Y-88340000D02*
X192437000Y-89916000D01*
X181182000Y-88340000D02*
X182880000Y-88340000D01*
X182880000Y-88340000D02*
X182992000Y-88340000D01*
X184050000Y-80000000D02*
X183000000Y-80000000D01*
X185278000Y-81228000D02*
X184050000Y-80000000D01*
X185278000Y-86054000D02*
X185278000Y-81228000D01*
X182992000Y-88340000D02*
X185278000Y-86054000D01*
X183000000Y-80000000D02*
X179446000Y-80000000D01*
X179446000Y-80000000D02*
X179182000Y-79736000D01*
X177218000Y-109708000D02*
X174928000Y-109708000D01*
X174928000Y-109708000D02*
X173340000Y-108120000D01*
X173340000Y-108120000D02*
X167112940Y-108120000D01*
X167112940Y-108120000D02*
X165720000Y-106727060D01*
X177218000Y-110508000D02*
X170394000Y-110508000D01*
X170394000Y-110508000D02*
X170038000Y-110152000D01*
X170038000Y-110152000D02*
X167176940Y-110152000D01*
X167176940Y-110152000D02*
X165720000Y-111608940D01*
D47*
X126604000Y-84108360D02*
X126604000Y-86841000D01*
X126604000Y-86841000D02*
X126671000Y-86908000D01*
X134859000Y-86908000D02*
X126671000Y-86908000D01*
X126671000Y-86908000D02*
X124985000Y-88594000D01*
X125000000Y-95000000D02*
X125000000Y-88609000D01*
X125000000Y-88609000D02*
X124985000Y-88594000D01*
X171323000Y-80169000D02*
X171323000Y-77672000D01*
X164023000Y-87011000D02*
X162449000Y-87011000D01*
X161290000Y-85852000D02*
X161290000Y-77672000D01*
X162449000Y-87011000D02*
X161290000Y-85852000D01*
X155306000Y-64464000D02*
X157338000Y-66496000D01*
X125000000Y-107000000D02*
X123048000Y-105048000D01*
X130414000Y-64464000D02*
X155306000Y-64464000D01*
X123048000Y-71830000D02*
X130414000Y-64464000D01*
X123048000Y-105048000D02*
X123048000Y-71830000D01*
X173708000Y-77672000D02*
X175626000Y-79590000D01*
X157592000Y-77672000D02*
X161290000Y-77672000D01*
X161290000Y-77672000D02*
X171323000Y-77672000D01*
X171323000Y-77672000D02*
X173708000Y-77672000D01*
X157338000Y-77418000D02*
X157592000Y-77672000D01*
X157338000Y-66496000D02*
X157338000Y-77418000D01*
X135148000Y-107009000D02*
X133332000Y-107009000D01*
X133332000Y-107009000D02*
X125839000Y-114502000D01*
X125000000Y-107000000D02*
X125000000Y-113663000D01*
X125000000Y-113663000D02*
X125839000Y-114502000D01*
X125000000Y-100080000D02*
X125000000Y-107000000D01*
X135148000Y-107009000D02*
X135139000Y-107000000D01*
D46*
X196469000Y-115967000D02*
X196469000Y-114935000D01*
X192913000Y-82804000D02*
X195184000Y-80533000D01*
X192913000Y-84836000D02*
X192913000Y-82804000D01*
X193802000Y-85725000D02*
X192913000Y-84836000D01*
X195326000Y-85725000D02*
X193802000Y-85725000D01*
X202184000Y-92583000D02*
X195326000Y-85725000D01*
X202184000Y-101219000D02*
X202184000Y-92583000D01*
X200406000Y-102997000D02*
X202184000Y-101219000D01*
X200406000Y-110998000D02*
X200406000Y-102997000D01*
X196469000Y-114935000D02*
X200406000Y-110998000D01*
X195184000Y-80533000D02*
X195184000Y-79736000D01*
X199000000Y-80000000D02*
X195448000Y-80000000D01*
X195448000Y-80000000D02*
X195184000Y-79736000D01*
X173704000Y-88392000D02*
X173704000Y-88868000D01*
X173704000Y-88868000D02*
X175006000Y-90170000D01*
X192151000Y-94107000D02*
X192151000Y-97171000D01*
X188214000Y-90170000D02*
X192151000Y-94107000D01*
X175006000Y-90170000D02*
X188214000Y-90170000D01*
X167000000Y-80000000D02*
X168265000Y-80000000D01*
X173228000Y-82550000D02*
X173228000Y-87916000D01*
X172847000Y-82169000D02*
X173228000Y-82550000D01*
X170434000Y-82169000D02*
X172847000Y-82169000D01*
X168265000Y-80000000D02*
X170434000Y-82169000D01*
X173228000Y-87916000D02*
X173704000Y-88392000D01*
X167000000Y-80000000D02*
X163444000Y-80000000D01*
X163444000Y-80000000D02*
X163180000Y-79736000D01*
X184268000Y-107458000D02*
X184268000Y-102607000D01*
X177404000Y-98119000D02*
X173086000Y-98119000D01*
X173086000Y-98119000D02*
X172578000Y-97611000D01*
D11*
X172578000Y-97611000D02*
X172578000Y-93547000D01*
X172578000Y-93547000D02*
X171816000Y-92785000D01*
X171816000Y-92785000D02*
X170800000Y-92785000D01*
X170800000Y-92785000D02*
X170038000Y-93547000D01*
X170038000Y-94817000D02*
X168768000Y-96087000D01*
X170038000Y-93547000D02*
X170038000Y-94817000D01*
D46*
X179780000Y-98119000D02*
X177404000Y-98119000D01*
X184268000Y-102607000D02*
X179780000Y-98119000D01*
D11*
X168768000Y-96087000D02*
X168768000Y-96722000D01*
D46*
X183468000Y-107458000D02*
X183468000Y-103204000D01*
D11*
X170038000Y-96087000D02*
X171308000Y-94817000D01*
X170038000Y-97865000D02*
X170038000Y-96087000D01*
D46*
X171181000Y-99008000D02*
X170038000Y-97865000D01*
X177023000Y-99008000D02*
X171181000Y-99008000D01*
X179272000Y-99008000D02*
X177023000Y-99008000D01*
X183468000Y-103204000D02*
X179272000Y-99008000D01*
D11*
X171308000Y-94817000D02*
X171308000Y-94182000D01*
D46*
X173848000Y-96722000D02*
X181463000Y-96722000D01*
X181463000Y-96722000D02*
X182626000Y-97885000D01*
X185718000Y-109708000D02*
X186964000Y-109708000D01*
X187706000Y-102965000D02*
X182626000Y-97885000D01*
X187706000Y-108966000D02*
X187706000Y-102965000D01*
X186964000Y-109708000D02*
X187706000Y-108966000D01*
X181356000Y-133064000D02*
X181356000Y-144272000D01*
X171460000Y-154168000D02*
X171460000Y-157000000D01*
X181356000Y-144272000D02*
X171460000Y-154168000D01*
X184912000Y-133064000D02*
X184912000Y-155452000D01*
X184912000Y-155452000D02*
X186460000Y-157000000D01*
X188468000Y-133064000D02*
X188468000Y-144008000D01*
X188468000Y-144008000D02*
X201460000Y-157000000D01*
X177182000Y-88340000D02*
X175626000Y-86784000D01*
X175626000Y-86784000D02*
X175626000Y-84390000D01*
D47*
X145155000Y-70160000D02*
X145155000Y-68918000D01*
X132319000Y-73394640D02*
X126604000Y-79109640D01*
X132319000Y-69798000D02*
X132319000Y-73394640D01*
X134605000Y-67512000D02*
X132319000Y-69798000D01*
X143749000Y-67512000D02*
X134605000Y-67512000D01*
X145155000Y-68918000D02*
X143749000Y-67512000D01*
D46*
X149558000Y-87705000D02*
X143749000Y-87705000D01*
X140894000Y-84850000D02*
X140894000Y-81331000D01*
X143749000Y-87705000D02*
X140894000Y-84850000D01*
X138230000Y-73000000D02*
X138230000Y-74185000D01*
X138230000Y-74185000D02*
X140894000Y-76849000D01*
X140894000Y-76849000D02*
X140894000Y-77130465D01*
X140894000Y-77130465D02*
X140894000Y-81331000D01*
X142794000Y-81331000D02*
X144741000Y-81331000D01*
X150607000Y-88975000D02*
X149558000Y-88975000D01*
X151242000Y-88340000D02*
X150607000Y-88975000D01*
X151242000Y-85546000D02*
X151242000Y-88340000D01*
X149972000Y-84276000D02*
X151242000Y-85546000D01*
X147686000Y-84276000D02*
X149972000Y-84276000D01*
X144741000Y-81331000D02*
X147686000Y-84276000D01*
X142794000Y-81331000D02*
X142794000Y-75447000D01*
X142794000Y-75447000D02*
X142352000Y-75005000D01*
X142352000Y-75005000D02*
X142352000Y-72338000D01*
X142352000Y-72338000D02*
X140174000Y-70160000D01*
X140174000Y-70160000D02*
X139615000Y-70160000D01*
X162450000Y-67400000D02*
X178450000Y-67400000D01*
X159370000Y-75672000D02*
X159370000Y-74624000D01*
X171104000Y-72846000D02*
X172050000Y-71900000D01*
X161148000Y-72846000D02*
X171104000Y-72846000D01*
X159370000Y-74624000D02*
X161148000Y-72846000D01*
X188050000Y-71900000D02*
X187100000Y-71900000D01*
X187100000Y-71900000D02*
X186000000Y-73000000D01*
X186000000Y-73000000D02*
X174000000Y-73000000D01*
X174000000Y-73000000D02*
X172900000Y-71900000D01*
X172900000Y-71900000D02*
X172050000Y-71900000D01*
X177218000Y-112108000D02*
X172940000Y-112108000D01*
X172940000Y-112108000D02*
X170800000Y-114248000D01*
X160768000Y-116280000D02*
X168768000Y-116280000D01*
X168768000Y-116280000D02*
X170800000Y-114248000D01*
X177218000Y-112908000D02*
X174680000Y-112908000D01*
X174680000Y-112908000D02*
X170800000Y-116788000D01*
X160768000Y-117550000D02*
X170038000Y-117550000D01*
X170038000Y-117550000D02*
X170800000Y-116788000D01*
X177218000Y-113708000D02*
X176166000Y-113708000D01*
X176166000Y-113708000D02*
X170800000Y-119074000D01*
X170800000Y-119074000D02*
X170800000Y-119328000D01*
X160768000Y-118820000D02*
X170292000Y-118820000D01*
X170292000Y-118820000D02*
X170800000Y-119328000D01*
X177218000Y-114508000D02*
X177218000Y-115450000D01*
X177218000Y-115450000D02*
X170800000Y-121868000D01*
X160768000Y-120090000D02*
X169022000Y-120090000D01*
X169022000Y-120090000D02*
X170800000Y-121868000D01*
D47*
X153495000Y-71580000D02*
X147960000Y-71580000D01*
X147960000Y-71580000D02*
X148067000Y-71473000D01*
X146540000Y-73000000D02*
X148067000Y-71473000D01*
X134097000Y-65988000D02*
X128505000Y-71580000D01*
X145019000Y-65988000D02*
X134097000Y-65988000D01*
X148067000Y-69036000D02*
X145019000Y-65988000D01*
X148067000Y-71473000D02*
X148067000Y-69036000D01*
D46*
X200295000Y-115443000D02*
X200295000Y-118475000D01*
X199263000Y-119507000D02*
X196723000Y-119507000D01*
X200295000Y-118475000D02*
X199263000Y-119507000D01*
X190627000Y-121317000D02*
X192246000Y-122936000D01*
X196723000Y-119507000D02*
X195519000Y-118303000D01*
X196723000Y-122555000D02*
X196723000Y-119507000D01*
X196342000Y-122936000D02*
X196723000Y-122555000D01*
X192246000Y-122936000D02*
X196342000Y-122936000D01*
X195519000Y-118303000D02*
X195519000Y-117967000D01*
X185718000Y-113708000D02*
X187749000Y-113708000D01*
X190627000Y-116586000D02*
X190627000Y-121317000D01*
X187749000Y-113708000D02*
X190627000Y-116586000D01*
X190738000Y-86548000D02*
X193069000Y-86548000D01*
X193069000Y-86548000D02*
X196437000Y-89916000D01*
X198993000Y-95946000D02*
X198993000Y-97234000D01*
X198993000Y-97234000D02*
X200565000Y-98806000D01*
X199070000Y-108093000D02*
X199070000Y-106709000D01*
X199070000Y-106709000D02*
X197231000Y-104870000D01*
X198120000Y-110093000D02*
X198120000Y-111633000D01*
X193199000Y-121317000D02*
X194564000Y-121317000D01*
X192659000Y-120777000D02*
X193199000Y-121317000D01*
X192659000Y-115189000D02*
X192659000Y-120777000D01*
X193294000Y-114554000D02*
X192659000Y-115189000D01*
X195199000Y-114554000D02*
X193294000Y-114554000D01*
X198120000Y-111633000D02*
X195199000Y-114554000D01*
X198120000Y-110093000D02*
X188865000Y-110093000D01*
X188450000Y-110508000D02*
X185718000Y-110508000D01*
X188865000Y-110093000D02*
X188450000Y-110508000D01*
X171323000Y-84169000D02*
X171323000Y-86487000D01*
X185769000Y-91059000D02*
X187706000Y-92996000D01*
X172593000Y-91059000D02*
X185769000Y-91059000D01*
X171704000Y-90170000D02*
X172593000Y-91059000D01*
X171704000Y-86868000D02*
X171704000Y-90170000D01*
X171323000Y-86487000D02*
X171704000Y-86868000D01*
X165923000Y-87011000D02*
X168765000Y-84169000D01*
X168765000Y-84169000D02*
X171323000Y-84169000D01*
X164973000Y-89011000D02*
X169085000Y-89011000D01*
X169085000Y-89011000D02*
X169704000Y-88392000D01*
X190185000Y-104505000D02*
X190185000Y-107667000D01*
X190185000Y-107667000D02*
X190754000Y-108236000D01*
X187706000Y-96996000D02*
X187706000Y-99076000D01*
X187706000Y-99076000D02*
X191135000Y-102505000D01*
X191201000Y-99171000D02*
X191201000Y-99634000D01*
X194056000Y-102489000D02*
X194056000Y-108236000D01*
X191201000Y-99634000D02*
X194056000Y-102489000D01*
X151368000Y-115010000D02*
X149845000Y-115010000D01*
X129000000Y-133315000D02*
X129000000Y-141364000D01*
X131049000Y-131266000D02*
X129000000Y-133315000D01*
X133589000Y-131266000D02*
X131049000Y-131266000D01*
X149845000Y-115010000D02*
X133589000Y-131266000D01*
X151368000Y-116280000D02*
X149845000Y-116280000D01*
X149845000Y-116280000D02*
X131619000Y-134506000D01*
X131619000Y-134506000D02*
X131540000Y-134506000D01*
X151368000Y-117550000D02*
X149845000Y-117550000D01*
X134080000Y-133315000D02*
X134080000Y-141364000D01*
X149845000Y-117550000D02*
X134080000Y-133315000D01*
X151368000Y-118820000D02*
X149845000Y-118820000D01*
X136620000Y-132045000D02*
X136620000Y-134506000D01*
X149845000Y-118820000D02*
X136620000Y-132045000D01*
X151368000Y-120090000D02*
X149845000Y-120090000D01*
X139160000Y-130775000D02*
X139160000Y-141364000D01*
X149845000Y-120090000D02*
X139160000Y-130775000D01*
X151368000Y-121360000D02*
X149845000Y-121360000D01*
X141700000Y-129505000D02*
X141700000Y-134506000D01*
X149845000Y-121360000D02*
X141700000Y-129505000D01*
X151368000Y-122630000D02*
X149845000Y-122630000D01*
X144240000Y-128235000D02*
X144240000Y-141364000D01*
X149845000Y-122630000D02*
X144240000Y-128235000D01*
X151368000Y-123900000D02*
X149845000Y-123900000D01*
X146780000Y-126965000D02*
X146780000Y-134506000D01*
X149845000Y-123900000D02*
X146780000Y-126965000D01*
X149320000Y-141364000D02*
X149320000Y-125695000D01*
X149845000Y-125170000D02*
X151368000Y-125170000D01*
X149320000Y-125695000D02*
X149845000Y-125170000D01*
X151860000Y-134506000D02*
X151860000Y-133315000D01*
X152893000Y-126440000D02*
X151368000Y-126440000D01*
X154798000Y-128345000D02*
X152893000Y-126440000D01*
X154798000Y-130377000D02*
X154798000Y-128345000D01*
X151860000Y-133315000D02*
X154798000Y-130377000D01*
X154400000Y-141364000D02*
X154400000Y-137472000D01*
X152893000Y-127710000D02*
X151368000Y-127710000D01*
X153909000Y-128726000D02*
X152893000Y-127710000D01*
X153909000Y-129996000D02*
X153909000Y-128726000D01*
X152385000Y-131520000D02*
X153909000Y-129996000D01*
X150861000Y-131520000D02*
X152385000Y-131520000D01*
X150226000Y-132155000D02*
X150861000Y-131520000D01*
X150226000Y-136219000D02*
X150226000Y-132155000D01*
X150480000Y-136473000D02*
X150226000Y-136219000D01*
X153401000Y-136473000D02*
X150480000Y-136473000D01*
X154400000Y-137472000D02*
X153401000Y-136473000D01*
X160768000Y-128980000D02*
X156940000Y-132808000D01*
X156940000Y-132808000D02*
X156940000Y-134506000D01*
X159480000Y-141364000D02*
X159480000Y-137726000D01*
X159497000Y-127710000D02*
X160768000Y-127710000D01*
X155052000Y-132155000D02*
X159497000Y-127710000D01*
X155052000Y-135838000D02*
X155052000Y-132155000D01*
X155687000Y-136473000D02*
X155052000Y-135838000D01*
X158227000Y-136473000D02*
X155687000Y-136473000D01*
X159480000Y-137726000D02*
X158227000Y-136473000D01*
X160768000Y-126440000D02*
X162164000Y-126440000D01*
X162672000Y-126948000D02*
X162672000Y-133854000D01*
X162164000Y-126440000D02*
X162672000Y-126948000D01*
X162672000Y-133854000D02*
X162020000Y-134506000D01*
X160768000Y-125170000D02*
X162164000Y-125170000D01*
X164560000Y-127566000D02*
X164560000Y-141364000D01*
X162164000Y-125170000D02*
X164560000Y-127566000D01*
X160768000Y-123900000D02*
X162164000Y-123900000D01*
X167100000Y-128836000D02*
X167100000Y-134506000D01*
X162164000Y-123900000D02*
X167100000Y-128836000D01*
X204565000Y-98806000D02*
X204565000Y-122587000D01*
X185718000Y-122726000D02*
X185718000Y-114508000D01*
X186690000Y-123698000D02*
X185718000Y-122726000D01*
X203454000Y-123698000D02*
X186690000Y-123698000D01*
X204565000Y-122587000D02*
X203454000Y-123698000D01*
X185718000Y-112108000D02*
X190626000Y-112108000D01*
X190626000Y-112108000D02*
X190754000Y-112236000D01*
X185718000Y-112908000D02*
X188473000Y-112908000D01*
X192913000Y-113792000D02*
X194056000Y-112649000D01*
X189357000Y-113792000D02*
X192913000Y-113792000D01*
X188473000Y-112908000D02*
X189357000Y-113792000D01*
X194056000Y-112649000D02*
X194056000Y-112236000D01*
X180268000Y-107458000D02*
X180268000Y-105682000D01*
X154958000Y-92564000D02*
X154958000Y-90245000D01*
X163688000Y-101294000D02*
X154958000Y-92564000D01*
X175880000Y-101294000D02*
X163688000Y-101294000D01*
X180268000Y-105682000D02*
X175880000Y-101294000D01*
X179468000Y-107458000D02*
X179468000Y-106152000D01*
X153909000Y-86435000D02*
X154958000Y-86435000D01*
X153274000Y-87070000D02*
X153909000Y-86435000D01*
X153274000Y-92404000D02*
X153274000Y-87070000D01*
X163180000Y-102310000D02*
X153274000Y-92404000D01*
X175626000Y-102310000D02*
X163180000Y-102310000D01*
X179468000Y-106152000D02*
X175626000Y-102310000D01*
X129000000Y-149460000D02*
X129000000Y-145364000D01*
X131540000Y-149460000D02*
X131540000Y-138506000D01*
X134080000Y-149460000D02*
X134080000Y-145364000D01*
X136620000Y-149460000D02*
X136620000Y-138506000D01*
X139160000Y-149460000D02*
X139160000Y-145364000D01*
X141700000Y-149460000D02*
X141700000Y-138506000D01*
X144240000Y-149460000D02*
X144240000Y-145364000D01*
X146780000Y-149460000D02*
X146780000Y-138506000D01*
X149320000Y-149460000D02*
X149320000Y-145364000D01*
X151860000Y-149460000D02*
X151860000Y-138506000D01*
X154400000Y-149460000D02*
X154400000Y-145364000D01*
X156940000Y-149460000D02*
X156940000Y-138506000D01*
X159480000Y-149460000D02*
X159480000Y-145364000D01*
X162020000Y-149460000D02*
X162020000Y-138506000D01*
X164560000Y-149460000D02*
X164560000Y-145364000D01*
X167100000Y-149460000D02*
X167100000Y-138506000D01*
X158068000Y-105965000D02*
X158068000Y-106882000D01*
X160401000Y-103632000D02*
X158068000Y-105965000D01*
X171323000Y-103632000D02*
X160401000Y-103632000D01*
X157830000Y-100024000D02*
X158068000Y-100262000D01*
X158068000Y-100262000D02*
X158068000Y-106882000D01*
X163180000Y-113486000D02*
X161656000Y-111962000D01*
X163180000Y-113486000D02*
X164704000Y-115010000D01*
X164704000Y-115010000D02*
X166736000Y-115010000D01*
X166736000Y-115010000D02*
X169530000Y-112216000D01*
X169530000Y-112216000D02*
X171308000Y-112216000D01*
X171308000Y-112216000D02*
X172216000Y-111308000D01*
X177218000Y-111308000D02*
X172216000Y-111308000D01*
X161656000Y-110470000D02*
X158068000Y-106882000D01*
X161656000Y-111962000D02*
X161656000Y-110470000D01*
X182668000Y-115958000D02*
X182668000Y-127752000D01*
X182668000Y-127752000D02*
X181356000Y-129064000D01*
X183468000Y-115958000D02*
X183468000Y-127620000D01*
X183468000Y-127620000D02*
X184912000Y-129064000D01*
X184268000Y-115958000D02*
X184268000Y-124864000D01*
X184268000Y-124864000D02*
X188468000Y-129064000D01*
M02*
